<svg width="185" height="176" viewBox="0 0 185 176" fill="none" xmlns="http://www.w3.org/2000/svg">
<path d="M170.917 163.905L169.395 149.639" stroke="#263238" stroke-width="0.985332" stroke-linecap="round" stroke-linejoin="round"/>
<path d="M169.387 150.039C169.387 150.039 166.654 147.914 166.654 143.057C166.654 138.199 170.299 134.257 170.299 134.257C170.299 134.257 174.251 139.114 173.339 143.968C172.427 148.822 169.387 150.039 169.387 150.039Z" fill="#59A3D4" stroke="#263238" stroke-width="0.985332" stroke-linecap="round" stroke-linejoin="round"/>
<path d="M169.395 149.638L170.091 138.918" stroke="#263238" stroke-width="0.985332" stroke-linecap="round" stroke-linejoin="round"/>
<path d="M172.321 162.852C173.647 159.438 175.267 156.144 177.162 153.008" stroke="#263238" stroke-width="0.985332" stroke-linecap="round" stroke-linejoin="round"/>
<path d="M175.73 155.588C175.73 155.588 174.212 152.474 176.359 148.127C178.507 143.78 183.524 141.844 183.524 141.844C183.524 141.844 184.92 147.942 181.951 151.896C178.982 155.851 175.73 155.588 175.73 155.588Z" fill="#59A3D4" stroke="#263238" stroke-width="0.985332" stroke-linecap="round" stroke-linejoin="round"/>
<path d="M175.73 155.587L181.263 146.504" stroke="#263238" stroke-width="0.985332" stroke-linecap="round" stroke-linejoin="round"/>
<path d="M168.451 164.124C167.627 161.381 166.506 158.736 165.109 156.235L162.981 152.575" stroke="#263238" stroke-width="0.985332" stroke-linecap="round" stroke-linejoin="round"/>
<path d="M164.692 155.407C163.013 155.922 161.231 156.004 159.512 155.645C157.793 155.287 156.193 154.5 154.861 153.357C150.142 149.399 150.405 141.321 150.405 141.321C150.405 141.321 159.552 140.017 163.245 145.193C164.315 146.642 165.008 148.334 165.261 150.117C165.513 151.9 165.318 153.718 164.692 155.407Z" fill="#59A3D4" stroke="#263238" stroke-width="0.985332" stroke-linecap="round" stroke-linejoin="round"/>
<path d="M164.692 155.407L153.85 144.125" stroke="#263238" stroke-width="0.985332" stroke-linecap="round" stroke-linejoin="round"/>
<path d="M175.919 160.85H164.346V172.182H175.919V160.85Z" fill="#263238" stroke="#263238" stroke-width="0.985332" stroke-linecap="round" stroke-linejoin="round"/>
<path d="M156.583 1H79.1699V66.1268H156.583V1Z" fill="white" stroke="#263238" stroke-width="0.985332" stroke-linecap="round" stroke-linejoin="round"/>
<path d="M95.2379 37.6145H94.6087L94.5025 36.8998H93.7396L93.6295 37.6145H93.0593L93.6924 33.6602H94.6048L95.2379 37.6145ZM93.8183 36.3618H94.416L94.1171 34.3591L93.8183 36.3618Z" fill="#263238"/>
<path d="M96.1186 33.6602V36.7113C96.1186 36.9941 96.2445 37.104 96.4411 37.104C96.6377 37.104 96.7675 37.0019 96.7675 36.7113V33.6602H97.3534V36.672C97.3534 37.3043 97.0388 37.6655 96.4254 37.6655C95.8119 37.6655 95.4973 37.3043 95.4973 36.672V33.6602H96.1186Z" fill="#263238"/>
<path d="M97.5972 33.6602H99.5201V34.2256H98.8713V37.6145H98.2617V34.2256H97.6129L97.5972 33.6602Z" fill="#263238"/>
<path d="M100.417 37.6145H99.7915V33.6602H100.417V35.3566H101.121V33.6602H101.758V37.6145H101.121V35.922H100.417V37.6145Z" fill="#263238"/>
<path d="M102.831 35.3251H103.684V35.8906H102.831V37.0687H103.905V37.6341H102.194V33.6602H103.889V34.2256H102.815L102.831 35.3251Z" fill="#263238"/>
<path d="M104.845 34.7715V37.6341H104.286V33.6602H105.073L105.714 36.0163V33.6602H106.268V37.6145H105.627L104.845 34.7715Z" fill="#263238"/>
<path d="M106.52 33.6602H108.447V34.2256H107.794V37.6145H107.173V34.2256H106.52V33.6602Z" fill="#263238"/>
<path d="M108.722 33.6602H109.343V37.6145H108.722V33.6602Z" fill="#263238"/>
<path d="M111.6 36.1412V36.6674C111.6 37.2996 111.286 37.6609 110.672 37.6609C110.059 37.6609 109.744 37.2996 109.744 36.6674V34.6097C109.744 33.9736 110.063 33.6123 110.672 33.6123C111.282 33.6123 111.6 33.9736 111.6 34.6097V35.0024H111.015V34.5783C111.015 34.2956 110.889 34.1856 110.692 34.1856C110.495 34.1856 110.37 34.2956 110.37 34.5783V36.7145C110.37 36.9972 110.492 37.1072 110.692 37.1072C110.893 37.1072 111.015 37.009 111.015 36.7145V36.149L111.6 36.1412Z" fill="#263238"/>
<path d="M113.992 37.6145H113.362L113.256 36.8998H112.497L112.387 37.6145H111.817L112.45 33.6602H113.362L113.992 37.6145ZM112.572 36.3618H113.17L112.871 34.3591L112.572 36.3618Z" fill="#263238"/>
<path d="M113.885 33.6602H115.812V34.2256H115.171V37.6145H114.55V34.2256H113.897L113.885 33.6602Z" fill="#263238"/>
<path d="M116.705 35.3251H117.558V35.8906H116.705V37.0687H117.782V37.6341H116.083V33.6602H117.782V34.2256H116.705V35.3251Z" fill="#263238"/>
<path d="M119.627 36.3029L118.84 33.6602H119.497L119.973 35.4626L120.448 33.6602H121.042L120.256 36.3029V37.6145H119.634L119.627 36.3029Z" fill="#263238"/>
<path d="M121.148 34.6104C121.148 34.3605 121.248 34.1207 121.425 33.944C121.602 33.7673 121.842 33.668 122.092 33.668C122.343 33.668 122.583 33.7673 122.76 33.944C122.937 34.1207 123.036 34.3605 123.036 34.6104V36.6681C123.036 36.918 122.937 37.1577 122.76 37.3345C122.583 37.5112 122.343 37.6105 122.092 37.6105C121.842 37.6105 121.602 37.5112 121.425 37.3345C121.248 37.1577 121.148 36.918 121.148 36.6681V34.6104ZM121.77 36.7074C121.77 36.9901 121.896 37.1 122.092 37.1C122.289 37.1 122.415 36.994 122.415 36.7074V34.5711C122.415 34.2884 122.289 34.1785 122.092 34.1785C121.896 34.1785 121.77 34.2884 121.77 34.5711V36.7074Z" fill="#263238"/>
<path d="M124.031 33.6602V36.7113C124.031 36.9941 124.157 37.104 124.353 37.104C124.55 37.104 124.676 37.0019 124.676 36.7113V33.6602H125.266V36.672C125.266 37.3043 124.951 37.6655 124.338 37.6655C123.724 37.6655 123.41 37.3043 123.41 36.672V33.6602H124.031Z" fill="#263238"/>
<path d="M126.992 37.6145C126.94 37.4578 126.921 37.2919 126.937 37.1276V36.5071C126.937 36.1419 126.811 36.0045 126.544 36.0045H126.327V37.6145H125.706V33.6602H126.646C127.291 33.6602 127.566 33.9586 127.566 34.5712V34.8814C127.586 35.0365 127.56 35.1942 127.49 35.3341C127.42 35.474 127.309 35.5899 127.173 35.6668C127.483 35.7964 127.586 36.0948 127.586 36.5071V37.1276C127.574 37.2902 127.596 37.4535 127.653 37.6066L126.992 37.6145ZM126.312 34.2256V35.439H126.575C126.807 35.439 126.949 35.3369 126.949 35.0228V34.6301C126.949 34.3474 126.854 34.2374 126.634 34.2374L126.312 34.2256Z" fill="#263238"/>
<path d="M130.858 37.6145H130.228L130.122 36.8998H129.355L129.249 37.6145H128.679L129.328 33.6602H130.24L130.858 37.6145ZM129.438 36.3618H130.036L129.721 34.3788L129.438 36.3618Z" fill="#263238"/>
<path d="M132.946 36.1412V36.6674C132.946 37.2996 132.627 37.6609 132.018 37.6609C131.408 37.6609 131.09 37.2996 131.09 36.6674V34.6097C131.09 33.9736 131.404 33.6123 132.018 33.6123C132.631 33.6123 132.946 33.9736 132.946 34.6097V35.0024H132.356V34.5783C132.356 34.2956 132.23 34.1856 132.033 34.1856C131.837 34.1856 131.711 34.2956 131.711 34.5783V36.7145C131.711 36.9972 131.837 37.1072 132.033 37.1072C132.23 37.1072 132.356 37.009 132.356 36.7145V36.149L132.946 36.1412Z" fill="#263238"/>
<path d="M135.128 36.1412V36.6674C135.128 37.2996 134.813 37.6609 134.2 37.6609C133.587 37.6609 133.272 37.2996 133.272 36.6674V34.6097C133.272 33.9736 133.591 33.6123 134.2 33.6123C134.81 33.6123 135.128 33.9736 135.128 34.6097V35.0024H134.538V34.5783C134.538 34.2956 134.416 34.1856 134.216 34.1856C134.015 34.1856 133.893 34.2956 133.893 34.5783V36.7145C133.893 36.9972 134.019 37.1072 134.216 37.1072C134.412 37.1072 134.538 37.009 134.538 36.7145V36.149L135.128 36.1412Z" fill="#263238"/>
<path d="M135.455 34.6108C135.446 34.4817 135.465 34.3522 135.508 34.2304C135.552 34.1086 135.62 33.997 135.709 33.9026C135.798 33.8082 135.905 33.7329 136.024 33.6815C136.143 33.6301 136.271 33.6035 136.4 33.6035C136.53 33.6035 136.658 33.6301 136.777 33.6815C136.896 33.7329 137.003 33.8082 137.092 33.9026C137.18 33.997 137.249 34.1086 137.292 34.2304C137.336 34.3522 137.354 34.4817 137.346 34.6108V36.6685C137.354 36.7976 137.336 36.9271 137.292 37.0489C137.249 37.1707 137.18 37.2823 137.092 37.3767C137.003 37.4711 136.896 37.5464 136.777 37.5978C136.658 37.6492 136.53 37.6758 136.4 37.6758C136.271 37.6758 136.143 37.6492 136.024 37.5978C135.905 37.5464 135.798 37.4711 135.709 37.3767C135.62 37.2823 135.552 37.1707 135.508 37.0489C135.465 36.9271 135.446 36.7976 135.455 36.6685V34.6108ZM136.08 36.7078C136.08 36.9905 136.202 37.1004 136.402 37.1004C136.603 37.1004 136.725 36.9944 136.725 36.7078V34.5715C136.725 34.2888 136.599 34.1789 136.402 34.1789C136.206 34.1789 136.08 34.2888 136.08 34.5715V36.7078Z" fill="#263238"/>
<path d="M138.341 33.6602V36.7113C138.341 36.9941 138.467 37.104 138.663 37.104C138.86 37.104 138.986 37.0019 138.986 36.7113V33.6602H139.576V36.672C139.576 37.3043 139.261 37.6655 138.648 37.6655C138.034 37.6655 137.719 37.3043 137.719 36.672V33.6602H138.341Z" fill="#263238"/>
<path d="M140.555 34.7715V37.6341H139.996V33.6602H140.783L141.424 36.0163V33.6602H141.978V37.6145H141.337L140.555 34.7715Z" fill="#263238"/>
<path d="M142.234 33.6602H144.161V34.2256H143.508V37.6145H142.887V34.2256H142.234V33.6602Z" fill="#263238"/>
<path d="M127.006 21.5328C127.786 16.6981 124.493 12.1475 119.651 11.3688C114.81 10.5901 110.253 13.8781 109.473 18.7128C108.693 23.5475 111.986 28.0981 116.827 28.8768C121.669 29.6555 126.226 26.3675 127.006 21.5328Z" fill="#59A3D4"/>
<path d="M122.112 18.0779C122.112 18.8429 121.885 19.5907 121.459 20.2268C121.033 20.8629 120.428 21.3587 119.721 21.6514C119.013 21.9442 118.234 22.0208 117.483 21.8715C116.731 21.7223 116.041 21.3539 115.499 20.813C114.958 20.272 114.589 19.5828 114.439 18.8325C114.29 18.0822 114.367 17.3045 114.66 16.5977C114.953 15.8909 115.449 15.2868 116.086 14.8618C116.723 14.4368 117.472 14.21 118.238 14.21C119.266 14.21 120.251 14.6175 120.977 15.3429C121.704 16.0682 122.112 17.0521 122.112 18.0779Z" fill="#263238"/>
<path d="M111.864 26.2898C112.691 27.1431 113.682 27.8217 114.777 28.2851C115.872 28.7485 117.049 28.9873 118.238 28.9873C119.428 28.9873 120.605 28.7485 121.7 28.2851C122.795 27.8217 123.786 27.1431 124.613 26.2898V26.0345C124.613 25.5866 124.525 25.1429 124.354 24.7289C124.183 24.3149 123.932 23.9387 123.615 23.6218C123.298 23.3049 122.921 23.0534 122.507 22.8819C122.092 22.7104 121.648 22.6221 121.2 22.6221H115.281C114.375 22.6221 113.506 22.9816 112.865 23.6215C112.224 24.2615 111.864 25.1295 111.864 26.0345V26.2898Z" fill="#263238"/>
<path d="M144.849 44.7412H91.2817V51.2441H144.849V44.7412Z" stroke="#263238" stroke-width="0.985332" stroke-miterlimit="10"/>
<path d="M144.849 54.4922H91.2817V60.9951H144.849V54.4922Z" fill="#59A3D4" stroke="#263238" stroke-width="0.985332" stroke-miterlimit="10"/>
<path d="M109.249 48.1762V48.5689H108.282V49.9747H109.461V50.3674H107.833V46.4248H109.461V46.8175H108.282V48.1683L109.249 48.1762Z" fill="#BDBDBD"/>
<path d="M110.267 50.3831H109.874V46.4248H110.452L111.368 49.2836V46.4248H111.762V50.3831H111.301L110.287 47.1827L110.267 50.3831Z" fill="#BDBDBD"/>
<path d="M112.768 50.384V46.8263H112.025V46.4336H113.928V46.8263H113.205V50.384H112.768Z" fill="#BDBDBD"/>
<path d="M115.655 48.1762V48.5689H114.688V49.9747H115.867V50.3674H114.239V46.4248H115.867V46.8175H114.688V48.1683L115.655 48.1762Z" fill="#BDBDBD"/>
<path d="M117.165 46.4248C117.79 46.4248 118.05 46.7429 118.05 47.328V47.65C118.077 47.8221 118.042 47.9982 117.953 48.1476C117.863 48.2969 117.723 48.4099 117.558 48.4668C117.92 48.5728 118.054 48.8595 118.054 49.2914V49.9079C118.042 50.0703 118.069 50.233 118.132 50.3831H117.688C117.625 50.2303 117.599 50.0647 117.613 49.9001V49.2993C117.613 48.8516 117.405 48.7102 117.035 48.7102H116.744V50.4027H116.304V46.4248H117.165ZM117.055 48.2901C117.405 48.2901 117.613 48.1762 117.613 47.7482V47.3555C117.613 47.0021 117.483 46.8136 117.153 46.8136H116.744V48.2783L117.055 48.2901Z" fill="#BDBDBD"/>
<path d="M121.141 47.3794V47.7288H120.72V47.3362C120.72 46.9788 120.578 46.7628 120.256 46.7628C119.933 46.7628 119.792 46.9788 119.792 47.3362V49.4252C119.792 49.7826 119.937 49.9986 120.256 49.9986C120.574 49.9986 120.72 49.7826 120.72 49.4252V48.9108H121.141V49.4017C121.141 50.0025 120.853 50.3991 120.244 50.3991C119.634 50.3991 119.355 50.0064 119.355 49.4017V47.3558C119.355 46.7589 119.638 46.3623 120.244 46.3623C120.85 46.3623 121.141 46.7825 121.141 47.3794Z" fill="#BDBDBD"/>
<path d="M121.506 47.3802C121.506 46.7755 121.805 46.3867 122.411 46.3867C123.016 46.3867 123.323 46.7794 123.323 47.3802V49.4261C123.323 50.0269 123.024 50.4235 122.411 50.4235C121.797 50.4235 121.506 50.0308 121.506 49.4261V47.3802ZM121.943 49.4497C121.943 49.8109 122.096 50.023 122.411 50.023C122.725 50.023 122.882 49.8109 122.882 49.4497V47.3606C122.882 47.0032 122.733 46.7873 122.411 46.7873C122.088 46.7873 121.943 47.0032 121.943 47.3606V49.4497Z" fill="#BDBDBD"/>
<path d="M124.668 46.4248C125.285 46.4248 125.568 46.7979 125.568 47.4104V49.4053C125.568 50.01 125.285 50.3831 124.668 50.3831H123.74V46.4248H124.668ZM124.668 49.959C124.982 49.959 125.136 49.7626 125.136 49.4014V47.3673C125.136 47.006 124.982 46.8057 124.66 46.8057H124.184V49.9472L124.668 49.959Z" fill="#BDBDBD"/>
<path d="M127.389 48.1762V48.5689H126.422V49.9747H127.601V50.3674H125.969V46.4248H127.601V46.8175H126.422V48.1683L127.389 48.1762Z" fill="#BDBDBD"/>
<path d="M114.463 56.2119C115.077 56.2119 115.36 56.6046 115.36 57.1976V59.1924C115.36 59.7971 115.077 60.1702 114.463 60.1702H113.531V56.2119H114.463ZM114.463 59.7696C114.782 59.7696 114.935 59.5694 114.935 59.2081V57.174C114.935 56.8127 114.782 56.6164 114.46 56.6164H113.992V59.7579L114.463 59.7696Z" fill="#263238"/>
<path d="M115.741 57.1537C115.741 56.5489 116.04 56.1562 116.646 56.1562C117.251 56.1562 117.558 56.5489 117.558 57.1537V59.1996C117.576 59.3272 117.566 59.4573 117.528 59.5804C117.489 59.7036 117.424 59.8168 117.337 59.9118C117.25 60.0068 117.143 60.0813 117.023 60.13C116.903 60.1786 116.775 60.2002 116.646 60.1931C116.04 60.1931 115.741 59.8004 115.741 59.1996V57.1537ZM116.174 59.2231C116.174 59.5844 116.327 59.7925 116.646 59.7925C116.964 59.7925 117.114 59.5844 117.114 59.2231V57.1537C117.114 56.7963 116.968 56.5803 116.646 56.5803C116.323 56.5803 116.174 56.7963 116.174 57.1537V59.2231Z" fill="#263238"/>
<path d="M118.364 60.1702H117.971V56.2119H118.529L119.446 59.0746V56.2119H119.839V60.1702H119.379L118.364 56.9698V60.1702Z" fill="#263238"/>
<path d="M121.699 57.9672V58.3599H120.732V59.7696H121.911V60.1623H120.283V56.2119H121.915V56.6046H120.735V57.9554L121.699 57.9672Z" fill="#263238"/>
<path d="M156.583 1H79.1699V4.14933H156.583V1Z" fill="#59A3D4" stroke="#263238" stroke-width="0.985332" stroke-linecap="round" stroke-linejoin="round"/>
<path d="M27.3684 101.634V101.052" stroke="#263238" stroke-width="0.985332" stroke-linecap="round" stroke-linejoin="round"/>
<path d="M27.3684 99.9019V50.1134C27.3684 49.1075 27.5669 48.1114 27.9525 47.1822C28.3381 46.2529 28.9033 45.4086 29.6158 44.6975C30.3282 43.9863 31.174 43.4224 32.1048 43.0378C33.0356 42.6532 34.0332 42.4555 35.0405 42.4561H71.5214" stroke="#263238" stroke-width="0.985332" stroke-linecap="round" stroke-linejoin="round" stroke-dasharray="2.93 2.93"/>
<path d="M72.1152 42.4561H72.6933" stroke="#263238" stroke-width="0.985332" stroke-linecap="round" stroke-linejoin="round"/>
<path d="M76.5273 42.7739L70.259 39.1572V46.3866L76.5273 42.7739Z" fill="#263238"/>
<path d="M136.367 150.126H136.949" stroke="#263238" stroke-width="0.985332" stroke-linecap="round" stroke-linejoin="round"/>
<path d="M138.101 150.126H140.252C142.293 150.126 144.251 149.316 145.694 147.875C147.137 146.434 147.948 144.479 147.948 142.441V69.7939" stroke="#263238" stroke-width="0.985332" stroke-linecap="round" stroke-linejoin="round" stroke-dasharray="2.93 2.93"/>
<path d="M147.948 69.2216V68.6436" stroke="#263238" stroke-width="0.985332" stroke-linecap="round" stroke-linejoin="round"/>
<path d="M134.172 149.789L140.441 153.401V146.172L134.172 149.789Z" fill="#263238"/>
<path d="M101.325 102.651C101.659 102.015 102.162 101.483 102.777 101.113C103.393 100.743 104.098 100.548 104.817 100.55H138.459C138.459 100.55 140.889 100.55 140.162 105.164C139.434 109.778 129.462 137.949 127.027 146.447C124.593 154.945 124.11 172.918 124.11 172.918H83.7395C83.7395 172.918 86.9759 130.009 101.325 102.651Z" fill="white" stroke="#263238" stroke-width="0.985332" stroke-linecap="round" stroke-linejoin="round"/>
<path d="M132.623 108.565C129.222 116.489 122.006 147.833 120.857 172.918H124.11C124.11 172.918 124.609 154.933 127.027 146.447C129.446 137.961 139.43 109.778 140.162 105.164C140.893 100.55 138.459 100.55 138.459 100.55C138.459 100.55 135.348 102.211 132.623 108.565Z" fill="#263238" stroke="#263238" stroke-width="0.985332" stroke-linecap="round" stroke-linejoin="round"/>
<path d="M68.6509 101.186C68.6509 101.186 62.477 100.436 58.3991 96.156C54.3212 91.8757 67.2627 76.6121 74.172 73.0151C81.0812 69.4181 83.9283 70.4037 91.3369 75.8581C98.7456 81.3125 105.977 90.0655 105.887 95.9361C105.796 101.807 102.595 104.614 107.067 107.509C111.538 110.403 124.192 118.622 126.04 124.268C127.889 129.915 124.684 136.94 117.263 140.761C109.843 144.582 97.6681 144.405 85.9416 140.62C74.2152 136.834 71.6631 124.857 73.1731 119.984C74.6832 115.111 78.6785 111.761 77.4752 108.054C76.2719 104.347 68.6509 101.186 68.6509 101.186Z" fill="#263238" stroke="#263238" stroke-width="0.985332" stroke-linecap="round" stroke-linejoin="round"/>
<path d="M73.9439 118.02C73.9439 118.02 67.5577 117.133 64.6083 119.037C61.659 120.942 47.0856 145.814 47.0856 145.814L39.0359 134.996L32.0559 138.125C32.0559 138.125 35.3277 150.77 39.1342 157.061C42.9408 163.352 45.1115 163.988 46.4171 163.78C50.3023 163.163 61.5568 150.161 61.5568 150.161L65.6465 163.748L62.8702 173.624H114.581L108.309 163.179C108.309 163.179 116.492 125.481 114.408 121.487C112.324 117.494 100.181 118.02 96.3625 118.02H85.4304C83.7736 118.348 82.0899 118.522 80.4009 118.538C78.2411 118.476 76.086 118.303 73.9439 118.02Z" fill="#59A3D4"/>
<path d="M108.486 119.293L108.592 119.336L107.601 121.857L107.491 121.814L108.486 119.293ZM108.215 122.097L108.321 122.14L109.316 119.619L109.206 119.576L108.215 122.097ZM112.725 130.119L112.611 130.088L112.175 131.639H112.297L112.725 130.119ZM113.472 130.331L113.358 130.3L112.965 131.639H113.083L113.472 130.331ZM108.754 130.418L109.123 131.639H109.245L108.852 130.382L108.754 130.418ZM109.611 130.162L109.497 130.194L109.933 131.639H110.055L109.611 130.162ZM112.776 124.394L114.125 122.038L114.027 121.979L112.678 124.335L112.776 124.394ZM113.453 124.787L114.715 122.584C114.715 122.517 114.715 122.458 114.692 122.395L113.351 124.732L113.453 124.787ZM114.338 128.136L114.562 127.842L114.585 127.626L114.243 128.066L114.338 128.136ZM110.999 125.745L112.879 127.708L112.961 127.63L111.082 125.666L110.999 125.745ZM110.405 126.267L112.281 128.23L112.367 128.152L110.488 126.189L110.405 126.267ZM108.333 126.267L108.364 126.153L106.913 125.796V125.914L108.333 126.267ZM106.894 125.089L108.526 125.501L108.553 125.387L106.913 124.995L106.894 125.089ZM108.714 128.596L108.679 128.486L106.913 129.098V129.22L108.714 128.596ZM108.435 127.747L106.894 128.258V128.38L108.467 127.857L108.435 127.747ZM107.582 149.687L108.573 147.166L108.467 147.123L107.472 149.644L107.582 149.687ZM109.186 147.405L108.195 149.926L108.301 149.97L109.296 147.448L109.186 147.405ZM109.135 159.225L108.832 158.216L108.718 158.247L109.088 159.465L109.135 159.225ZM111.101 142.269L110.991 142.308L111.911 144.857H111.935L111.97 144.68L111.101 142.269ZM111.719 142.045L112.202 143.376C112.202 143.302 112.23 143.227 112.242 143.149L111.829 142.006L111.719 142.045ZM113.441 135.409L113.504 135.617L113.539 135.381L113.441 135.409ZM110.854 135.256L110.696 137.957H110.81L110.968 135.252L110.854 135.256ZM111.471 138.004H111.585L111.742 135.299H111.628L111.471 138.004ZM108.164 135.138L108.219 135.036L106.882 134.317V134.451L108.164 135.138ZM106.882 133.567L108.529 134.451L108.585 134.349L106.913 133.465L106.882 133.567ZM107.912 137.655L107.837 137.569L106.913 138.44V138.593L107.912 137.655ZM107.405 137.07L107.33 136.98L106.882 137.372V137.525L107.405 137.07ZM106.913 141.715V141.837L109.359 140.883L109.316 140.777L106.913 141.715ZM106.913 140.883V141.008L109.076 140.164L109.033 140.054L106.913 140.883ZM108.356 145.799L108.384 145.685L106.913 145.355V145.473L108.356 145.799ZM108.526 145.045L108.553 144.931L106.913 144.562V144.68L108.526 145.045ZM108.333 154.148L108.364 154.038L106.894 153.665V153.786L108.333 154.148ZM106.913 152.97L108.545 153.386L108.573 153.272L106.913 152.856V152.97ZM108.734 156.476L108.699 156.366L106.913 156.955V157.081L108.734 156.476ZM108.49 155.742L108.455 155.632L106.913 156.143V156.264L108.49 155.742ZM111.986 132.723L112.297 131.635H112.175L111.876 132.691L111.986 132.723ZM113.099 131.635H112.981L112.623 132.9L112.733 132.935L113.099 131.635ZM109.52 133.006L109.634 132.974L109.241 131.635H109.119L109.52 133.006ZM110.374 132.75L110.04 131.635H109.918L110.264 132.786L110.374 132.75ZM111.023 170.193L111.943 172.737L112.053 172.698L111.133 170.154L111.023 170.193ZM112.78 172.435L111.86 169.89L111.75 169.93L112.674 172.474L112.78 172.435ZM114.082 173.063L113.968 173.032L113.803 173.621H113.925L114.082 173.063ZM106.913 162.335L108.195 163.022L108.25 162.92L106.913 162.202V162.335ZM106.913 161.456L108.486 162.316L108.51 162.198L106.913 161.326V161.456ZM107.924 165.536L107.849 165.445L106.913 166.282V166.431L107.924 165.536ZM107.417 164.947L107.342 164.86L106.894 165.253V165.406L107.417 164.947ZM109.296 168.622L106.913 169.572V169.698L109.359 168.74L109.296 168.622ZM106.894 168.854L109.056 168.009L109.013 167.903L106.894 168.728V168.854ZM106.894 173.201V173.322L108.195 173.613H108.345L108.364 173.535L106.894 173.201ZM108.506 172.891L108.533 172.777L106.894 172.408V172.529L108.506 172.891ZM79.5752 121.802L79.6813 121.845L80.6762 119.324L80.5661 119.281L79.5752 121.802ZM80.2948 122.085L80.4049 122.128L81.3959 119.607L81.2897 119.564L80.2948 122.085ZM105.706 125.599L106.886 125.902V125.784L105.726 125.49L105.706 125.599ZM105.926 124.74L105.895 124.849L106.894 125.105V124.983L105.926 124.74ZM106.913 129.22V129.098L106.127 129.361L106.162 129.471L106.913 129.22ZM105.859 128.623L105.895 128.733L106.894 128.403V128.282L105.859 128.623ZM103.767 131.639H103.901L104.412 130.752L104.314 130.693L103.767 131.639ZM104.664 131.639H104.798L105.085 131.136L104.986 131.077L104.664 131.639ZM98.8164 130.555L98.726 130.63L99.5557 131.639H99.7051L98.8164 130.555ZM99.3276 130.139L100.558 131.639H100.708L99.4181 130.068L99.3276 130.139ZM96.3941 131.462L96.2879 131.502L96.3351 131.639H96.4609L96.3941 131.462ZM97.0154 131.238L97.1609 131.631H97.2828L97.1255 131.191L97.0154 131.238ZM92.7605 131.631L93.0948 130.316L92.9807 130.288L92.6386 131.631H92.7605ZM93.7318 130.477L93.4369 131.631H93.5431L93.8301 130.508L93.7318 130.477ZM84.8171 130.111L84.703 130.08L84.2626 131.631H84.3845L84.8171 130.111ZM85.5603 130.323L85.4502 130.292L85.0569 131.631H85.1788L85.5603 130.323ZM80.8414 130.41L81.211 131.631H81.3329L80.9397 130.375L80.8414 130.41ZM81.6947 130.155L81.5846 130.186L82.0211 131.631H82.1391L81.6947 130.155ZM84.8642 124.386L86.2131 122.03L86.1108 121.971L84.762 124.327L84.8642 124.386ZM85.4384 124.716L85.5367 124.771L86.8855 122.415L86.7833 122.356L85.4384 124.716ZM100.826 126.444L103.323 127.5L103.366 127.394L100.869 126.338L100.826 126.444ZM100.523 127.155L103.02 128.211L103.063 128.105L100.547 127.052L100.523 127.155ZM102.627 123.086L102.737 123.118L103.476 120.514L103.362 120.479L102.627 123.086ZM103.37 123.298L103.484 123.33L104.22 120.722L104.109 120.691L103.37 123.298ZM99.3119 118.453L100.098 121.044L100.208 121.013L99.4417 118.413L99.3119 118.453ZM100.051 118.229L100.838 120.821L100.948 120.789L100.161 118.197L100.051 118.229ZM91.4825 129.33L90.696 126.738L90.5859 126.77L91.3724 129.365L91.4825 129.33ZM92.2257 129.106L91.4392 126.514L91.3252 126.546L92.1117 129.142L92.2257 129.106ZM95.293 127.606L97.9788 127.213V127.1L95.293 127.492V127.606ZM95.4031 128.372L98.0889 127.979V127.865L95.4031 128.258V128.372ZM97.3693 125.069L97.4833 125.097L98.0889 122.458L97.9749 122.431L97.3693 125.069ZM98.7299 122.603L98.1243 125.242L98.2384 125.27L98.8439 122.631L98.7299 122.603ZM89.2174 123.565L89.3157 123.628L90.7668 121.339L90.6685 121.28L89.2174 123.565ZM91.4235 121.755L91.3252 121.692L89.8741 123.982L89.9724 124.044L91.4235 121.755ZM88.9028 119.12L91.3881 118.036V118.009H91.1758L88.8674 119.014L88.9028 119.12ZM89.1663 119.721L89.2135 119.827L91.6988 118.747L91.6516 118.641L89.1663 119.721ZM86.8069 118.009H86.6849L86.0715 120.137L86.1855 120.169L86.8069 118.009ZM85.4502 119.972L86.0007 118.009H85.8788L85.3361 119.925L85.4502 119.972ZM96.0913 118.841L95.8239 118.021H95.702L95.9576 118.869L96.0913 118.841ZM95.2379 119.097L95.352 119.065L95.0374 118.025H94.9155L95.2379 119.097ZM86.335 128.073L86.4254 128.144L88.077 125.996L87.9826 125.925L86.335 128.073ZM86.9484 128.545L87.0428 128.615L88.6905 126.463L88.6 126.393L86.9484 128.545ZM83.0868 125.753L84.9665 127.716L85.053 127.638L83.1733 125.674L83.0868 125.753ZM82.5048 126.267L84.3845 128.23L84.4671 128.152L82.5913 126.189L82.5048 126.267ZM92.7998 122.796L92.7527 122.902L95.2497 123.962L95.2969 123.852L92.7998 122.796ZM93.0554 122.191L95.5525 123.247L95.5997 123.141L93.1026 122.085L93.0554 122.191ZM80.4364 126.267L80.4639 126.153L78.9932 125.796V125.914L80.4364 126.267ZM78.9971 125.089L80.6251 125.501L80.6566 125.387L78.9932 124.995L78.9971 125.089ZM80.8178 128.596L80.7785 128.486L78.9932 129.098V129.22L80.8178 128.596ZM80.5347 127.747L78.9971 128.258V128.38L80.5701 127.857L80.5347 127.747ZM80.5661 147.123L79.5752 149.644L79.6813 149.687L80.6762 147.166L80.5661 147.123ZM81.2897 147.405L80.2948 149.926L80.4049 149.97L81.3959 147.448L81.2897 147.405ZM105.789 133.854L106.894 134.451V134.317L105.844 133.752L105.789 133.854ZM106.209 133.068L106.154 133.167L106.894 133.559V133.426L106.209 133.068ZM106.913 138.44L105.816 139.391L105.891 139.477L106.913 138.593V138.44ZM105.384 138.892L106.913 137.572V137.419L105.309 138.802L105.384 138.892ZM106.791 141.782L106.831 141.892L106.913 141.857V141.735L106.791 141.782ZM106.508 141.063L106.548 141.169L106.913 141.028V140.902L106.508 141.063ZM106.901 145.383L105.722 145.116L105.694 145.23L106.898 145.501L106.901 145.383ZM106.901 144.598L105.895 144.37L105.871 144.484L106.901 144.715V144.598ZM106.901 153.688L105.734 153.362L105.706 153.476L106.886 153.779L106.901 153.688ZM105.934 152.644L105.903 152.758L106.913 152.97V152.852L105.934 152.644ZM106.913 157.081V156.955L106.127 157.218L106.162 157.328L106.913 157.081ZM106.913 156.264V156.143L105.879 156.484L105.914 156.594L106.913 156.264ZM90.9477 133.013L88.4506 131.953L88.4073 132.059L90.9044 133.119L90.9477 133.013ZM88.1046 132.774L90.6016 133.83L90.6449 133.724L88.1478 132.668L88.1046 132.774ZM104.404 158.609L104.306 158.554L103.767 159.5H103.901L104.404 158.609ZM105.077 159.001L104.978 158.942L104.656 159.508H104.79L105.077 159.001ZM98.7181 158.495L99.5478 159.508H99.6973L98.8086 158.42L98.7181 158.495ZM99.3198 158.004L100.551 159.508H100.7L99.4102 157.937L99.3198 158.004ZM96.3862 159.331L96.28 159.37L96.3272 159.508H96.453L96.3862 159.331ZM97.0075 159.107L97.153 159.5H97.2749L97.1176 159.06L97.0075 159.107ZM93.0751 158.192L92.9611 158.161L92.6189 159.508H92.7566L93.0751 158.192ZM93.7122 158.353L93.4172 159.508H93.5431L93.8301 158.381L93.7122 158.353ZM84.7974 157.984L84.6834 157.953L84.2429 159.524H84.3648L84.7974 157.984ZM85.5406 158.196L85.4305 158.165L85.0373 159.508H85.1592L85.5406 158.196ZM80.8217 158.283L81.1914 159.508H81.3133L80.92 158.251L80.8217 158.283ZM81.565 158.063L82.0015 159.508H82.1194L81.6751 158.027L81.565 158.063ZM86.0912 149.856L84.7423 152.212L84.8446 152.271L86.1934 149.915L86.0912 149.856ZM86.8776 150.295L86.7754 150.237L85.4305 152.593L85.5288 152.652L86.8776 150.295ZM97.8451 137.392L96.1149 135.299L96.0283 135.373L97.7429 137.47L97.8451 137.392ZM97.2474 137.883L95.5093 135.778L95.4188 135.852L97.1373 137.949L97.2474 137.883ZM92.9965 136.736L93.9166 139.281L94.0268 139.241L93.1066 136.697L92.9965 136.736ZM93.7279 136.473L94.6481 139.018L94.7542 138.978L93.8341 136.434L93.7279 136.473ZM103.358 155.267L100.861 154.211L100.818 154.317L103.315 155.373L103.358 155.267ZM103.056 155.982L100.558 154.921L100.515 155.031L103.012 156.088L103.056 155.982ZM103.354 148.356L102.619 150.963L102.729 150.994L103.468 148.387L103.354 148.356ZM104.212 148.599L104.102 148.568L103.362 151.171L103.476 151.203L104.212 148.599ZM100.212 148.878L99.4259 146.286L99.3158 146.318L100.102 148.913L100.212 148.878ZM100.956 148.654L100.169 146.062L100.055 146.094L100.842 148.689L100.956 148.654ZM93.0908 141.872L91.742 144.228L91.8403 144.283L93.1891 141.927L93.0908 141.872ZM92.5167 141.546L92.4145 141.488L91.0696 143.844L91.1679 143.899L92.5167 141.546ZM87.9355 143.687L86.217 141.582L86.1266 141.656L87.845 143.753L87.9355 143.687ZM88.5332 143.196L86.8186 141.099L86.7282 141.173L88.4427 143.27L88.5332 143.196ZM83.1065 142.344L84.0266 144.892L84.1368 144.853L83.2126 142.304L83.1065 142.344ZM83.834 142.08L84.7541 144.629L84.8642 144.59L83.9441 142.041L83.834 142.08ZM102.588 144.142L102.702 144.17L103.37 141.546L103.256 141.515L102.588 144.142ZM104.121 141.735L104.007 141.707L103.339 144.331L103.453 144.358L104.121 141.735ZM99.6855 143.938L97.1884 142.882L97.1451 142.988L99.6422 144.048L99.6855 143.938ZM99.9883 143.227L97.4755 142.171L97.4322 142.277L99.9293 143.333L99.9883 143.227ZM91.4825 157.191L90.696 154.595L90.5859 154.631L91.3724 157.222L91.4825 157.191ZM92.2257 156.967L91.4392 154.372L91.3252 154.407L92.1117 156.999L92.2257 156.967ZM97.9788 155.086V154.972L95.293 155.365V155.479L97.9788 155.086ZM98.0889 155.852V155.738L95.4031 156.131V156.245L98.0889 155.852ZM97.4755 152.97L98.0811 150.331L97.967 150.303L97.3614 152.946L97.4755 152.97ZM98.2305 153.142L98.8361 150.504L98.722 150.476L98.1164 153.119L98.2305 153.142ZM90.7589 149.216L90.6606 149.153L89.2174 151.426L89.3157 151.489L90.7589 149.216ZM91.4156 149.628L91.3173 149.565L89.8663 151.854L89.9646 151.917L91.4156 149.628ZM91.3802 145.909L91.337 145.803L88.8478 146.887L88.895 146.993L91.3802 145.909ZM91.6909 146.62L91.6437 146.514L89.1584 147.598L89.2056 147.704L91.6909 146.62ZM86.913 145.442L86.8029 145.407L86.0715 147.994L86.1855 148.026L86.913 145.442ZM85.4305 147.837L86.1659 145.23L86.0558 145.198L85.3165 147.806L85.4305 147.837ZM96.0677 146.687L95.2812 144.095L95.1671 144.126L95.9536 146.722L96.0677 146.687ZM94.4357 144.331L95.2222 146.922L95.3362 146.891L94.5498 144.299L94.4357 144.331ZM90.6645 137.655L88.4978 139.288L88.5686 139.379L90.7353 137.749L90.6645 137.655ZM89.0365 140.011L91.1994 138.377L91.1325 138.287L88.9657 139.917L89.0365 140.011ZM87.1647 137.769L86.4136 135.165L86.2996 135.201L87.0546 137.8L87.1647 137.769ZM85.5563 135.413L86.3074 138.048L86.4215 138.016L85.6783 135.405L85.5563 135.413ZM82.9688 135.26L82.8115 137.961H82.9256L83.0829 135.256L82.9688 135.26ZM83.5823 138.008H83.7003L83.8575 135.303H83.7396L83.5823 138.008ZM88.0377 153.837L87.9433 153.767L86.2956 155.919L86.3861 155.989L88.0377 153.837ZM88.6511 154.309L88.5607 154.238L86.9091 156.39L87.0035 156.461L88.6511 154.309ZM83.0475 153.594L84.9272 155.557L85.0137 155.475L83.134 153.512L83.0475 153.594ZM82.5048 154.148L84.3845 156.111L84.4671 156.033L82.5913 154.069L82.5048 154.148ZM102.253 139.065L102.163 138.994L100.456 141.099L100.547 141.173L102.253 139.065ZM101.561 138.507L99.8546 140.612L99.945 140.686L101.648 138.578L101.561 138.507ZM102.037 134.513H101.923L101.616 137.203H101.734L102.037 134.513ZM101.152 134.411L100.849 137.105H100.964L101.266 134.415L101.152 134.411ZM95.2969 151.729L92.7998 150.672L92.7527 150.778L95.2497 151.835L95.2969 151.729ZM93.0554 150.064L95.5525 151.12L95.5997 151.014L93.1026 149.958L93.0554 150.064ZM80.2791 135.177L80.3341 135.075L78.9971 134.356V134.49L80.2791 135.177ZM78.9971 133.606L80.6448 134.49L80.6998 134.388L78.9932 133.465L78.9971 133.606ZM80.0274 137.694L79.9487 137.608L78.9932 138.44V138.593L80.0274 137.694ZM79.5201 137.109L79.4415 137.019L78.9971 137.411V137.565L79.5201 137.109ZM81.3959 140.785L78.9971 141.723V141.845L81.4391 140.891L81.3959 140.785ZM81.156 140.172L81.1167 140.062L78.9932 140.883V141.008L81.156 140.172ZM80.4403 145.807L80.4639 145.693L78.9971 145.363V145.481L80.4403 145.807ZM78.9932 144.68L80.6055 145.045L80.633 144.931L78.9932 144.562V144.68ZM80.4364 154.148L80.4639 154.038L78.9971 153.665V153.786L80.4364 154.148ZM78.9932 152.97L80.6212 153.386L80.6526 153.272L78.9932 152.856V152.97ZM80.8139 156.476L80.7745 156.366L78.9932 156.955V157.081L80.8139 156.476ZM80.5701 155.742L80.5307 155.632L78.9932 156.143V156.264L80.5701 155.742ZM102.953 133.041L103.052 133.096L103.889 131.635H103.767L102.953 133.041ZM103.626 133.434L103.724 133.489L104.786 131.643H104.652L103.626 133.434ZM100.523 132.648L99.6933 131.635H99.5439L100.433 132.719L100.523 132.648ZM101.034 132.232L101.125 132.157L100.696 131.635H100.547L101.034 132.232ZM97.3064 134.007L96.4491 131.651H96.3233L97.1963 134.062L97.3064 134.007ZM97.9238 133.783L98.0339 133.744L97.271 131.635H97.1491L97.9238 133.783ZM92.3004 132.915L92.4145 132.943L92.7487 131.635H92.6268L92.3004 132.915ZM93.0515 133.108L93.1656 133.135L93.5588 131.635H93.4369L93.0515 133.108ZM84.066 132.715L84.3727 131.627H84.2508L83.9519 132.684L84.066 132.715ZM85.1788 131.627H85.0569L84.6991 132.892L84.8131 132.927L85.1788 131.627ZM81.6004 132.998L81.7105 132.966L81.3172 131.627H81.1953L81.6004 132.998ZM82.4537 132.742L82.1155 131.627H81.9975L82.3396 132.778L82.4537 132.742ZM105.84 161.624L105.785 161.727L106.89 162.323V162.19L105.84 161.624ZM106.205 160.945L106.15 161.047L106.89 161.44V161.31L106.205 160.945ZM106.913 166.431V166.282L105.816 167.228L105.891 167.314L106.913 166.431ZM106.913 165.41V165.257L105.309 166.643L105.384 166.729L106.913 165.41ZM106.791 169.619L106.831 169.729L106.913 169.698V169.572L106.791 169.619ZM106.508 168.901L106.548 169.011L106.913 168.866V168.74L106.508 168.901ZM105.722 172.949L105.694 173.063L106.898 173.334V173.213L105.722 172.949ZM106.901 172.419L105.895 172.192L105.871 172.305L106.901 172.541V172.419ZM90.9477 160.87L88.4506 159.814L88.4073 159.92L90.9044 160.976L90.9477 160.87ZM88.1046 160.631L90.6016 161.691L90.6449 161.581L88.1478 160.525L88.1046 160.631ZM96.0283 163.219L97.7429 165.316L97.8333 165.241L96.1149 163.148L96.0283 163.219ZM97.2356 165.732L95.5093 163.639L95.4188 163.71L97.1373 165.807L97.2356 165.732ZM94.015 167.106L93.0948 164.558L92.9847 164.597L93.9048 167.146L94.015 167.106ZM94.7425 166.843L93.8223 164.295L93.7161 164.334L94.6363 166.882L94.7425 166.843ZM93.1695 169.792L93.0712 169.733L91.7224 172.089L91.8207 172.148L93.1695 169.792ZM92.497 169.4L92.3948 169.345L91.0499 171.701L91.1482 171.76L92.497 169.4ZM87.9158 171.54L86.217 169.462L86.1266 169.533L87.845 171.63L87.9158 171.54ZM88.5135 171.049L86.799 168.956L86.7085 169.027L88.4231 171.123L88.5135 171.049ZM84.1171 172.706L83.193 170.161L83.0868 170.201L84.007 172.745L84.1171 172.706ZM84.8446 172.443L83.9244 169.898L83.8143 169.938L84.7345 172.482L84.8446 172.443ZM103.327 169.407L103.213 169.38L102.544 172.003L102.658 172.031L103.327 169.407ZM104.078 169.596L103.964 169.568L103.295 172.195L103.409 172.223L104.078 169.596ZM99.6855 171.819L97.1884 170.762L97.1451 170.868L99.6422 171.925L99.6855 171.819ZM99.9883 171.104L97.4755 170.028L97.4322 170.134L99.9293 171.194L99.9883 171.104ZM86.799 173.268L86.6889 173.66H86.8108L86.9091 173.315L86.799 173.268ZM86.1619 173.087L86.0518 173.055L85.8827 173.645H86.0046L86.1619 173.087ZM95.175 172.003L95.6705 173.645H95.7924L95.289 171.968L95.175 172.003ZM94.5458 172.192L94.4357 172.223L94.8604 173.645H94.9823L94.5458 172.192ZM90.7353 165.661L90.6645 165.571L88.4978 167.201L88.5686 167.295L90.7353 165.661ZM91.1994 166.282L91.1325 166.187L88.9657 167.817L89.0365 167.911L91.1994 166.282ZM87.0546 165.704L87.1647 165.669L86.4136 163.069L86.2996 163.101L87.0546 165.704ZM86.4215 165.885L85.6783 163.266L85.5681 163.297L86.3192 165.897L86.4215 165.885ZM82.9256 165.885L83.0829 163.183H82.9688L82.8115 165.889L82.9256 165.885ZM83.712 165.932L83.8693 163.227H83.7514L83.5941 165.928L83.712 165.932ZM102.265 166.945L102.175 166.871L100.468 168.975L100.558 169.05L102.265 166.945ZM101.573 166.384L99.8664 168.489L99.9568 168.563L101.66 166.458L101.573 166.384ZM102.049 162.394H101.935L101.628 165.084H101.746L102.049 162.394ZM101.164 162.296L100.861 164.986H100.975L101.278 162.292L101.164 162.296ZM80.2909 163.058L80.3459 162.956L79.0089 162.237V162.371L80.2909 163.058ZM80.7116 162.272L78.9932 161.326V161.456L80.6408 162.343L80.7116 162.272ZM80.0274 165.536L79.9487 165.445L78.9932 166.278V166.431L80.0274 165.536ZM79.5201 164.947L79.4415 164.86L78.9971 165.253V165.406L79.5201 164.947ZM81.3959 168.622L78.9971 169.561V169.686L81.4391 168.728L81.3959 168.622ZM78.9971 168.854L81.156 168.009L81.1167 167.903L78.9971 168.728V168.854ZM78.9971 173.201V173.322L80.2987 173.613H80.4442L80.4639 173.535L78.9971 173.201ZM80.6094 172.891L80.6369 172.777L78.9971 172.408V172.529L80.6094 172.891ZM103.056 160.949L103.893 159.488H103.767L102.981 160.89L103.056 160.949ZM104.656 159.488L103.63 161.275L103.728 161.334L104.79 159.488H104.656ZM100.437 160.572L100.527 160.497L99.6973 159.488H99.5478L100.437 160.572ZM101.038 160.081L101.129 160.007L100.7 159.488H100.551L101.038 160.081ZM97.3103 161.856L96.453 159.5H96.3272L97.2002 161.907L97.3103 161.856ZM97.9277 161.636L98.0378 161.593L97.2749 159.488H97.153L97.9277 161.636ZM92.4223 160.796L92.7566 159.488H92.6347L92.3083 160.768L92.4223 160.796ZM93.0594 160.957L93.1734 160.984L93.5667 159.488H93.4448L93.0594 160.957ZM84.0738 160.564L84.3806 159.48H84.2587L83.9598 160.533L84.0738 160.564ZM85.0648 159.48L84.7069 160.745L84.821 160.776L85.1867 159.48H85.0648ZM81.6082 160.851L81.7183 160.815L81.3251 159.48H81.2032L81.6082 160.851ZM82.3475 160.627L82.4616 160.596L82.1234 159.48H82.0054L82.3475 160.627ZM77.8134 125.611L78.9932 125.914V125.796L77.8331 125.501L77.8134 125.611ZM78.0337 124.751L78.0061 124.861L79.005 125.116V124.995L78.0337 124.751ZM78.9932 129.22V129.098L78.2067 129.361L78.246 129.471L78.9932 129.22ZM77.9629 128.623L77.9983 128.733L78.9971 128.403V128.282L77.9629 128.623ZM75.8472 131.639H75.9809L76.4922 130.752L76.3899 130.693L75.8472 131.639ZM76.7399 131.639H76.8736L77.1646 131.136L77.0624 131.077L76.7399 131.639ZM70.8963 130.555L70.8059 130.63L71.6356 131.639H71.7851L70.8963 130.555ZM71.4076 130.139L72.6345 131.639H72.7878L71.498 130.068L71.4076 130.139ZM68.474 131.462L68.3639 131.502L68.415 131.639H68.5369L68.474 131.462ZM69.0953 131.238L69.2369 131.631H69.3627L69.2054 131.191L69.0953 131.238ZM64.8365 131.631L65.1708 130.316L65.0607 130.288L64.7185 131.631H64.8365ZM65.8117 130.477L65.5168 131.631H65.6387L65.9219 130.508L65.8117 130.477ZM56.4644 131.631L56.8931 130.111L56.7829 130.08L56.3425 131.631H56.4644ZM57.6441 130.323L57.5301 130.292L57.1369 131.631H57.2588L57.6441 130.323ZM72.894 126.444L75.3911 127.5L75.4383 127.394L72.9412 126.338L72.894 126.444ZM72.5912 127.155L75.1001 128.23L75.1473 128.124L72.6502 127.052L72.5912 127.155ZM74.6951 123.086L74.8091 123.118L75.5444 120.514L75.4343 120.479L74.6951 123.086ZM75.4422 123.298L75.5523 123.33L76.2916 120.722L76.1815 120.691L75.4422 123.298ZM71.4115 118.453L72.198 121.044L72.3081 121.013L71.5216 118.413L71.4115 118.453ZM72.1547 118.229L72.9412 120.821L73.0513 120.789L72.2648 118.197L72.1547 118.229ZM62.6934 126.77L63.4798 129.365L63.5899 129.33L62.8035 126.738L62.6934 126.77ZM64.3292 129.126L63.5428 126.534L63.4326 126.565L64.2191 129.161L64.3292 129.126ZM67.3965 127.626L70.0823 127.233V127.119L67.3965 127.512V127.626ZM67.487 128.278V128.391L70.1728 127.999V127.885L67.487 128.278ZM70.1846 122.478L70.0705 122.45L69.4689 125.089L69.579 125.116L70.1846 122.478ZM70.8295 122.623L70.2239 125.262L70.334 125.289L70.9396 122.65L70.8295 122.623ZM61.2973 123.565L61.3957 123.628L62.8467 121.339L62.7484 121.28L61.2973 123.565ZM61.9541 123.982L62.0524 124.044L63.5034 121.755L63.4051 121.692L61.9541 123.982ZM68.1594 118.826L67.9077 117.989H67.7897L68.0493 118.841L68.1594 118.826ZM67.3061 119.081L67.4162 119.05L67.137 118.115L67.0229 118.138L67.3061 119.081ZM58.4031 128.058L58.4935 128.128L60.1412 125.98L60.0508 125.91L58.4031 128.058ZM60.7625 126.448L60.6682 126.377L59.0205 128.529L59.1149 128.6L60.7625 126.448ZM64.8916 122.8L64.8483 122.906L67.3454 123.966L67.3886 123.856L64.8916 122.8ZM65.1511 122.195L67.6482 123.251L67.6914 123.145L65.1944 122.089L65.1511 122.195ZM52.6618 147.15L51.6708 149.671L51.777 149.714L52.768 147.193L52.6618 147.15ZM53.3814 147.433L52.3905 149.954L52.4966 149.997L53.4915 147.476L53.3814 147.433ZM77.8803 133.881L78.9892 134.478V134.345L77.9353 133.779L77.8803 133.881ZM78.305 133.096L78.2499 133.194L78.9892 133.587V133.453L78.305 133.096ZM78.9932 138.44L77.8921 139.391L77.9707 139.477L78.9932 138.593V138.44ZM77.4635 138.892L78.9932 137.572V137.419L77.3887 138.802L77.4635 138.892ZM78.8673 141.782L78.9106 141.892L78.9932 141.857V141.735L78.8673 141.782ZM78.9932 140.902L78.5999 141.063L78.6432 141.169L79.0089 141.028L78.9932 140.902ZM78.9932 145.375L77.8134 145.108L77.7899 145.222L78.9932 145.493V145.375ZM77.9865 144.354L77.9589 144.468L78.9932 144.7V144.582L77.9865 144.354ZM78.9932 153.653L77.8331 153.358L77.8016 153.472L78.9814 153.775L78.9932 153.653ZM78.0219 152.608L77.9943 152.722L78.9932 152.97V152.852L78.0219 152.608ZM78.9932 157.081V156.955L78.2067 157.218L78.246 157.328L78.9932 157.081ZM78.9932 156.264V156.143L77.9589 156.484L77.9943 156.594L78.9932 156.264ZM60.5109 132.059L63.0079 133.119L63.0551 133.013L60.5581 131.953L60.5109 132.059ZM60.2081 132.774L62.7051 133.83L62.7523 133.724L60.2553 132.668L60.2081 132.774ZM76.5118 158.609L76.4096 158.554L75.8472 159.5H75.9809L76.5118 158.609ZM77.1843 159.001L77.082 158.942L76.7596 159.508H76.8933L77.1843 159.001ZM70.8256 158.495L71.6553 159.508H71.8047L70.916 158.42L70.8256 158.495ZM71.4272 158.004L72.6541 159.508H72.8075L71.5177 157.937L71.4272 158.004ZM68.4936 159.331L68.3835 159.37L68.4347 159.508H68.5566L68.4936 159.331ZM69.115 159.107L69.2565 159.5H69.3824L69.2251 159.06L69.115 159.107ZM64.7382 159.5H64.8562L65.1904 158.184L65.0803 158.153L64.7382 159.5ZM65.8314 158.345L65.5365 159.5H65.6584L65.9415 158.373L65.8314 158.345ZM53.0393 158.243L52.9292 158.275L53.1455 158.989L53.2398 158.903L53.0393 158.243ZM53.7825 158.02L53.6685 158.055L53.7747 158.393L53.8651 158.302L53.7825 158.02ZM58.3009 149.903L58.1986 149.848L56.8498 152.204L56.952 152.263L58.3009 149.903ZM57.6245 152.652L58.9733 150.295L58.8711 150.237L57.5222 152.593L57.6245 152.652ZM69.9486 137.384L68.2184 135.299L68.1279 135.373L69.8464 137.47L69.9486 137.384ZM69.347 137.875L67.6285 135.778L67.542 135.852L69.2565 137.949L69.347 137.875ZM65.1 136.728L66.0202 139.273L66.1303 139.234L65.2101 136.689L65.1 136.728ZM65.8275 136.465L66.7477 139.01L66.8578 138.97L65.9376 136.426L65.8275 136.465ZM75.454 155.259L72.9569 154.203L72.9097 154.309L75.4068 155.365L75.454 155.259ZM75.1512 155.974L72.6541 154.913L72.6069 155.023L75.104 156.08L75.1512 155.974ZM75.4501 148.348L74.7108 150.955L74.8248 150.987L75.5602 148.379L75.4501 148.348ZM76.3073 148.591L76.1972 148.56L75.454 151.163L75.5641 151.195L76.3073 148.591ZM72.3081 148.87L71.5216 146.278L71.4115 146.31L72.198 148.905L72.3081 148.87ZM73.0513 148.646L72.2648 146.054L72.1547 146.086L72.9412 148.682L73.0513 148.646ZM65.1865 141.865L63.8377 144.221L63.9399 144.276L65.2887 141.919L65.1865 141.865ZM64.5141 141.472L63.1652 143.828L63.2675 143.883L64.6163 141.527L64.5141 141.472ZM58.2222 141.649L59.9407 143.745L60.0272 143.671L58.3205 141.582L58.2222 141.649ZM58.8199 141.158L60.5384 143.255L60.6288 143.18L58.9379 141.091L58.8199 141.158ZM55.1982 142.336L56.1184 144.884L56.2285 144.845L55.3083 142.296L55.1982 142.336ZM55.9296 142.073L56.8498 144.621L56.956 144.582L56.0358 142.033L55.9296 142.073ZM74.6675 144.142L74.7816 144.17L75.4461 141.546L75.336 141.515L74.6675 144.142ZM76.2012 141.735L76.0871 141.707L75.4186 144.331L75.5327 144.358L76.2012 141.735ZM71.789 143.938L69.2919 142.882L69.2447 142.988L71.7418 144.048L71.789 143.938ZM72.0918 143.227L69.5947 142.171L69.5475 142.277L72.0446 143.333L72.0918 143.227ZM63.4405 154.407L64.227 156.999L64.3371 156.967L63.5506 154.372L63.4405 154.407ZM70.0863 155.086V154.972L67.4004 155.365V155.479L70.0863 155.086ZM70.1924 155.852V155.738L67.5066 156.131V156.245L70.1924 155.852ZM69.579 152.97L70.1846 150.331L70.0705 150.303L69.4689 152.946L69.579 152.97ZM70.334 153.142L70.9396 150.504L70.8295 150.476L70.2239 153.119L70.334 153.142ZM62.7602 149.153L61.7378 150.767L61.781 150.916L62.8703 149.2L62.7602 149.153ZM63.4169 149.565L62.0327 151.748L62.076 151.894L63.5152 149.628L63.4169 149.565ZM60.9474 146.887L60.9946 146.993L63.4798 145.909L63.4326 145.803L60.9474 146.887ZM63.7905 146.62L63.7433 146.514L61.258 147.598L61.3013 147.704L63.7905 146.62ZM59.0126 145.442L58.8986 145.407L58.1514 147.994L58.2615 148.026L59.0126 145.442ZM57.5262 147.837L58.2655 145.23L58.1554 145.198L57.4161 147.806L57.5262 147.837ZM68.1712 146.687L67.3847 144.095L67.2746 144.126L68.0611 146.722L68.1712 146.687ZM66.5353 144.331L67.3218 146.922L67.4319 146.891L66.6454 144.299L66.5353 144.331ZM62.7641 137.655L60.6013 139.288L60.6721 139.379L62.8349 137.749L62.7641 137.655ZM61.0653 139.905L61.1361 139.999L63.3029 138.366L63.2321 138.275L61.0653 139.905ZM58.4031 135.193L59.1542 137.792L59.2682 137.761L58.5132 135.157L58.4031 135.193ZM57.6599 135.405L58.411 138.008L58.5211 137.977L57.7582 135.405H57.6599ZM54.9072 137.953H55.0252L55.1825 135.248H55.0645L54.9072 137.953ZM55.9532 135.303H55.8392L55.6819 138.008H55.7959L55.9532 135.303ZM56.9049 155.208L55.2454 153.484L55.1628 153.563L56.8262 155.29L56.9049 155.208ZM54.687 154.03L54.6123 154.148L56.2953 155.895L56.374 155.813L54.687 154.03ZM74.349 139.029L74.2586 138.959L72.5558 141.063L72.6463 141.138L74.349 139.029ZM73.6569 138.472L71.9502 140.576L72.0407 140.651L73.7473 138.542L73.6569 138.472ZM74.1406 134.513H74.0226L73.7198 137.203H73.8339L74.1406 134.513ZM73.2519 134.411L72.9491 137.105H73.067L73.3698 134.415L73.2519 134.411ZM67.3965 151.729L64.8994 150.672L64.8562 150.778L67.3532 151.835L67.3965 151.729ZM67.6993 151.014L65.2022 149.958L65.159 150.064L67.656 151.12L67.6993 151.014ZM52.127 137.698L52.0523 137.612L51.9618 137.69L51.7652 138.012L52.127 137.698ZM53.4994 140.789L51.1006 141.727V141.849L53.5426 140.895L53.4994 140.789ZM53.2595 140.176L53.2163 140.066L51.1006 140.895V141.02L53.2595 140.176ZM52.5399 145.811L52.5674 145.697L51.1006 145.367V145.485L52.5399 145.811ZM52.7129 145.057L52.7365 144.943L51.1006 144.574V144.692L52.7129 145.057ZM52.536 154.148L52.5674 154.038L51.1006 153.665V153.786L52.536 154.148ZM51.1006 152.97L52.7286 153.386L52.7562 153.272L51.1006 152.852V152.97ZM52.9174 156.476L52.882 156.366L51.1006 156.951V157.077L52.9174 156.476ZM52.6736 155.742L52.6382 155.632L51.1006 156.139V156.26L52.6736 155.742ZM75.0608 133.045L75.163 133.1L76.0006 131.639H75.8472L75.0608 133.045ZM75.7332 133.437L75.8354 133.492L76.8933 131.647H76.7596L75.7332 133.437ZM72.6345 132.652L71.8047 131.639H71.6553L72.544 132.723L72.6345 132.652ZM73.1417 132.236L73.2322 132.161L72.8075 131.639H72.6541L73.1417 132.236ZM69.4138 134.011L68.5566 131.655H68.4347L69.3037 134.066L69.4138 134.011ZM70.0352 133.787L70.1453 133.748L69.3824 131.639H69.2565L70.0352 133.787ZM64.4118 132.919L64.5259 132.947L64.8562 131.639H64.7382L64.4118 132.919ZM65.1629 133.112L65.273 133.139L65.6662 131.639H65.5443L65.1629 133.112ZM56.0633 132.695L56.1774 132.727L56.4841 131.639H56.3622L56.0633 132.695ZM57.2902 131.639H57.1683L56.8105 132.903L56.9206 132.939L57.2902 131.639ZM77.8921 161.738L79.001 162.335V162.202L77.9471 161.636L77.8921 161.738ZM78.3168 160.953L78.2617 161.055L79.001 161.448V161.318L78.3168 160.953ZM78.9932 166.431V166.278L77.8921 167.228L77.9707 167.314L78.9932 166.431ZM78.9932 165.41V165.257L77.3887 166.643L77.4635 166.729L78.9932 165.41ZM78.8673 169.619L78.9106 169.729L78.9932 169.698V169.572L78.8673 169.619ZM78.5842 168.901L78.6275 169.011L78.9932 168.866V168.74L78.5842 168.901ZM77.7977 172.949L77.7741 173.063L78.9774 173.334V173.213L77.7977 172.949ZM78.9774 172.419L77.9707 172.192L77.9432 172.305L78.9774 172.541V172.419ZM68.1279 163.219L69.8464 165.316L69.9368 165.241L68.2184 163.148L68.1279 163.219ZM69.3352 165.732L67.6167 163.639L67.5302 163.71L69.2447 165.807L69.3352 165.732ZM66.1185 167.106L65.332 164.915L65.2769 165.108L66.0123 167.146L66.1185 167.106ZM66.846 166.843L65.9258 164.295L65.8157 164.334L66.7359 166.882L66.846 166.843ZM65.273 169.792L65.1708 169.733L63.8219 172.089L63.9242 172.148L65.273 169.792ZM64.4865 169.352L63.6568 170.837L63.527 171.296L64.6163 169.396L64.4865 169.352ZM75.4225 169.415L75.3124 169.388L74.6439 172.011L74.758 172.038L75.4225 169.415ZM76.1776 169.604L76.0635 169.576L75.395 172.203L75.5091 172.231L76.1776 169.604ZM71.789 171.819L69.2919 170.762L69.2447 170.868L71.7418 171.925L71.789 171.819ZM72.0918 171.104L69.5947 170.048L69.5475 170.154L72.0446 171.214L72.0918 171.104ZM67.2785 172.003L67.774 173.645H67.8959L67.3886 171.968L67.2785 172.003ZM66.6493 172.192L66.5353 172.223L66.9639 173.645H67.0858L66.6493 172.192ZM74.3529 166.93L74.2625 166.855L72.5598 168.96L72.6502 169.034L74.3529 166.93ZM73.6608 166.368L71.9542 168.473L72.0446 168.547L73.7513 166.443L73.6608 166.368ZM74.1406 162.378H74.0226L73.7198 165.068H73.8339L74.1406 162.378ZM73.2519 162.28L72.9491 164.97H73.067L73.3698 162.276L73.2519 162.28ZM75.1591 160.98L75.9967 159.52H75.8472L75.0608 160.922L75.1591 160.98ZM76.7556 159.52L75.7293 161.306L75.8315 161.365L76.8893 159.52H76.7556ZM72.5401 160.603L72.6305 160.529L71.8008 159.52H71.6514L72.5401 160.603ZM73.1378 160.113L73.2283 160.038L72.8036 159.52H72.6502L73.1378 160.113ZM69.4099 161.888L68.5526 159.531H68.4307L69.2998 161.939L69.4099 161.888ZM70.0312 161.668L70.1413 161.624L69.3784 159.52H69.2526L70.0312 161.668ZM64.5652 160.171L64.632 160.387L64.8522 159.52H64.7343L64.5652 160.171ZM65.159 160.988L65.2691 161.016L65.6623 159.52H65.5404L65.159 160.988ZM50.9748 141.782L51.018 141.892L51.1006 141.857V141.735L50.9748 141.782ZM51.1006 140.902L50.7074 141.063L50.7506 141.169L51.1164 141.028L51.1006 140.902ZM49.8934 145.222L51.1006 145.493V145.375L49.9209 145.108L49.8934 145.222ZM50.0664 144.468L51.1006 144.7V144.582L50.09 144.331L50.0664 144.468ZM51.1006 153.673L49.9209 153.378L49.8934 153.492L51.0731 153.794L51.1006 153.673ZM50.1293 152.628L50.1018 152.742L51.1006 152.993V152.875L50.1293 152.628ZM51.1006 157.101V156.975L50.3141 157.238L50.3495 157.348L51.1006 157.101ZM51.1006 156.284V156.162L50.0625 156.504L50.0979 156.614L51.1006 156.284ZM48.6075 158.64L48.5092 158.585L47.9665 159.531H48.1002L48.6075 158.64ZM49.2799 159.033L49.1816 158.974L48.8591 159.539H48.9929L49.2799 159.033ZM42.9252 158.526L43.751 159.539H43.9043L43.0156 158.452L42.9252 158.526ZM43.5229 158.035L44.7537 159.539H44.9032L43.6133 157.969L43.5229 158.035ZM41.3207 159.099L41.2106 159.139L41.3561 159.531H41.482L41.3207 159.099ZM39.6298 135.892L40.023 136.394L39.6298 135.872V135.892ZM37.1878 136.767L38.1119 139.312L38.2181 139.273L37.3097 136.689L37.1878 136.767ZM37.9192 136.504L38.8394 139.049L38.9495 139.01L38.0293 136.465L37.9192 136.504ZM47.5339 155.259L45.0369 154.203L44.9936 154.309L47.4907 155.365L47.5339 155.259ZM47.2311 155.974L44.738 154.913L44.6908 155.023L47.1879 156.08L47.2311 155.974ZM47.5339 148.348L46.7946 150.955L46.9047 150.987L47.644 148.379L47.5339 148.348ZM48.3912 148.591L48.2772 148.56L47.5418 151.163L47.6519 151.195L48.3912 148.591ZM44.3919 148.87L43.6055 146.278L43.4954 146.31L44.2818 148.905L44.3919 148.87ZM45.1312 148.646L44.3448 146.054L44.2346 146.086L45.0211 148.682L45.1312 148.646ZM37.3765 141.923L37.2782 141.865L35.9294 144.221L36.0316 144.276L37.3765 141.923ZM36.7041 141.531L36.6058 141.472L35.257 143.828L35.3592 143.883L36.7041 141.531ZM43.8886 143.938L41.3915 142.882L41.3483 142.988L43.8453 144.048L43.8886 143.938ZM44.1914 143.227L41.6943 142.171L41.6511 142.277L44.1481 143.333L44.1914 143.227ZM39.4961 155.463L42.1819 155.071V154.957L39.4961 155.349V155.463ZM39.6062 156.229L42.292 155.836V155.722L39.6062 156.115V156.229ZM41.5724 152.93L41.6864 152.954L42.292 150.315L42.178 150.288L41.5724 152.93ZM42.933 150.46L42.3274 153.103L42.4415 153.127L43.0471 150.488L42.933 150.46ZM35.5401 145.787L34.5059 146.239L34.5452 146.349L35.5873 145.893L35.5401 145.787ZM35.8468 146.498L34.7575 146.973L34.7969 147.083L35.894 146.604L35.8468 146.498ZM39.386 144.142L40.1725 146.738L40.2865 146.702L39.5 144.111L39.386 144.142ZM38.6428 144.366L39.4292 146.958L39.5433 146.926L38.7568 144.334L38.6428 144.366ZM32.7048 139.343L32.7756 139.434L34.9424 137.804L34.8716 137.71L32.7048 139.343ZM35.4103 138.421L35.3395 138.33L33.1728 139.96L33.2436 140.054L35.4103 138.421ZM39.504 151.737L37.0069 150.68L36.9597 150.786L39.4568 151.843L39.504 151.737ZM37.2625 150.072L39.7596 151.128L39.8068 151.022L37.3097 149.946L37.2625 150.072ZM50.0507 161.656L49.9956 161.758L50.0939 161.679L50.0507 161.656ZM50.4164 160.976L50.3613 161.079L50.6484 161.232L50.7428 161.149L50.4164 160.976ZM45.961 163.812H46.0789L46.2402 162.359H46.1261L45.961 163.812ZM45.1745 163.678L45.2885 163.713L45.4498 162.272H45.3357L45.1745 163.678ZM48.0805 159.5H47.9468L47.1604 160.902L47.2587 160.961L48.0805 159.5ZM48.9732 159.5H48.8395L47.8131 161.287L47.9154 161.346L48.9732 159.5ZM44.624 160.584L44.7105 160.509L43.8847 159.5H43.7313L44.624 160.584ZM45.2217 160.093L45.3121 160.018L44.8835 159.5H44.7341L45.2217 160.093ZM41.3365 159.5L41.8988 161.071L42.1151 161.322L41.4623 159.516L41.3365 159.5Z" fill="white"/>
<path d="M73.9439 118.02C73.9439 118.02 67.5577 117.133 64.6083 119.037C61.659 120.942 47.0856 145.814 47.0856 145.814L39.0359 134.996L32.0559 138.125C32.0559 138.125 35.3277 150.77 39.1342 157.061C42.9408 163.352 45.1115 163.988 46.4171 163.78C50.3023 163.163 61.5568 150.161 61.5568 150.161L65.6465 163.748L62.8702 173.624H114.581L108.309 163.179C108.309 163.179 116.492 125.481 114.408 121.487C112.324 117.494 100.181 118.02 96.3625 118.02H85.4304C83.7736 118.348 82.0899 118.522 80.4009 118.538C78.2411 118.476 76.086 118.303 73.9439 118.02Z" stroke="#263238" stroke-width="0.985332"/>
<path d="M61.5607 150.162C60.0637 147.175 59.4823 143.813 59.8895 140.498C60.6484 135.208 63.928 129.416 63.928 129.416C63.928 129.416 57.3845 138.84 57.3845 141.982C57.3845 145.123 59.3311 149.718 59.3311 149.718L57.6323 154.56L61.5607 150.162Z" fill="#263238" stroke="#263238" stroke-width="0.985332" stroke-linecap="round" stroke-linejoin="round"/>
<path d="M79.3589 112.81L79.5319 118.354L74.8484 118.527C74.8484 118.527 73.8811 138.872 78.0494 142.512C82.2178 146.153 94.8015 118.021 94.8015 118.021L90.4758 117.153L89.0877 105.891L79.3589 112.81Z" fill="#CFCFCF" stroke="#263238" stroke-width="0.985332" stroke-linecap="round" stroke-linejoin="round"/>
<path d="M89.5869 108.09L79.571 117.514V114.18L89.5869 108.09Z" fill="#263238" stroke="#263238" stroke-width="0.985332" stroke-linecap="round" stroke-linejoin="round"/>
<path d="M78.0493 142.512C78.0493 142.512 78.5527 139.237 81.0733 134.957Z" fill="white"/>
<path d="M78.0493 142.512C78.0493 142.512 78.5527 139.237 81.0733 134.957" stroke="#263238" stroke-width="0.985332" stroke-linecap="round" stroke-linejoin="round"/>
<path d="M77.3415 81.5439L65.9375 93.3834C66.8335 95.9032 67.2677 98.5636 67.2195 101.237C67.0858 105.431 70.9041 111.6 74.0265 114.467C77.1488 117.333 83.5193 112.927 85.8984 111.372C87.4873 110.297 88.9688 109.071 90.3223 107.712C91.1901 107.675 92.0341 107.418 92.7755 106.966C93.5168 106.514 94.1313 105.882 94.5615 105.129C94.5615 105.129 77.9903 87.446 77.3415 81.5439Z" fill="#CFCFCF" stroke="#263238" stroke-width="0.985332" stroke-linecap="round" stroke-linejoin="round"/>
<path d="M74.2507 93.7021C74.645 94.5043 74.9002 95.3673 75.0057 96.2546C75.0411 97.3502 73.1182 102.483 73.3934 102.824C73.6687 103.166 74.5299 104.297 75.2023 104.151" stroke="#263238" stroke-width="0.985332" stroke-linecap="round" stroke-linejoin="round"/>
<path d="M78.9932 99.3139C80.6 98.7119 82.3668 98.691 83.9873 99.2549" stroke="#263238" stroke-width="0.492666" stroke-linecap="round" stroke-linejoin="round"/>
<path d="M70.1177 99.7222C70.9766 99.481 71.8642 99.3567 72.7563 99.3525" stroke="#263238" stroke-width="0.492666" stroke-linecap="round" stroke-linejoin="round"/>
<path d="M72.8113 90.7991C72.3707 90.7665 71.9285 90.8359 71.5192 91.0022C71.1099 91.1684 70.7446 91.4268 70.4519 91.7573C69.4648 92.8921 68.9851 93.8817 68.7373 93.0806C68.4896 92.2795 69.5907 90.807 69.98 90.5085C70.3693 90.2101 72.1939 89.0399 72.8113 90.7991Z" fill="#263238"/>
<path d="M77.6914 90.1394C78.8482 90.1351 79.9895 90.4042 81.0222 90.9248C82.5283 91.7494 81.8086 90.0766 80.7508 89.5975C79.693 89.1184 77.8605 89.1655 77.6914 90.1394Z" fill="#263238"/>
<path d="M95.1514 109.832C95.2222 111.01 94.6127 111.992 93.7987 112.039C92.9847 112.086 92.265 111.175 92.1942 110.005C92.1235 108.835 92.615 105.815 93.429 105.768C94.243 105.721 95.0846 108.658 95.1514 109.832Z" fill="#59A3D4" stroke="#263238" stroke-width="0.985332" stroke-linecap="round" stroke-linejoin="round"/>
<path d="M72.3434 97.6007C72.3984 98.3861 72.0996 99.0222 71.6788 99.0497C71.258 99.0772 70.8923 98.4764 70.8255 97.7067C70.7586 96.9371 71.0693 96.2852 71.4901 96.2577C71.9108 96.2302 72.308 96.8468 72.3434 97.6007Z" fill="#263238"/>
<path d="M80.8295 97.298C80.8846 98.0834 80.5857 98.7156 80.1689 98.747C79.7521 98.7784 79.3824 98.1737 79.3116 97.4001C79.2409 96.6265 79.5594 95.9825 79.9762 95.955C80.3931 95.9275 80.7784 96.5283 80.8295 97.298Z" fill="#263238"/>
<path d="M75.1472 106.385C75.1472 106.385 77.1488 107.025 79.8661 104.704" stroke="#263238" stroke-width="0.985332" stroke-linecap="round" stroke-linejoin="round"/>
<path d="M39.036 135.003L35.3749 130.107C35.2058 128.803 34.8794 126.109 34.8244 124.291C34.7497 121.817 34.8716 120.305 33.4638 118.11C32.056 115.915 28.1275 112.448 27.7578 111.643C27.3882 110.838 26.3186 113.107 26.991 114.58C27.6635 116.053 28.2769 116.504 28.2769 116.504C28.2769 116.504 21.0452 112.915 20.8053 113.5C20.5655 114.085 24.1715 124.432 25.8231 127.162C26.5113 128.3 28.4185 129.824 29.3387 131.143C29.7887 131.794 30.1746 132.488 30.4909 133.213C31.3481 136.853 32.347 140.858 32.8503 141.004C33.9946 141.338 38.8512 141.416 39.036 135.003Z" fill="#CFCFCF" stroke="#263238" stroke-width="0.985332" stroke-miterlimit="10"/>
<path d="M28.7567 123.753C28.6906 123.771 28.6216 123.775 28.5537 123.766C28.4859 123.757 28.4205 123.735 28.3612 123.701C28.302 123.666 28.2502 123.621 28.2087 123.566C28.1673 123.512 28.137 123.45 28.1196 123.384L22.3665 102.143C22.3358 102.015 22.3553 101.88 22.421 101.765C22.4868 101.651 22.5939 101.565 22.7204 101.527C22.8534 101.492 22.9948 101.511 23.114 101.579C23.2332 101.647 23.3207 101.76 23.3575 101.892L29.1263 123.125C29.1589 123.257 29.1384 123.396 29.0694 123.514C29.0003 123.631 28.8881 123.717 28.7567 123.753Z" fill="#263238" stroke="#263238" stroke-width="0.985332" stroke-miterlimit="10"/>
<path d="M24.6079 110.242C24.6079 110.242 19.0554 113.172 19.3975 113.745C19.7396 114.318 20.7542 116.364 21.2182 116.317C21.6822 116.27 25.0523 113.521 25.2961 113.176C25.5399 112.83 24.6079 110.242 24.6079 110.242Z" fill="#CFCFCF" stroke="#263238" stroke-width="0.985332" stroke-miterlimit="10"/>
<path d="M25.5989 113.839C25.5989 113.839 20.9862 117.236 21.1356 117.73C21.2851 118.225 23.5462 124.08 23.9394 124.555C24.3327 125.03 27.9426 123.377 27.9426 123.377L25.5989 113.839Z" fill="#CFCFCF" stroke="#263238" stroke-width="0.985332" stroke-miterlimit="10"/>
<path d="M26.2988 116.995C26.2988 116.995 21.8827 120.459 22.1737 120.569" stroke="#263238" stroke-width="0.985332" stroke-miterlimit="10"/>
<path d="M27.1326 120.75L23.4204 122.922" stroke="#263238" stroke-width="0.985332" stroke-miterlimit="10"/>
<path d="M28.2651 116.505L30.3021 118.492C30.3021 118.492 27.5966 124.26 30.1881 127.445" stroke="#263238" stroke-width="0.985332" stroke-miterlimit="10"/>
<path d="M108.64 119.25C108.64 119.25 113.583 118.606 115.718 122.686C117.853 126.766 131.196 162.826 131.412 166.274C131.628 169.722 122.596 170.566 119.587 169.066C116.579 167.566 108.183 149.746 107.334 147.382" fill="#59A3D4"/>
<path d="M110.211 144.22L109.478 146.821L109.592 146.853L110.324 144.252L110.211 144.22Z" fill="white"/>
<path d="M111.919 136.885L111.168 134.281L111.054 134.317L111.809 136.916L111.919 136.885Z" fill="white"/>
<path d="M111.551 144.477L110.811 147.084L110.924 147.116L111.665 144.509L111.551 144.477Z" fill="white"/>
<path d="M112.69 142.772L110.972 140.675L110.881 140.749L112.6 142.842L112.69 142.772Z" fill="white"/>
<path d="M116.399 145.58L113.912 146.664L113.959 146.772L116.447 145.688L116.399 145.58Z" fill="white"/>
<path d="M116.166 148.704L116.068 148.642L114.617 150.931L114.715 150.994L116.166 148.704Z" fill="white"/>
<path d="M110.311 134.529L111.062 137.133L111.176 137.098L110.421 134.498L110.311 134.529Z" fill="white"/>
<path d="M113.96 150.515L114.058 150.578L115.509 148.292L115.411 148.229L113.96 150.515Z" fill="white"/>
<path d="M113.288 142.281L111.573 140.184L111.483 140.258L113.197 142.351L113.288 142.281Z" fill="white"/>
<path d="M115.888 137.393L113.719 139.021L113.79 139.116L115.959 137.488L115.888 137.393Z" fill="white"/>
<path d="M115.344 125.862L116.127 128.458L116.237 128.423L115.458 125.831L115.344 125.862Z" fill="white"/>
<path d="M115.49 136.877L115.419 136.783L113.252 138.413L113.323 138.507L115.49 136.877Z" fill="white"/>
<path d="M114.058 122.733L114.872 121.449C114.845 121.421 114.821 121.39 114.794 121.358L113.96 122.67L114.058 122.733Z" fill="white"/>
<path d="M111.679 127.622L111.774 127.692L113.421 125.54L113.331 125.47L111.679 127.622Z" fill="white"/>
<path d="M113.158 131.152L115.655 132.208L115.702 132.102L113.205 131.046L113.158 131.152Z" fill="white"/>
<path d="M116.087 125.639L116.87 128.234L116.98 128.199L116.201 125.607L116.087 125.639Z" fill="white"/>
<path d="M115.922 142.979L117.271 140.627L117.169 140.572L115.824 142.921L115.922 142.979Z" fill="white"/>
<path d="M112.905 131.768L112.861 131.873L115.359 132.932L115.404 132.827L112.905 131.768Z" fill="white"/>
<path d="M116.082 144.886L113.595 145.97L113.642 146.078L116.13 144.995L116.082 144.886Z" fill="white"/>
<path d="M122.25 169.121L122.206 169.227L123.461 169.762H123.767L122.25 169.121Z" fill="white"/>
<path d="M122.792 160.697L122.029 158.588L121.872 158.152L121.762 158.192L121.907 158.588L122.682 160.736L122.792 160.697Z" fill="white"/>
<path d="M120.181 162.803L121.9 164.9L121.986 164.825L120.272 162.729L120.181 162.803Z" fill="white"/>
<path d="M122.061 160.961L121.207 158.589L121.141 158.416L121.034 158.451L121.082 158.589L121.955 161L122.061 160.961Z" fill="white"/>
<path d="M122.824 154.83L120.138 155.208L120.154 155.322L122.839 154.944L122.824 154.83Z" fill="white"/>
<path d="M130.626 166.407L131.353 165.779L131.329 165.649L130.543 166.321L130.626 166.407Z" fill="white"/>
<path d="M111.066 127.15L111.156 127.221L112.808 125.069L112.713 124.998L111.066 127.15Z" fill="white"/>
<path d="M107.97 141.392L107.859 141.432L108.781 143.98L108.892 143.94L107.97 141.392Z" fill="white"/>
<path d="M130.115 165.823L131.153 164.927C131.14 164.886 131.129 164.844 131.121 164.802L130.04 165.736L130.115 165.823Z" fill="white"/>
<path d="M122.588 164.333L120.869 162.24L120.779 162.311L122.497 164.408L122.588 164.333Z" fill="white"/>
<path d="M108.502 134.429L108.344 137.134L108.462 137.141L108.619 134.436L108.502 134.429Z" fill="white"/>
<path d="M120.822 145.775L120.043 143.184L119.929 143.215L120.712 145.811L120.822 145.775Z" fill="white"/>
<path d="M118.578 135.511L118.471 135.55L119.392 138.099L119.499 138.06L118.578 135.511Z" fill="white"/>
<path d="M118.183 130.732L117.81 132.204L117.924 132.232L118.305 130.732L118.592 129.605L118.478 129.577L118.183 130.732Z" fill="white"/>
<path d="M117.385 130.732L117.059 132.012L117.173 132.039L117.503 130.732L117.841 129.416L117.727 129.389L117.385 130.732Z" fill="white"/>
<path d="M119.186 143.439L119.969 146.03L120.079 145.999L119.3 143.403L119.186 143.439Z" fill="white"/>
<path d="M117.843 135.786L117.736 135.824L118.657 138.373L118.764 138.334L117.843 135.786Z" fill="white"/>
<path d="M108.704 141.121L108.593 141.161L109.514 143.71L109.625 143.67L108.704 141.121Z" fill="white"/>
<path d="M114.715 123.126L115.376 122.086L115.305 121.976L114.617 123.067L114.715 123.126Z" fill="white"/>
<path d="M117.81 149.145L120.307 150.201L120.35 150.095L117.853 149.039L117.81 149.145Z" fill="white"/>
<path d="M110.948 121.138L110.846 121.079L109.497 123.427L109.599 123.486L110.948 121.138Z" fill="white"/>
<path d="M129.328 158.977L129.277 158.832L128.392 160.379L128.49 160.434L129.328 158.977Z" fill="white"/>
<path d="M126.792 161.452L126.678 161.44L126.371 164.13L126.489 164.142L126.792 161.452Z" fill="white"/>
<path d="M125.306 154.019L125.261 154.124L127.76 155.183L127.804 155.078L125.306 154.019Z" fill="white"/>
<path d="M128.648 158.589L128.99 157.996L128.943 157.847L128.514 158.589L127.708 159.995L127.81 160.05L128.648 158.589Z" fill="white"/>
<path d="M127.008 166.003L126.917 165.929L125.211 168.033L125.301 168.108L127.008 166.003Z" fill="white"/>
<path d="M127.68 154.175L125.604 153.295L125.561 153.401L127.731 154.32L127.68 154.175Z" fill="white"/>
<path d="M126.402 165.516L126.312 165.441L124.609 167.546L124.699 167.621L126.402 165.516Z" fill="white"/>
<path d="M123.594 149.581L123.48 149.554L122.875 152.193L122.989 152.22L123.594 149.581Z" fill="white"/>
<path d="M125.191 159.676L125.281 159.602L124.452 158.589L123.563 157.505L123.472 157.579L124.302 158.589L125.191 159.676Z" fill="white"/>
<path d="M110.169 123.813L110.271 123.872L111.62 121.52L111.518 121.465L110.169 123.813Z" fill="white"/>
<path d="M117.842 163.64L117.735 163.679L118.656 166.227L118.763 166.189L117.842 163.64Z" fill="white"/>
<path d="M128.109 168.495L127.995 168.464L127.786 169.281L127.916 169.245L128.109 168.495Z" fill="white"/>
<path d="M118.581 163.368L118.473 163.406L119.394 165.955L119.502 165.916L118.581 163.368Z" fill="white"/>
<path d="M122.202 141.37L123.241 141.81C123.241 141.759 123.201 141.708 123.185 141.661L122.246 141.268L122.202 141.37Z" fill="white"/>
<path d="M128.86 168.677L128.746 168.649L128.651 169.015L128.785 168.968L128.86 168.677Z" fill="white"/>
<path d="M115.399 160.674L113.339 159.803L113.425 159.964L115.352 160.781L115.399 160.674Z" fill="white"/>
<path d="M108.356 125.388L109.697 126.782L109.784 126.703L108.364 125.23L108.356 125.388Z" fill="white"/>
<path d="M120.181 134.945L121.101 136.064L120.972 135.726L120.283 134.87L120.181 134.945Z" fill="white"/>
<path d="M109.139 127.32L109.221 127.237L108.317 126.295L108.309 126.456L109.139 127.32Z" fill="white"/>
<path d="M124.062 145.403L124.845 147.998L124.955 147.963L124.177 145.371L124.062 145.403Z" fill="white"/>
<path d="M115.702 159.963L113.205 158.902L113.158 159.008L115.655 160.069L115.702 159.963Z" fill="white"/>
<path d="M112.808 152.93L112.713 152.859L111.066 155.007L111.156 155.078L112.808 152.93Z" fill="white"/>
<path d="M116.98 156.06L116.201 153.464L116.087 153.499L116.87 156.091L116.98 156.06Z" fill="white"/>
<path d="M116.237 156.284L115.458 153.688L115.344 153.724L116.127 156.316L116.237 156.284Z" fill="white"/>
<path d="M113.421 153.397L113.331 153.33L111.679 155.478L111.774 155.549L113.421 153.397Z" fill="white"/>
<path d="M109.458 131.996L109.572 132.028L109.937 130.732L110.307 129.424L110.197 129.389L109.815 130.732L109.458 131.996Z" fill="white"/>
<path d="M109.009 130.731L108.71 131.787L108.824 131.819L109.131 130.731L109.56 129.211L109.449 129.18L109.009 130.731Z" fill="white"/>
<path d="M110.948 148.996L110.846 148.938L109.497 151.29L109.599 151.345L110.948 148.996Z" fill="white"/>
<path d="M111.62 149.38L111.518 149.321L110.169 151.673L110.271 151.728L111.62 149.38Z" fill="white"/>
<path d="M117.845 140.957L116.496 143.305L116.595 143.364L117.943 141.012L117.845 140.957Z" fill="white"/>
<path d="M122.725 149.381L122.12 152.02L122.234 152.047L122.839 149.408L122.725 149.381Z" fill="white"/>
<path d="M123.551 142.654L121.943 141.975L121.899 142.081L123.606 142.803C123.586 142.76 123.571 142.705 123.551 142.654Z" fill="white"/>
<path d="M122.733 154.178L122.718 154.064L120.032 154.442L120.047 154.556L122.733 154.178Z" fill="white"/>
<path d="M124.165 157.014L124.074 157.088L125.305 158.588L125.793 159.185L125.883 159.111L125.454 158.588L124.165 157.014Z" fill="white"/>
<path d="M118.305 158.588L118.592 157.465L118.478 157.438L118.183 158.588L117.81 160.061L117.924 160.088L118.305 158.588Z" fill="white"/>
<path d="M117.552 149.762L117.508 149.867L120.006 150.926L120.051 150.821L117.552 149.762Z" fill="white"/>
<path d="M117.503 158.589L117.841 157.274L117.727 157.246L117.385 158.589L117.059 159.869L117.173 159.901L117.503 158.589Z" fill="white"/>
<path d="M125.718 164.055L126.021 161.365L125.907 161.354L125.6 164.043L125.718 164.055Z" fill="white"/>
<path d="M108.64 119.25C108.64 119.25 113.583 118.606 115.718 122.686C117.853 126.766 131.196 162.826 131.412 166.274C131.628 169.722 122.596 170.566 119.587 169.066C116.579 167.566 108.183 149.746 107.334 147.382" stroke="#263238" stroke-width="0.985332"/>
<path d="M78.757 168.41C78.757 168.41 68.6547 167.122 66.9323 167.334C65.2099 167.546 57.4749 172.702 57.4749 172.702H79.3862L78.757 168.41Z" fill="#CFCFCF" stroke="#263238" stroke-width="0.985332" stroke-linecap="round" stroke-linejoin="round"/>
<path d="M120.46 161.539L78.7769 168.411L79.3864 172.703H130.783C131.183 170.578 131.398 168.424 131.428 166.263C131.428 163.043 129.493 159.395 129.493 159.395" fill="#59A3D4"/>
<path d="M123.913 168.626L124.696 171.218L124.806 171.186L124.027 168.591L123.913 168.626Z" fill="white"/>
<path d="M126.768 161.291L125.061 163.396L125.152 163.47L126.858 161.366L126.768 161.291Z" fill="white"/>
<path d="M124.459 162.908L124.55 162.983L126.253 160.878L126.162 160.804L124.459 162.908Z" fill="white"/>
<path d="M119.037 166.658L119.819 169.254L119.93 169.219L119.151 166.627L119.037 166.658Z" fill="white"/>
<path d="M125.549 170.963L124.766 168.367L124.656 168.403L125.439 170.994L125.549 170.963Z" fill="white"/>
<path d="M120.673 168.998L119.894 166.402L119.78 166.438L120.563 169.029L120.673 168.998Z" fill="white"/>
<path d="M127.848 163.828L127.18 166.454L127.295 166.483L127.962 163.857L127.848 163.828Z" fill="white"/>
<path d="M127.37 172.702H127.492L128.062 170.692L127.948 170.66L127.37 172.702Z" fill="white"/>
<path d="M117.704 172.258L117.66 172.364L118.455 172.702H118.754L117.704 172.258Z" fill="white"/>
<path d="M128.589 164.001L127.92 166.627L128.035 166.656L128.703 164.03L128.589 164.001Z" fill="white"/>
<path d="M108.551 164.34L108.44 164.38L109.361 166.929L109.472 166.889L108.551 164.34Z" fill="white"/>
<path d="M121.75 165.303L124.243 166.36L124.29 166.254L121.793 165.193L121.75 165.303Z" fill="white"/>
<path d="M122.576 172.604L122.552 172.702H122.671L122.691 172.627L122.576 172.604Z" fill="white"/>
<path d="M122.097 164.492L122.052 164.597L124.551 165.655L124.595 165.55L122.097 164.492Z" fill="white"/>
<path d="M110.732 163.968L112.45 166.065L112.541 165.99L110.822 163.894L110.732 163.968Z" fill="white"/>
<path d="M113.138 165.5L111.42 163.407L111.333 163.478L113.048 165.575L113.138 165.5Z" fill="white"/>
<path d="M129.969 161.185L130.209 160.976L130.161 160.862L129.894 161.098L129.969 161.185Z" fill="white"/>
<path d="M110.656 167.489L109.915 170.096L110.029 170.128L110.769 167.521L110.656 167.489Z" fill="white"/>
<path d="M130.468 166.761L131.416 166.977C131.416 166.937 131.416 166.898 131.416 166.859L130.488 166.646L130.468 166.761Z" fill="white"/>
<path d="M115.918 171.866L115.387 172.703H115.525L116.017 171.925L115.918 171.866Z" fill="white"/>
<path d="M131.388 167.644L130.323 167.404L130.295 167.514L131.381 167.762C131.384 167.723 131.388 167.683 131.388 167.644Z" fill="white"/>
<path d="M130.476 161.77L130.504 161.746L130.461 161.628L130.401 161.683L130.476 161.77Z" fill="white"/>
<path d="M115.932 168.103L113.444 169.187L113.491 169.295L115.979 168.211L115.932 168.103Z" fill="white"/>
<path d="M115.36 171.512L115.262 171.449L114.467 172.702H114.605L115.36 171.512Z" fill="white"/>
<path d="M111.41 167.721L110.669 170.327L110.783 170.359L111.524 167.753L111.41 167.721Z" fill="white"/>
<path d="M116.25 168.803L113.762 169.887L113.81 169.995L116.297 168.911L116.25 168.803Z" fill="white"/>
<path d="M117.794 164.236L117.696 164.177L116.347 166.529L116.445 166.588L117.794 164.236Z" fill="white"/>
<path d="M115.675 166.144L115.773 166.199L117.122 163.851L117.019 163.792L115.675 166.144Z" fill="white"/>
<path d="M88.0366 168.105L85.5488 169.188L85.596 169.297L88.0838 168.213L88.0366 168.105Z" fill="white"/>
<path d="M82.9019 172.215L82.7997 172.16L82.489 172.703H82.6227L82.9019 172.215Z" fill="white"/>
<path d="M82.1311 170.131L82.8075 167.743L82.6816 167.763L82.021 170.099L82.1311 170.131Z" fill="white"/>
<path d="M83.5743 172.6L83.472 172.545L83.3816 172.702H83.5153L83.5743 172.6Z" fill="white"/>
<path d="M96.6495 165.646L96.6967 165.539L96.5473 165.48L96.335 165.512L96.6495 165.646Z" fill="white"/>
<path d="M99.4731 172.702H99.5951L100.161 170.692L100.051 170.66L99.4731 172.702Z" fill="white"/>
<path d="M100.492 164.829L100.031 166.643L100.142 166.675L100.617 164.81L100.492 164.829Z" fill="white"/>
<path d="M87.4635 171.512L87.3651 171.449L86.5708 172.702H86.7084L87.4635 171.512Z" fill="white"/>
<path d="M88.1202 171.925L88.0219 171.866L87.4871 172.703H87.6247L88.1202 171.925Z" fill="white"/>
<path d="M111.369 172.545L111.278 172.702H111.412L111.471 172.6L111.369 172.545Z" fill="white"/>
<path d="M128.695 170.872L128.176 172.702H128.297L128.805 170.903L128.695 170.872Z" fill="white"/>
<path d="M107.821 164.609L107.71 164.649L108.632 167.198L108.743 167.158L107.821 164.609Z" fill="white"/>
<path d="M100.794 170.872L100.279 172.702H100.397L100.908 170.903L100.794 170.872Z" fill="white"/>
<path d="M89.8072 172.258L89.76 172.364L90.5583 172.702H90.8532L89.8072 172.258Z" fill="white"/>
<path d="M110.798 172.215L110.696 172.16L110.385 172.703H110.519L110.798 172.215Z" fill="white"/>
<path d="M82.9121 167.539L82.1794 170.141L82.2927 170.172L83.0253 167.571L82.9121 167.539Z" fill="white"/>
<path d="M105.281 169.509L105.171 169.466L104.18 171.987L104.286 172.03L105.281 169.509Z" fill="white"/>
<path d="M88.3464 168.813L85.8586 169.896L85.9059 170.005L88.3936 168.921L88.3464 168.813Z" fill="white"/>
<path d="M106.001 169.788L105.891 169.749L104.9 172.27L105.01 172.309L106.001 169.788Z" fill="white"/>
<path d="M102.399 167.518L103.602 167.79L105.041 168.112L105.069 167.998L103.602 167.668L102.422 167.404L102.399 167.518Z" fill="white"/>
<path d="M105.214 167.357L105.242 167.243L103.602 166.874L102.595 166.646L102.568 166.76L103.602 166.992L105.214 167.357Z" fill="white"/>
<path d="M99.3943 166.482L99.7836 164.946L99.6578 164.966L99.2803 166.454L99.3943 166.482Z" fill="white"/>
<path d="M96.3939 166.254L95.1198 165.711L94.9075 165.746L96.3467 166.36L96.3939 166.254Z" fill="white"/>
<path d="M92.6622 169.029L92.7762 168.998L91.9937 166.402L91.8835 166.438L92.6622 169.029Z" fill="white"/>
<path d="M92.033 169.219L91.2505 166.627L91.1404 166.658L91.9229 169.254L92.033 169.219Z" fill="white"/>
<path d="M96.0166 168.626L96.7991 171.218L96.9093 171.186L96.1267 168.591L96.0166 168.626Z" fill="white"/>
<path d="M94.6755 172.604L94.6519 172.702H94.7741L94.7899 172.627L94.6755 172.604Z" fill="white"/>
<path d="M97.6524 170.963L96.8699 168.367L96.7598 168.403L97.5384 170.994L97.6524 170.963Z" fill="white"/>
<path d="M120.46 161.539L78.7769 168.411L79.3864 172.703H130.783C131.183 170.578 131.398 168.424 131.428 166.263C131.428 163.043 129.493 159.395 129.493 159.395" stroke="#263238" stroke-width="0.985332"/>
<path d="M129.627 172.007H77.8133L76.1145 143.545C76.0682 143.268 76.083 142.984 76.1577 142.713C76.2325 142.442 76.3654 142.19 76.5472 141.976C76.7291 141.761 76.9556 141.589 77.2109 141.471C77.4662 141.353 77.7442 141.291 78.0256 141.291H129.406C129.688 141.291 129.966 141.351 130.222 141.469C130.478 141.588 130.704 141.76 130.886 141.975C131.068 142.189 131.201 142.441 131.276 142.712C131.35 142.983 131.365 143.268 131.318 143.545L129.627 172.007Z" fill="#263238" stroke="#263238" stroke-width="0.985332" stroke-linecap="round" stroke-linejoin="round"/>
<path d="M80.3574 141.974H129.033C129.308 141.971 129.58 142.028 129.83 142.141C130.081 142.254 130.303 142.42 130.483 142.628C130.662 142.836 130.794 143.081 130.869 143.345C130.944 143.609 130.96 143.886 130.916 144.157" stroke="white" stroke-width="0.985332" stroke-linecap="round" stroke-linejoin="round"/>
<path d="M76.4998 143.721C76.5366 143.243 76.7535 142.797 77.1067 142.473C77.4599 142.149 77.9232 141.97 78.403 141.974" stroke="white" stroke-width="0.985332" stroke-linecap="round" stroke-linejoin="round"/>
<path d="M129.843 169.233H77.5891V172.006H129.843V169.233Z" fill="white" stroke="#263238" stroke-width="0.985332" stroke-linecap="round" stroke-linejoin="round"/>
<path d="M107.236 156.764C107.236 157.989 105.576 158.982 103.531 158.982C101.486 158.982 99.8308 157.989 99.8308 156.764C99.8308 155.538 101.49 154.545 103.531 154.545C105.572 154.545 107.236 155.538 107.236 156.764Z" fill="white" stroke="#263238" stroke-width="0.985332" stroke-linecap="round" stroke-linejoin="round"/>
<path d="M26.2752 169.149C25.177 169.095 24.0984 168.838 23.0939 168.391C22.838 168.268 22.6396 168.051 22.5401 167.786C22.4405 167.52 22.4476 167.227 22.5597 166.966C22.6719 166.706 22.8805 166.498 23.142 166.388C23.4034 166.277 23.6976 166.272 23.963 166.373C24.9775 166.805 26.2791 167.072 26.6291 166.923C27.2662 166.204 28.2532 161.865 26.9791 159.795C26.9122 159.649 26.8112 159.521 26.6847 159.422C26.5581 159.323 26.4096 159.256 26.2516 159.226C25.5281 159.128 24.4584 159.87 24.0809 160.223C23.8657 160.41 23.5862 160.506 23.3013 160.492C23.0164 160.477 22.7484 160.352 22.5537 160.144C22.359 159.936 22.2528 159.66 22.2575 159.376C22.2621 159.091 22.3773 158.819 22.5787 158.617C22.7793 158.429 24.6039 156.791 26.5426 157.046C27.0238 157.118 27.4822 157.299 27.8824 157.576C28.2825 157.852 28.6139 158.216 28.8509 158.641C30.7267 161.688 29.4447 167.5 28.0015 168.639C27.5005 168.999 26.8919 169.179 26.2752 169.149Z" fill="#263238" stroke="#263238" stroke-width="0.985332" stroke-linecap="round" stroke-linejoin="round"/>
<path d="M24.3287 156.15H12.1973V172.231H24.3287V156.15Z" fill="#263238" stroke="#263238" stroke-width="0.985332" stroke-linecap="round" stroke-linejoin="round"/>
<path d="M13.2983 155.271C13.2983 155.271 13.2983 153.932 15.7561 152.593C18.2138 151.254 19.5548 149.247 18.2138 145.454C16.8729 141.661 17.097 138.982 19.7868 136.748" stroke="#263238" stroke-width="0.985332" stroke-linecap="round" stroke-linejoin="round"/>
<path d="M13.8567 140.997C13.9825 139.367 14.71 137.989 16.2161 136.748" stroke="#263238" stroke-width="0.985332" stroke-linecap="round" stroke-linejoin="round"/>
<path d="M14.6394 145.453C14.3939 144.777 14.1955 144.084 14.0457 143.38" stroke="#263238" stroke-width="0.985332" stroke-linecap="round" stroke-linejoin="round"/>
<path d="M23.2787 146.761C23.1846 146.317 23.0597 145.88 22.9052 145.453L22.7007 144.849" stroke="#263238" stroke-width="0.985332" stroke-linecap="round" stroke-linejoin="round"/>
<path d="M17.9897 155.271C17.9897 155.271 17.9897 153.932 20.4475 152.593C22.0598 151.714 23.2002 150.547 23.4007 148.78" stroke="#263238" stroke-width="0.985332" stroke-linecap="round" stroke-linejoin="round"/>
<path d="M184 171.956H0.970215V176.001H184V171.956Z" fill="#263238"/>
</svg>
