<svg width="83" height="83" viewBox="0 0 83 83" fill="none" xmlns="http://www.w3.org/2000/svg">
<path d="M70.2394 62.6235C70.2386 62.6089 70.2386 62.5942 70.2394 62.5796V62.457C70.2394 62.3436 70.2394 62.1862 70.2394 61.9831C70.2394 61.5677 70.2303 60.9712 70.2248 60.2192L70.2521 60.2466L61.2065 60.2649L61.2521 60.2192V61.4378C61.2521 61.8385 61.2521 62.2338 61.2521 62.6199L61.2065 62.5741L67.6552 62.5961L69.5564 62.6089H70.0718H70.2066H70.2539C70.2539 62.6089 70.2412 62.6089 70.2121 62.6089H70.0828H69.5783L67.6861 62.6217L61.2065 62.6418H61.1628V62.5961C61.1628 62.21 61.1628 61.8148 61.1628 61.414V60.1954C61.2557 60.1021 61.1883 60.1698 61.2102 60.1496L70.2558 60.1679H70.274V60.1954C70.274 60.9548 70.2612 61.5568 70.2576 61.9758C70.2576 62.1752 70.2576 62.3417 70.2576 62.4442C70.2576 62.4918 70.2576 62.5302 70.2576 62.5613C70.2576 62.5924 70.2412 62.6254 70.2394 62.6235Z" fill="#E0E0E0"/>
<path d="M11.6644 78.5665C11.6631 78.5519 11.6631 78.5372 11.6644 78.5226C11.6644 78.4897 11.6644 78.4494 11.6644 78.4C11.6644 78.2866 11.6644 78.1274 11.6644 77.9261C11.6644 77.5107 11.6644 76.9142 11.6499 76.1622L11.6772 76.1896L2.6316 76.2079L2.67713 76.1622V76.7733C2.67713 76.9764 2.67713 77.1795 2.67713 77.379V78.5629L2.6316 78.5171L9.07841 78.5372L10.9815 78.5501H11.4969H11.6316H11.679H11.6371H11.5078H11.0034L9.11119 78.5629L2.6316 78.5848H2.58789V78.5391C2.58789 78.1524 2.58789 77.7578 2.58789 77.3552V76.1384L2.63524 76.0908L11.6808 76.1091H11.7081V76.1384C11.7081 76.8978 11.6972 77.4998 11.6936 77.9188C11.6936 78.1182 11.6936 78.2738 11.6936 78.3854V78.5043C11.6662 78.5537 11.6644 78.5665 11.6644 78.5665Z" fill="#E0E0E0"/>
<path d="M43.11 21.0945C43.11 21.0945 43.11 21.078 43.11 21.0506V20.928C43.11 20.8145 43.11 20.6572 43.11 20.4541C43.11 20.0387 43.11 19.4422 43.0936 18.6902L43.1209 18.7176L34.0753 18.7359L34.1208 18.6902V21.0908L34.0753 21.0451L40.5221 21.0652L42.4252 21.0799H42.9388H43.0735H43.1209C43.1209 21.0799 43.1081 21.0799 43.079 21.0799H42.9515H42.4452L40.5531 21.0927L34.0753 21.1146H34.0298V19.8868C34.0298 19.6856 34.0298 19.4825 34.0298 19.2794V18.6682C34.1227 18.5749 34.0571 18.6426 34.0771 18.6206L43.1227 18.6389H43.1391V18.6682C43.1391 19.4276 43.1263 20.0296 43.1227 20.4486C43.1227 20.648 43.1227 20.8036 43.1227 20.9152C43.1227 20.9646 43.1227 21.003 43.1227 21.0341C43.1227 21.0652 43.1118 21.0963 43.11 21.0945Z" fill="#E0E0E0"/>
<path d="M44.3373 18.6898C44.336 18.6745 44.336 18.6592 44.3373 18.644C44.3373 18.6093 44.3373 18.5672 44.3373 18.5159C44.3373 18.397 44.3373 18.2378 44.3373 18.0347C44.3373 17.612 44.3264 17.0173 44.3191 16.2854L44.3519 16.3184L38.9158 16.3312C38.8757 16.3732 38.9723 16.2744 38.9631 16.2854V17.5205C38.9631 17.9212 38.9631 18.3128 38.9631 18.6861L38.9194 18.6422L42.8076 18.6623L43.9403 18.6751H44.2463H44.3555C44.3228 18.6777 44.2899 18.6777 44.2572 18.6751H43.9603L42.8385 18.6861L38.9194 18.7081H38.8757V18.6641C38.8757 18.2982 38.8757 17.8993 38.8757 17.4986V16.2635C38.8648 16.2726 38.9631 16.1756 38.9213 16.2159L44.3573 16.2287H44.3901V16.2635C44.3901 16.9954 44.3774 17.6065 44.3719 18.0329C44.3719 18.2323 44.3719 18.3988 44.3719 18.5068C44.3719 18.6147 44.3391 18.6916 44.3373 18.6898Z" fill="#E0E0E0"/>
<path d="M10.812 54.5596H2.57141V56.7498H10.812V54.5596Z" fill="#EBEBEB"/>
<path d="M62.2135 46.0801H53.9729V48.2703H62.2135V46.0801Z" fill="#EBEBEB"/>
<path d="M24.4725 1.48828H3.7334V35.9798H24.4725V1.48828Z" fill="#E0E0E0"/>
<path d="M23.7822 1.48828H3.04309V35.9798H23.7822V1.48828Z" fill="#EBEBEB"/>
<path d="M22.899 2.1875H3.92639V35.2811H22.899V2.1875Z" fill="#FAFAFA"/>
<path d="M19.2038 6.4873H7.5376V30.9809H19.2038V6.4873Z" fill="#EBEBEB"/>
<path d="M7.53759 22.3119C7.51209 20.0246 9.55905 17.7905 11.8136 17.4702C12.8899 17.3184 14.0318 17.5325 15.037 17.1189C16.829 16.387 17.4045 13.9863 19.2056 13.2764L19.2875 30.9796H7.53759V22.3119Z" fill="#E0E0E0"/>
<path d="M79.7839 2.4082H63.5303V26.0784H79.7839V2.4082Z" fill="#E0E0E0"/>
<path d="M78.9698 2.4082H62.7162V26.0784H78.9698V2.4082Z" fill="#F5F5F5"/>
<path d="M76.9502 4.97266H64.7358V23.5158H76.9502V4.97266Z" fill="white"/>
<path d="M76.9502 23.5147C76.9502 23.5147 76.9502 23.4836 76.9502 23.4251C76.9502 23.3665 76.9502 23.275 76.9502 23.1616C76.9502 22.9274 76.9502 22.587 76.9502 22.1442C76.9502 21.255 76.9502 19.9613 76.9393 18.3236C76.9393 15.0538 76.9265 10.4244 76.9192 4.96616L76.9593 5.00642H64.7468L64.7905 4.9625C64.7905 11.9578 64.7905 18.4078 64.7814 23.5056L64.7468 23.4708L73.6375 23.4891H76.0942H76.7389H76.9611H76.7462H76.107H73.6594L64.7468 23.5074H64.7122V23.4727C64.7122 18.3749 64.7122 11.9249 64.7122 4.92956V4.92773H64.7577H76.9702H77.0121V4.96799C77.0121 10.4317 76.9975 15.0703 76.9939 18.3474C76.9939 19.9796 76.9939 21.2751 76.983 22.1589C76.983 22.598 76.983 22.9365 76.983 23.1671C76.983 23.2787 76.983 23.3647 76.983 23.4251C76.983 23.4855 76.9502 23.5147 76.9502 23.5147Z" fill="#E0E0E0"/>
<path d="M79.0154 2.4082C78.9317 2.55755 78.8348 2.69902 78.7258 2.83088C78.5437 3.08523 78.2687 3.42923 77.9628 3.8025C77.6568 4.17578 77.3764 4.50697 77.1596 4.74485C77.05 4.87815 76.9281 5.00068 76.7954 5.1108C76.8879 4.96749 76.9914 4.83167 77.105 4.70459L77.8881 3.74944L78.6694 2.79612C78.7743 2.65784 78.89 2.52813 79.0154 2.4082Z" fill="#E0E0E0"/>
<path d="M77.0121 23.4551C77.62 24.425 78.3348 25.323 79.1428 26.1321Z" fill="white"/>
<path d="M79.1429 26.1318C79.0099 26.0322 78.8878 25.9187 78.7786 25.7933C78.4952 25.5026 78.2271 25.1972 77.9755 24.8784C77.7228 24.5618 77.4869 24.232 77.2689 23.8903C77.1706 23.7531 77.087 23.6059 77.0194 23.4512C77.1292 23.5784 77.2297 23.7136 77.3199 23.8556C77.502 24.1081 77.7515 24.4539 78.0483 24.8235C78.3452 25.1931 78.622 25.5152 78.8278 25.7384C78.942 25.8619 79.0473 25.9933 79.1429 26.1318Z" fill="#E0E0E0"/>
<path d="M62.7144 26.0604C63.4246 25.1797 64.1342 24.3002 64.8433 23.4219Z" fill="white"/>
<path d="M64.8433 23.4219C64.5228 23.8881 64.1787 24.3376 63.8125 24.7686C63.4699 25.2172 63.1052 25.6484 62.7198 26.0604C63.0401 25.5934 63.3841 25.1432 63.7506 24.7119C64.0917 24.2626 64.4565 23.832 64.8433 23.4219Z" fill="#E0E0E0"/>
<path d="M62.7162 2.4082C63.0836 2.80151 63.4289 3.21507 63.7506 3.64697C64.0961 4.06058 64.4178 4.49373 64.714 4.94429C64.3471 4.54973 64.0024 4.13494 63.6814 3.70187C63.3372 3.28802 63.015 2.8562 62.7162 2.4082Z" fill="#E0E0E0"/>
<path d="M73.1458 8.73828H69.0555V20.4069H73.1458V8.73828Z" fill="#E0E0E0"/>
<path d="M79.7111 34.6348H71.4705V36.825H79.7111V34.6348Z" fill="#EBEBEB"/>
<path d="M76.2253 39.1322C76.2246 39.1188 76.2246 39.1054 76.2253 39.092V38.9804C76.2253 38.8779 76.2253 38.7334 76.2253 38.5485C76.2253 38.1716 76.2253 37.6337 76.2108 36.942L76.2363 36.9676L67.9956 36.9841C68.0157 36.9658 67.9537 37.0262 68.0375 36.942V39.1377L67.9956 39.0975L73.8688 39.1158L75.6025 39.1268H76.0705H76.1926H76.2363C76.2363 39.1268 76.2253 39.1268 76.198 39.1268H76.0815H75.6207L73.8979 39.1377L67.9956 39.1579H67.9556V39.1158C67.9556 38.7645 67.9556 38.404 67.9556 38.038V36.9493L67.9975 36.9072L76.2381 36.9237H76.2636V36.9493C76.2636 37.641 76.2527 38.1899 76.2508 38.5723C76.2508 38.7553 76.2508 38.8962 76.2508 38.9968C76.2508 39.0408 76.2508 39.0774 76.2508 39.1048C76.2508 39.1323 76.2272 39.1341 76.2253 39.1322Z" fill="#E0E0E0"/>
<path d="M83 82.7456C83 82.7712 64.4244 82.7931 41.5018 82.7931C18.5792 82.7931 0 82.7712 0 82.7456C0 82.72 18.5774 82.6943 41.5 82.6943C64.4226 82.6943 83 82.7181 83 82.7456Z" fill="#263238"/>
<path d="M70.0809 75.8196C70.0809 75.8196 69.0903 68.9725 69.1704 64.989C69.2505 61.0056 69.1704 56.5244 69.1704 56.5244H69.6275C69.6275 56.5244 69.3179 64.4309 69.6548 69.1994C69.9917 73.9678 70.8768 75.8196 70.8768 75.8196H70.0846" fill="#263238"/>
<path d="M73.033 48.8206C72.962 48.5781 72.8167 48.3643 72.6178 48.2095C72.3264 48.0265 71.9476 48.1015 71.6234 48.2095C70.2448 48.6999 69.021 51.2854 68.4637 52.6449L70.2958 58.8461C73.6012 55.772 74.1748 51.7282 73.033 48.8206Z" fill="#455A64"/>
<path d="M72.5103 48.46C72.5042 48.4877 72.495 48.5147 72.483 48.5405L72.3938 48.7674C72.3136 48.9613 72.2007 49.2468 72.0659 49.5981C71.7964 50.3026 71.4522 51.287 71.1444 52.3958C70.8367 53.5047 70.6291 54.5275 70.4979 55.2723C70.4324 55.6382 70.3832 55.9456 70.3523 56.1542C70.3377 56.2512 70.3231 56.3372 70.314 56.3939C70.3102 56.4218 70.3041 56.4494 70.2958 56.4763C70.2914 56.4484 70.2914 56.42 70.2958 56.3921C70.2958 56.3281 70.3104 56.2475 70.3195 56.1506C70.3432 55.9401 70.3832 55.6364 70.4415 55.2631C70.752 53.3134 71.2805 51.405 72.0168 49.5743C72.157 49.2248 72.2772 48.943 72.3664 48.7509L72.4702 48.5313C72.481 48.5061 72.4944 48.4822 72.5103 48.46Z" fill="#263238"/>
<path d="M69.4799 60.3408C67.7644 59.3875 66.7482 57.5961 66.6572 55.6254C66.5916 54.2494 67.0123 52.8972 67.4894 51.5999C67.5175 51.483 67.5859 51.3799 67.6825 51.3089C67.7603 51.2806 67.844 51.2724 67.9258 51.2852C68.0076 51.298 68.0849 51.3313 68.1505 51.3821C69.398 52.0957 70.1537 53.4571 70.5562 54.8423C70.8451 55.7609 70.9419 56.7296 70.8403 57.6876C70.6827 58.6944 70.2055 59.6231 69.4799 60.3353" fill="#455A64"/>
<path d="M69.48 60.3411C69.4777 60.3137 69.4777 60.2862 69.48 60.2588C69.48 60.1947 69.48 60.1161 69.48 60.0191C69.48 59.8141 69.4709 59.5141 69.4545 59.1463C69.4059 58.1855 69.2995 57.2286 69.1358 56.2808C68.9446 55.1701 68.7151 54.1747 68.5439 53.4556C68.4602 53.1043 68.391 52.8152 68.34 52.6048C68.3199 52.5096 68.3017 52.4328 68.2872 52.3724C68.28 52.3455 68.2757 52.3179 68.2744 52.29C68.2872 52.3148 68.2964 52.3413 68.3017 52.3687L68.3691 52.5974C68.4256 52.7951 68.5039 53.0842 68.5949 53.4428C68.777 54.1583 69.0193 55.1537 69.2105 56.268C69.3755 57.2181 69.4747 58.1787 69.5073 59.1426C69.5183 59.5086 69.5183 59.8141 69.5073 60.0209C69.5073 60.1161 69.5073 60.2039 69.4982 60.2588C69.496 60.2869 69.4899 60.3147 69.48 60.3411Z" fill="#263238"/>
<g opacity="0.3">
<path d="M69.4799 60.3418C67.7644 59.3884 66.7482 57.5971 66.6572 55.6264C66.5916 54.2504 67.0123 52.8982 67.4894 51.6008C67.5175 51.484 67.5859 51.3809 67.6825 51.3099C67.7603 51.2815 67.844 51.2734 67.9258 51.2862C68.0076 51.2989 68.0849 51.3323 68.1505 51.3831C69.398 52.0967 70.1537 53.4581 70.5562 54.8432C70.8451 55.7619 70.9419 56.7306 70.8403 57.6886C70.6827 58.6954 70.2055 59.6241 69.4799 60.3363" fill="black"/>
</g>
<path d="M71.4177 70.8169C73.1077 71.1828 74.4991 72.3868 76.1308 72.9705C77.2089 73.3548 78.4291 73.492 79.2905 74.2514C79.0829 73.7262 78.593 73.3786 78.1177 73.0785C76.7755 72.2364 75.3429 71.5495 73.8471 71.031C73.0804 70.7638 72.2482 70.5424 71.4651 70.7601" fill="#455A64"/>
<path d="M68.9755 72.3303C66.8575 72.2955 64.6302 70.484 62.5232 70.3761C64.7268 69.6606 67.8846 70.2461 68.9755 72.3303Z" fill="#455A64"/>
<path d="M69.8022 67.2279C70.8767 66.8382 72.0568 66.8199 73.1859 66.9955C74.31 67.2041 75.4149 67.5058 76.4895 67.8976C76.3802 67.1657 75.7847 66.6058 75.2274 66.1136C74.8184 65.7308 74.3739 65.3882 73.8998 65.0907C73.4235 64.791 72.8719 64.6342 72.3099 64.6388C71.9728 64.6607 71.6436 64.7508 71.342 64.9036C71.0403 65.0564 70.7724 65.2688 70.5544 65.5281C70.1264 65.9974 69.8624 66.5942 69.8022 67.2279Z" fill="#455A64"/>
<path d="M65.4571 64.8791C64.1258 63.7374 62.108 63.849 60.3579 63.8892C63.1723 65.2364 65.8267 66.898 68.2707 68.8425C68.3399 67.5982 67.1398 66.3228 65.4571 64.8791Z" fill="#455A64"/>
<g opacity="0.3">
<path d="M65.4571 64.8782C64.1258 63.7364 62.108 63.848 60.3579 63.8882C63.1723 65.2355 65.8267 66.897 68.2707 68.8415C68.3399 67.5972 67.1398 66.3219 65.4571 64.8782Z" fill="black"/>
</g>
<path d="M70.4015 63.2984C71.0548 62.8464 71.7429 62.4474 72.4594 62.1054C73.1605 61.7852 73.8143 61.2765 74.4918 60.9069C75.3695 60.4293 76.1308 59.7651 76.9375 59.1722C77.7443 58.5794 78.6294 58.0451 79.6146 57.8914C78.8027 57.745 77.9678 57.7932 77.1779 58.0323C76.3911 58.2711 75.624 58.5709 74.8833 58.9289C73.8453 59.3991 72.7872 59.8822 71.9385 60.6452C71.0899 61.4082 70.3195 62.1621 70.4106 63.3039" fill="#455A64"/>
<path d="M76.0907 72.3294L76.0251 72.3002L75.843 72.2032C75.6846 72.119 75.4551 71.9928 75.1674 71.8464C75.0253 71.7713 74.8669 71.6927 74.6957 71.6103C74.5245 71.528 74.3406 71.442 74.1494 71.3578C73.7287 71.1684 73.2924 71.0159 72.8454 70.9022C72.4029 70.779 71.9369 70.767 71.4887 70.8674C71.2925 70.909 71.1001 70.9665 70.9132 71.0394C70.7516 71.1052 70.5962 71.1854 70.4488 71.2791C70.2343 71.4152 70.0379 71.5782 69.8642 71.764C69.7422 71.8958 69.6821 71.9763 69.6821 71.9726C69.6917 71.9501 69.7046 71.9291 69.7204 71.9104C69.7477 71.8702 69.7896 71.8134 69.8479 71.7439C70.0155 71.5473 70.2098 71.3755 70.4251 71.2334C70.5738 71.135 70.731 71.0504 70.895 70.9809C71.0839 70.9039 71.2788 70.8427 71.4778 70.7979C71.9366 70.6903 72.4149 70.6998 72.8691 70.8253C73.3199 70.9409 73.7593 71.0971 74.1821 71.2919C74.3788 71.3798 74.5628 71.4658 74.7285 71.5518C74.8942 71.6378 75.0563 71.7183 75.1965 71.797C75.4824 71.9488 75.7083 72.0824 75.8631 72.1757L76.0452 72.2837C76.0725 72.3111 76.1016 72.3258 76.0907 72.3294Z" fill="#263238"/>
<path d="M67.3966 71.2764C67.442 71.2826 67.4861 71.2956 67.5277 71.3148C67.6462 71.3572 67.7618 71.4073 67.8737 71.4648C68.619 71.8445 69.2347 72.4389 69.6421 73.172C69.7031 73.2823 69.7578 73.3959 69.806 73.5124C69.826 73.5543 69.8407 73.5985 69.8497 73.6441C69.8369 73.6441 69.7586 73.4611 69.5947 73.1995C69.3834 72.8475 69.1269 72.5252 68.8317 72.2407C68.5363 71.9555 68.2058 71.7096 67.8482 71.5087C67.5733 71.3605 67.3911 71.2892 67.3966 71.2764Z" fill="#263238"/>
<path d="M62.7126 64.7725C62.7438 64.7787 62.7743 64.7878 62.8037 64.7999L63.0568 64.8896L63.4575 65.0378C63.6141 65.0963 63.7835 65.1823 63.9747 65.2683C64.9681 65.7288 65.8949 66.3222 66.7301 67.0323C67.1869 67.4264 67.6164 67.8512 68.0158 68.304C68.3396 68.6741 68.6435 69.0614 68.9264 69.464C69.1667 69.808 69.3507 70.0953 69.4727 70.2929C69.5328 70.3863 69.5801 70.4613 69.6166 70.5217C69.6345 70.5472 69.6504 70.5741 69.6639 70.6022C69.642 70.5798 69.6225 70.5553 69.6056 70.529C69.5674 70.4796 69.5146 70.4064 69.449 70.3094C69.3143 70.1155 69.1249 69.8337 68.879 69.4951C68.6332 69.1566 68.3236 68.7632 67.9575 68.3497C67.5597 67.9027 67.1339 67.4816 66.6827 67.089C65.85 66.3849 64.9322 65.7892 63.951 65.3159C63.7689 65.2281 63.5868 65.1329 63.4393 65.078L63.0441 64.917L62.7964 64.8145C62.7675 64.8025 62.7395 64.7885 62.7126 64.7725Z" fill="#263238"/>
<path d="M72.9783 66.0317C72.9212 66.0319 72.8642 66.0246 72.809 66.0097L72.6141 65.9749C72.5394 65.9603 72.4502 65.9585 72.3537 65.9493C71.8506 65.9044 71.3451 66.0047 70.8968 66.2384C70.6514 66.3664 70.4277 66.5325 70.2339 66.7307C70.0731 66.8908 69.9302 67.0681 69.8077 67.2595C69.6985 67.4385 69.6017 67.625 69.5182 67.8175C69.5237 67.7608 69.5378 67.7053 69.5601 67.6529C69.6144 67.5063 69.6827 67.3654 69.764 67.232C69.8814 67.0324 70.0226 66.848 70.1847 66.6831C70.461 66.3917 70.801 66.1691 71.1778 66.0329C71.5546 65.8966 71.9579 65.8505 72.3555 65.8981C72.452 65.9109 72.5376 65.9164 72.6178 65.9347L72.8108 65.9841C72.868 65.9945 72.9241 66.0105 72.9783 66.0317Z" fill="#263238"/>
<path d="M75.1054 59.4023C75.0797 59.4203 75.0529 59.4368 75.0253 59.4518L74.7885 59.5798C74.5828 59.6915 74.2877 59.8561 73.929 60.0684C73.5702 60.2806 73.1495 60.5478 72.7015 60.8698C72.213 61.2132 71.7553 61.5989 71.3339 62.0226C71.1155 62.2406 70.9268 62.4867 70.7729 62.7545C70.6345 63.0217 70.5016 63.2797 70.3814 63.5285C70.1614 63.9659 69.965 64.4148 69.7932 64.8734C69.6784 65.1831 69.5829 65.4997 69.5073 65.8213C69.4526 66.0481 69.4326 66.1762 69.4253 66.1744C69.4251 66.1431 69.4282 66.1118 69.4344 66.0811C69.4344 66.0189 69.4544 65.9292 69.4781 65.8139C69.5429 65.4883 69.6311 65.1679 69.7422 64.8551C69.9082 64.3919 70.1003 63.9386 70.3177 63.4974C70.4379 63.2467 70.5708 62.9887 70.7074 62.7198C70.8634 62.446 71.0558 62.1948 71.2792 61.9732C71.7041 61.5464 72.1668 61.1593 72.6615 60.8168C73.1149 60.4966 73.5392 60.2349 73.9017 60.0245C74.2641 59.814 74.5645 59.6585 74.774 59.5579L75.018 59.4408C75.0451 59.4237 75.0745 59.4107 75.1054 59.4023Z" fill="#263238"/>
<path d="M69.1704 65.8413C69.1498 65.782 69.1357 65.7207 69.1285 65.6583C69.103 65.5266 69.0721 65.3619 69.0356 65.1661C68.8379 64.0847 68.4999 63.034 68.0304 62.0408L67.8246 61.5852C67.7962 61.5308 67.773 61.4738 67.7554 61.415C67.7935 61.4632 67.8253 61.5161 67.8501 61.5724C67.9065 61.6767 67.9848 61.8286 68.0795 62.017C68.5767 63.0044 68.9171 64.0639 69.0884 65.157C69.1212 65.3656 69.1449 65.5357 69.1576 65.6528C69.1674 65.7152 69.1717 65.7782 69.1704 65.8413Z" fill="#263238"/>
<path d="M69.0175 61.0033C68.9494 60.1981 68.715 59.416 68.3291 58.707C67.8062 57.7329 67.0775 56.8856 66.1941 56.2247C65.3107 55.5637 64.294 55.105 63.2153 54.8809L67.9503 61.9695L68.5622 63.2357C68.9774 62.5422 69.0703 61.8066 69.0175 61.0033Z" fill="#455A64"/>
<path d="M75.8066 74.9717H64.7997V76.9314H75.8066V74.9717Z" fill="#59A3D4"/>
<path d="M65.621 76.5439L66.5589 82.6243H73.8652L74.9852 76.5439H65.621Z" fill="#59A3D4"/>
<path d="M75.7993 76.9339C75.7993 76.9559 73.3171 76.9742 70.2558 76.9742C67.1945 76.9742 64.7104 76.9559 64.7104 76.9339C64.7104 76.912 67.1927 76.8955 70.2558 76.8955C73.3189 76.8955 75.7993 76.9138 75.7993 76.9339Z" fill="#263238"/>
<path d="M57.3293 5.00968H57.2419C56.7794 4.93508 56.3611 4.68974 56.0691 4.32168C55.9895 4.23067 55.8914 4.15779 55.7815 4.10793C55.6716 4.05807 55.5523 4.03238 55.4317 4.03258H43.3685C43.0977 4.03264 42.8371 4.13672 42.6401 4.32351C42.3177 4.62726 41.8206 4.98956 41.287 4.98956C40.6077 4.98956 40.1196 4.38207 39.9375 3.77824L40.513 3.6044C40.6077 3.9173 40.8918 4.38573 41.287 4.38573C41.551 4.38573 41.8861 4.20275 42.2303 3.88436C42.5374 3.59241 42.9439 3.42942 43.3667 3.42875H55.4335C55.64 3.42832 55.8441 3.47198 56.0325 3.55684C56.2209 3.6417 56.3892 3.76581 56.5262 3.92096C56.7218 4.16986 56.9984 4.34155 57.3075 4.40585C57.628 4.43879 58.0159 3.67394 58.1707 3.125L58.7498 3.28602C58.697 3.46351 58.2545 5.00968 57.3293 5.00968Z" fill="#E0E0E0"/>
<path d="M48.3419 79.5703H49.9099L49.9099 3.8147e-05H48.3419L48.3419 79.5703Z" fill="#E0E0E0"/>
<path d="M42.8203 80.529H54.9636C54.9636 80.2742 54.8629 80.0299 54.6836 79.8497C54.5043 79.6696 54.2611 79.5684 54.0075 79.5684H43.7746C43.5213 79.5688 43.2786 79.6703 43.0997 79.8504C42.9208 80.0305 42.8203 80.2745 42.8203 80.529Z" fill="#E0E0E0"/>
<path d="M52.8657 81.413C52.8654 81.6831 52.9448 81.9473 53.0939 82.1721C53.2431 82.3968 53.4552 82.5721 53.7035 82.6756C53.9519 82.7791 54.2252 82.8063 54.4889 82.7537C54.7526 82.7011 54.9948 82.5711 55.1849 82.38C55.375 82.189 55.5045 81.9456 55.5568 81.6807C55.6092 81.4157 55.5821 81.1411 55.4791 80.8916C55.376 80.6421 55.2016 80.4289 54.9779 80.2791C54.7542 80.1292 54.4913 80.0494 54.2225 80.0498C53.8628 80.0503 53.518 80.1941 53.2636 80.4496C53.0093 80.7052 52.8662 81.0516 52.8657 81.413Z" fill="#263238"/>
<path d="M43.1479 82.7536C43.8876 82.6333 44.3901 81.9332 44.2703 81.19C44.1505 80.4468 43.4537 79.942 42.714 80.0623C41.9744 80.1827 41.4719 80.8827 41.5917 81.6259C41.7115 82.3691 42.4082 82.874 43.1479 82.7536Z" fill="#263238"/>
<path d="M49.1161 82.7693C49.8547 82.642 50.3507 81.9373 50.2241 81.1953C50.0974 80.4533 49.3961 79.9549 48.6575 80.0821C47.919 80.2094 47.423 80.914 47.5496 81.6561C47.6762 82.3981 48.3776 82.8965 49.1161 82.7693Z" fill="#263238"/>
<path d="M49.4019 3.87924C49.4019 3.84996 50.7859 3.82617 52.4978 3.82617C54.2096 3.82617 55.5937 3.84996 55.5937 3.87924C55.5937 3.90851 54.2078 3.9323 52.4978 3.9323C50.7877 3.9323 49.4019 3.90851 49.4019 3.87924Z" fill="#263238"/>
<path d="M49.4293 3.86471C49.4129 3.89033 49.3145 3.82811 49.3309 3.70003C49.3473 3.57194 49.4657 3.54267 49.473 3.57194C49.4803 3.60122 49.442 3.64879 49.4347 3.7165C49.4275 3.7842 49.4493 3.84458 49.4293 3.86471Z" fill="#263238"/>
<path d="M48.3292 7.98696C48.3 7.98696 48.2764 6.60913 48.2764 4.91292C48.2764 3.2167 48.3 1.83887 48.3292 1.83887C48.3583 1.83887 48.3802 3.21487 48.3802 4.91292C48.3802 6.61096 48.3565 7.98696 48.3292 7.98696Z" fill="#263238"/>
<path d="M57.1617 23.2346H51.0117V19.9318C51.0127 19.3871 51.2285 18.865 51.6118 18.4799C51.9951 18.0947 52.5147 17.8779 53.0568 17.877H55.1093C55.3783 17.8765 55.6448 17.9292 55.8936 18.0323C56.1423 18.1353 56.3685 18.2865 56.559 18.4773C56.7496 18.6681 56.9009 18.8948 57.0043 19.1443C57.1077 19.3939 57.1612 19.6615 57.1617 19.9318V23.2346ZM51.8203 22.4295H56.3604V19.9318C56.3604 19.6004 56.2293 19.2825 55.9961 19.0481C55.7628 18.8137 55.4464 18.6821 55.1166 18.6821H53.0568C52.727 18.6821 52.4106 18.8137 52.1773 19.0481C51.9441 19.2825 51.813 19.6004 51.813 19.9318L51.8203 22.4295Z" fill="#E0E0E0"/>
<path d="M49.1305 34.6016H59.1759V22.1023H49.1305V34.6016Z" fill="#E0E0E0"/>
<path d="M52.0808 34.4883H59.1777V22.1006H52.0808V34.4883Z" fill="#F5F5F5"/>
<path d="M58.2818 23.3096H52.9805V28.6361H58.2818V23.3096Z" fill="white"/>
<path d="M52.9731 28.6341C52.9731 28.6341 52.9731 28.6048 52.9731 28.5408C52.9731 28.4767 52.9731 28.3779 52.9731 28.2608C52.9731 28.0047 52.9731 27.6424 52.9603 27.1831C52.9603 26.2407 52.9476 24.9068 52.9385 23.3094V23.2637H52.9731H58.2744L58.3272 23.3167V24.7495C58.3272 25.2191 58.3272 25.6778 58.3272 26.1255C58.3272 27.0202 58.3272 27.8638 58.3272 28.6378V28.6835H58.2817L54.43 28.6561L53.3592 28.6451H53.0787C53.0478 28.6475 53.0167 28.6475 52.9858 28.6451H53.0896H53.3774L54.4591 28.6323L58.2835 28.6085L58.238 28.6542C58.238 27.8802 58.238 27.0367 58.238 26.1419C58.238 25.6955 58.238 25.2368 58.238 24.7659V23.3332L58.289 23.3844H52.9876L53.0332 23.3405C53.0241 24.9251 53.0168 26.2499 53.0113 27.1831C53.0113 27.6442 53.0022 28.0101 52.9986 28.27C52.9986 28.3907 52.9986 28.4859 52.9986 28.5591C52.9913 28.5845 52.9828 28.6095 52.9731 28.6341Z" fill="#263238"/>
<path d="M49.3036 22.1001C49.3036 22.0708 51.509 22.0488 54.2207 22.0488C56.9323 22.0488 59.1377 22.0708 59.1377 22.1001C59.1377 22.1293 56.9341 22.1531 54.2207 22.1531C51.5072 22.1531 49.3036 22.1275 49.3036 22.1001Z" fill="#263238"/>
<path d="M49.1306 34.5995C49.1014 34.5995 49.0778 31.8218 49.0778 28.3983C49.0778 24.9748 49.1014 22.1953 49.1306 22.1953C49.1597 22.1953 49.1834 24.9711 49.1834 28.3983C49.1834 31.8255 49.1597 34.5995 49.1306 34.5995Z" fill="#263238"/>
<path d="M52.0789 34.5995C52.0516 34.5995 52.028 31.8218 52.028 28.3983C52.028 24.9748 52.0516 22.1953 52.0789 22.1953C52.1063 22.1953 52.1318 24.9711 52.1318 28.3983C52.1318 31.8255 52.1081 34.5995 52.0789 34.5995Z" fill="#263238"/>
<path d="M57.4695 30.4883H58.2817V29.6722H57.4695V30.4883Z" fill="#455A64"/>
<path d="M56.3459 30.4883H57.1599V29.6722H56.3459V30.4883Z" fill="#455A64"/>
<path d="M55.2259 30.4883H56.0381V29.6722H55.2259V30.4883Z" fill="#455A64"/>
<path d="M54.104 30.4883H54.9163V29.6722H54.104V30.4883Z" fill="#455A64"/>
<path d="M52.9822 30.4883H53.7944V29.6722H52.9822V30.4883Z" fill="#455A64"/>
<path d="M57.4695 31.5713H58.2817V30.7552H57.4695V31.5713Z" fill="#455A64"/>
<path d="M56.3459 31.5713H57.1599V30.7552H56.3459V31.5713Z" fill="#455A64"/>
<path d="M55.2259 31.5713H56.0381V30.7552H55.2259V31.5713Z" fill="#455A64"/>
<path d="M54.104 31.5713H54.9163V30.7552H54.104V31.5713Z" fill="#455A64"/>
<path d="M52.9822 31.5713H53.7944V30.7552H52.9822V31.5713Z" fill="#455A64"/>
<path d="M57.4695 32.6523H58.2817V31.8363H57.4695V32.6523Z" fill="#455A64"/>
<path d="M56.3459 32.6523H57.1599V31.8363H56.3459V32.6523Z" fill="#455A64"/>
<path d="M55.2259 32.6523H56.0381V31.8363H55.2259V32.6523Z" fill="#455A64"/>
<path d="M52.9823 32.6523H54.9182V31.8363H52.9823V32.6523Z" fill="#59A3D4"/>
<path d="M53.2463 26.0604C53.2739 26.0472 53.3034 26.0385 53.3338 26.0348C53.392 26.022 53.4758 26.0037 53.5887 25.9891C53.7252 25.9689 53.8638 25.9689 54.0003 25.9891C54.1865 26.0152 54.3588 26.1027 54.4902 26.2379C54.5654 26.3211 54.6175 26.4227 54.6413 26.5325C54.6639 26.6475 54.6718 26.765 54.665 26.882C54.655 27.0001 54.655 27.1189 54.665 27.237C54.6832 27.3561 54.7343 27.4676 54.8125 27.559C54.8493 27.6043 54.8998 27.6363 54.9563 27.6501C55.0128 27.664 55.0723 27.659 55.1257 27.6359C55.237 27.5702 55.3215 27.4672 55.3643 27.3449C55.4666 27.0708 55.5345 26.785 55.5665 26.4941C55.6065 26.194 55.5665 25.9012 55.6011 25.6011C55.6057 25.4516 55.6558 25.307 55.7447 25.1869C55.8336 25.0669 55.957 24.977 56.0982 24.9296C56.1679 24.9143 56.2402 24.9155 56.3094 24.9329C56.3786 24.9504 56.4428 24.9837 56.4971 25.0302C56.5948 25.1147 56.672 25.2205 56.7229 25.3395C56.8194 25.5645 56.8522 25.7823 56.9432 25.9525C57.0229 26.1066 57.1509 26.2301 57.3075 26.3038C57.4272 26.36 57.5577 26.3893 57.6899 26.3898C57.8038 26.385 57.9165 26.3647 58.025 26.3294C58.0015 26.3483 57.975 26.3631 57.9467 26.3733C57.8658 26.4075 57.7794 26.4267 57.6917 26.43C57.5519 26.4384 57.4121 26.4133 57.2838 26.3568C57.111 26.284 56.9674 26.1552 56.8759 25.9909C56.7739 25.8079 56.7338 25.5847 56.6409 25.3779C56.5936 25.2726 56.524 25.179 56.437 25.1034C56.3935 25.0659 56.3418 25.0392 56.2861 25.0255C56.2304 25.0119 56.1723 25.0116 56.1164 25.0248C55.9967 25.0594 55.8934 25.136 55.8251 25.2407C55.7529 25.3534 55.7091 25.4822 55.6976 25.6158C55.6703 25.8902 55.7085 26.1976 55.6666 26.5069C55.6341 26.8083 55.5625 27.1042 55.4536 27.387C55.4016 27.5332 55.2979 27.655 55.1622 27.7292C55.0901 27.76 55.0101 27.7667 54.934 27.7482C54.8579 27.7297 54.7898 27.6871 54.7397 27.6267C54.6497 27.5237 54.5914 27.3965 54.5721 27.2608C54.5608 27.139 54.5608 27.0165 54.5721 26.8948C54.5889 26.7916 54.5848 26.6861 54.5601 26.5846C54.5354 26.483 54.4905 26.3875 54.4283 26.3038C54.3093 26.1771 54.1528 26.0924 53.9821 26.0622C53.851 26.0397 53.7176 26.0335 53.5851 26.0439C53.372 26.0476 53.2482 26.0677 53.2463 26.0604Z" fill="#59A3D4"/>
<path d="M37.2586 13.0704C37.2511 13.3277 37.3278 13.5803 37.4771 13.7895C37.7212 14.0695 38.1637 14.1061 38.5552 14.1207L42.4361 14.2653C42.8203 14.2799 43.2592 14.2653 43.5124 14.0091C43.6945 13.8261 43.9895 13.3266 44.0114 13.0741C44.2058 10.7735 44.1576 8.45878 43.8675 6.16843C43.7874 5.48409 43.6581 4.78511 43.2611 4.20324C42.8641 3.62136 42.3614 3.19136 41.3871 2.99558C39.566 2.72294 38.0417 3.2243 37.6429 4.20873C37.2877 5.07971 37.3442 5.89579 37.295 6.82533C37.1582 8.9044 37.146 10.9899 37.2586 13.0704ZM39.9502 3.57379C39.9978 3.51138 40.0609 3.46264 40.1331 3.43245C40.2054 3.40226 40.2842 3.39169 40.3618 3.40179C40.4715 3.40112 40.5784 3.43653 40.6662 3.5026C40.754 3.56868 40.8179 3.6618 40.8481 3.76775C40.8679 3.87215 40.8515 3.98024 40.8014 4.07387C40.7513 4.1675 40.6707 4.24096 40.5731 4.28192C40.4709 4.32542 40.358 4.33664 40.2493 4.31408C40.1407 4.29153 40.0414 4.23627 39.9648 4.15566C39.9006 4.07307 39.8645 3.97192 39.8619 3.86714C39.8592 3.76237 39.8902 3.65952 39.9502 3.57379Z" fill="#F5F5F5"/>
<path d="M39.9503 3.57346C39.9503 3.57346 39.9394 3.61555 39.9193 3.68874C39.8896 3.78654 39.8896 3.89102 39.9193 3.98882C39.9462 4.05706 39.9902 4.11717 40.047 4.16333C40.1038 4.20949 40.1715 4.24014 40.2435 4.25231C40.3292 4.27463 40.4195 4.27185 40.5038 4.24429C40.588 4.21673 40.6626 4.16555 40.7188 4.09678C40.7749 4.03288 40.8071 3.9513 40.8098 3.86612C40.8124 3.78094 40.7854 3.69749 40.7334 3.63018C40.689 3.57549 40.6336 3.5309 40.5708 3.49935C40.508 3.4678 40.4393 3.45003 40.3692 3.4472H40.36C40.2544 3.43455 40.1476 3.45705 40.0559 3.51125C39.9885 3.54967 39.9649 3.5881 39.9576 3.58444C39.9503 3.58078 39.9576 3.53138 40.0322 3.47648C40.1299 3.39844 40.2542 3.36228 40.3783 3.37584H40.3692C40.454 3.37417 40.5381 3.39192 40.6151 3.42774C40.692 3.46357 40.7599 3.51653 40.8135 3.58261C40.8801 3.66329 40.9163 3.76504 40.9155 3.86989C40.914 3.98058 40.8755 4.08754 40.8062 4.17363C40.7378 4.2573 40.6466 4.31916 40.5437 4.35165C40.4409 4.38414 40.3309 4.38586 40.2271 4.35661C40.1424 4.33802 40.0641 4.29725 40.0001 4.23844C39.9362 4.17964 39.8888 4.10488 39.8629 4.02176C39.8355 3.90904 39.8471 3.79034 39.8957 3.68508C39.9139 3.60274 39.9448 3.5698 39.9503 3.57346Z" fill="#263238"/>
<path d="M37.2586 13.0704C37.2527 13.0427 37.249 13.0146 37.2476 12.9862C37.2476 12.9259 37.2367 12.8454 37.2276 12.7411C37.2112 12.5251 37.193 12.2068 37.1766 11.7951C37.1438 10.9735 37.1402 9.78228 37.1948 8.31845C37.2185 7.58653 37.2713 6.78143 37.2913 5.91776C37.2993 5.46745 37.3604 5.01968 37.4735 4.58385C37.5313 4.35239 37.6247 4.13139 37.7503 3.92878C37.8892 3.72544 38.0676 3.55241 38.2748 3.4201C38.701 3.15347 39.1803 2.98419 39.6789 2.92423C40.1956 2.85468 40.7192 2.85468 41.2359 2.92423C41.7798 2.98627 42.2963 3.19702 42.7293 3.53355C43.1605 3.8977 43.4832 4.37453 43.6617 4.91138C43.822 5.4475 43.9228 5.9998 43.9622 6.55819C44.0204 7.10225 44.0672 7.63838 44.1024 8.16658C44.1716 9.2242 44.1898 10.2452 44.1588 11.2187C44.1431 11.7066 44.1182 12.1799 44.0842 12.6386C44.0751 12.752 44.066 12.8673 44.0569 12.9789C44.0527 13.0964 44.028 13.2122 43.984 13.3211C43.8974 13.5269 43.7867 13.7216 43.6544 13.9011C43.5906 13.9931 43.5118 14.0735 43.4213 14.139C43.3293 14.1989 43.2276 14.2422 43.1208 14.2671C42.9173 14.3098 42.7092 14.3258 42.5016 14.3147L41.3561 14.2689L39.3838 14.1866L38.5752 14.1518C38.3462 14.1507 38.1181 14.1218 37.896 14.0658C37.7149 14.0218 37.5527 13.9204 37.4334 13.7767C37.3547 13.6684 37.3023 13.5431 37.2804 13.4108C37.2594 13.3023 37.2496 13.1919 37.2513 13.0814C37.2573 13.1085 37.2609 13.136 37.2622 13.1637C37.2622 13.2186 37.2786 13.301 37.3005 13.4053C37.3236 13.5382 37.3779 13.6636 37.4589 13.7712C37.5751 13.9078 37.7323 14.0028 37.9069 14.042C38.1266 14.0934 38.3515 14.1186 38.5771 14.1171L39.3857 14.1445L41.3579 14.2104L42.5053 14.2488C42.705 14.2594 42.9052 14.2434 43.1008 14.2012C43.1998 14.1804 43.2937 14.14 43.3769 14.0821C43.4601 14.0243 43.5309 13.9503 43.5852 13.8645C43.7125 13.6905 43.8189 13.502 43.9021 13.3028C43.9433 13.2023 43.9656 13.0949 43.9676 12.9862C43.9767 12.8746 43.984 12.7594 43.9931 12.6459C44.0259 12.1872 44.049 11.7152 44.0623 11.2296C44.0915 10.2599 44.0714 9.24066 44.0022 8.18854C43.9658 7.66156 43.9185 7.12665 43.8602 6.58381C43.82 6.03555 43.721 5.49324 43.5652 4.96627C43.3926 4.44724 43.0807 3.98623 42.6637 3.63419C42.2457 3.30884 41.7467 3.10503 41.2214 3.04499C40.7137 2.97638 40.1992 2.97638 39.6916 3.04499C39.2052 3.10043 38.7367 3.26152 38.3185 3.51708C38.1221 3.6435 37.9525 3.80767 37.8195 4.00014C37.6991 4.19431 37.6094 4.40602 37.5536 4.62776C37.4418 5.05638 37.3807 5.49673 37.3715 5.93972C37.3478 6.80155 37.2895 7.60666 37.2622 8.34041C37.1985 9.80424 37.1912 10.9954 37.2112 11.817C37.2203 12.2269 37.2349 12.5489 37.244 12.7612C37.244 12.8655 37.244 12.9442 37.2531 13.0082C37.2562 13.0288 37.2581 13.0496 37.2586 13.0704Z" fill="#263238"/>
<path d="M38.3714 13.2857L42.4489 13.4485C42.6184 13.462 42.7866 13.4089 42.918 13.3004C43.0495 13.1919 43.1339 13.0364 43.1537 12.8667L43.2775 7.67188H37.7249V12.6654C37.7319 12.8327 37.8032 12.9907 37.9237 13.1064C38.0443 13.222 38.2047 13.2863 38.3714 13.2857Z" fill="#59A3D4"/>
<path d="M42.3687 4.10449C42.3687 4.10449 42.3905 4.12279 42.4251 4.16305C42.4748 4.22127 42.521 4.28237 42.5635 4.34602C42.7165 4.58519 42.8389 4.84278 42.9277 5.11271C43.0598 5.51417 43.1478 5.92895 43.19 6.34965C43.2446 6.82356 43.2683 7.34505 43.2901 7.89216C43.332 8.99003 43.3193 9.97812 43.2901 10.6954C43.2756 11.0614 43.2574 11.3431 43.241 11.5426C43.2367 11.647 43.2251 11.7509 43.2064 11.8537C43.1971 11.7496 43.1971 11.6448 43.2064 11.5408C43.2064 11.323 43.2173 11.0376 43.2228 10.6936C43.2337 9.97629 43.2355 8.98637 43.1936 7.89582C43.1718 7.34688 43.1517 6.82905 43.1026 6.36062C43.0651 5.94558 42.9858 5.53543 42.8658 5.13649C42.7441 4.7728 42.577 4.42605 42.3687 4.10449Z" fill="#263238"/>
<path d="M37.8578 9.3195C37.8114 9.1288 37.7845 8.93383 37.7776 8.73763C37.7467 8.37167 37.7212 7.87397 37.723 7.32137C37.7248 6.76878 37.7558 6.26558 37.7904 5.90329C37.798 5.70741 37.8267 5.51293 37.876 5.32324C37.8864 5.51846 37.8821 5.7142 37.8632 5.90878C37.8487 6.27473 37.8304 6.76878 37.8268 7.32137C37.8232 7.87397 37.8377 8.37167 37.8505 8.73214C37.8674 8.92748 37.8698 9.12381 37.8578 9.3195Z" fill="#263238"/>
<path d="M38.5061 13.3578C38.7383 13.3403 38.9714 13.3403 39.2036 13.3578C39.6334 13.3578 40.2271 13.3834 40.8845 13.4091L41.8078 13.4493C42.0558 13.4719 42.3056 13.4614 42.5508 13.4182C42.7132 13.3858 42.8655 13.3149 42.9952 13.2114C43.0863 13.1364 43.1209 13.0779 43.1281 13.0834C43.1354 13.0889 43.1099 13.1511 43.0225 13.2407C42.8955 13.3629 42.7383 13.4489 42.5672 13.4896C42.3169 13.5451 42.0598 13.5636 41.8042 13.5445L40.879 13.5115C40.2234 13.4859 39.6297 13.4566 39.2 13.431C38.9671 13.4248 38.7351 13.4003 38.5061 13.3578Z" fill="#263238"/>
<path d="M38.619 11.5186H42.0938V10.353H38.619V11.5186Z" fill="white"/>
<path d="M39.1945 10.9241C39.5685 10.8724 39.9464 10.8553 40.3236 10.8729C40.7007 10.8554 41.0786 10.8725 41.4527 10.9241C41.0786 10.9758 40.7007 10.9929 40.3236 10.9754C39.9464 10.993 39.5685 10.9758 39.1945 10.9241Z" fill="#263238"/>
<path d="M38.4259 8.87305C38.49 8.89378 38.5512 8.92268 38.608 8.95905C38.7173 9.01943 38.8721 9.11275 39.0633 9.22986C39.4421 9.4659 39.9557 9.80807 40.5038 10.2125C41.052 10.6168 41.5309 11.0102 41.8678 11.3103C42.0372 11.4567 42.1702 11.5793 42.2612 11.6653C42.3115 11.7069 42.3561 11.7549 42.3942 11.808C42.1944 11.6727 42.0028 11.5254 41.8205 11.3671C41.4727 11.0889 40.9901 10.7083 40.4437 10.3039C39.8974 9.89956 39.3911 9.55007 39.0232 9.29939C38.8156 9.1698 38.6161 9.02741 38.4259 8.87305Z" fill="white"/>
<path d="M39.9392 9.08496C40.2555 9.23824 40.5562 9.42209 40.837 9.6339C41.1387 9.81719 41.4218 10.0299 41.682 10.2688C41.3657 10.1156 41.0651 9.93171 40.7842 9.7199C40.4825 9.53661 40.1995 9.32394 39.9392 9.08496Z" fill="white"/>
<path d="M40.1269 4.21358C39.8245 3.60306 39.6122 2.95152 39.4968 2.27949L40.0905 2.20996C40.0905 2.20996 40.4638 3.62439 40.7516 4.01962L40.1269 4.21358Z" fill="#E0E0E0"/>
<path d="M39.1616 75.0264L40.0722 82.6822L38.0125 82.7023L35.0859 75.0337L39.1616 75.0264Z" fill="#263238"/>
<path d="M8.77241 37.8018C8.76554 36.5632 9.22591 35.368 10.0609 34.4568C10.8958 33.5455 12.0433 32.9859 13.2724 32.8906C18.6047 32.468 27.2733 31.9355 31.5858 32.5137C32.373 32.6182 33.109 32.964 33.6936 33.5039C34.2782 34.0438 34.683 34.7517 34.8529 35.531L37.539 47.9279L48.8865 48.0779C48.8865 48.0779 52.4177 47.9974 53.4084 49.8876C54.4246 51.8271 54.2698 55.1574 54.0586 57.0237C53.9183 58.2643 52.1536 75.1387 52.1536 75.1387L9.06562 75.0637L8.77241 37.8018Z" fill="#455A64"/>
<path d="M29.9377 75.0924L27.0512 82.7775L24.9915 82.7574L25.902 75.0723L29.9377 75.0924Z" fill="#263238"/>
<path d="M51.7292 75.056L52.3994 82.4758L50.3397 82.4557L47.761 75.0469L51.7292 75.056Z" fill="#263238"/>
<path d="M13.7569 75.0337L10.8322 82.7444L8.77246 82.7243L9.68303 75.0264L13.7569 75.0337Z" fill="#263238"/>
<path d="M38.8776 46.445C38.2389 46.4444 37.6019 46.3788 36.9763 46.2492L37.1329 45.5356C37.1621 45.5356 40.0158 46.1577 41.2742 45.0617C41.7149 44.6774 41.9025 44.1248 41.846 43.3728C41.7076 41.5338 40.8462 40.3317 40.014 39.1643C39.1817 37.9969 38.4205 36.9392 38.4205 35.4004C38.4205 32.2641 39.81 31.4608 42.0937 30.513C42.3303 30.4064 42.5339 30.2376 42.6829 30.0244C42.8319 29.8112 42.921 29.5615 42.9405 29.3017C42.9861 28.6375 42.5472 27.9989 41.7022 27.503C41.3926 27.32 41.1066 27.1682 40.8535 27.0346C39.0324 26.0666 38.517 25.6 38.7701 21.419C38.9195 18.9378 39.3256 17.7484 39.6516 16.7914C39.9557 15.9058 40.1742 15.2654 40.0449 13.9113L40.7734 13.8418C40.9173 15.3532 40.6641 16.0924 40.3454 17.0293C40.0267 17.9661 39.6443 19.0805 39.5004 21.4629C39.2655 25.3603 39.6825 25.5781 41.1977 26.3887C41.4581 26.5259 41.744 26.6814 42.0737 26.8699C43.5524 27.7391 43.7127 28.7985 43.6708 29.3529C43.6411 29.7474 43.5049 30.1263 43.2767 30.4488C43.0485 30.7712 42.7371 31.025 42.376 31.1827C40.2598 32.061 39.1544 32.6466 39.1526 35.3912C39.1526 36.6941 39.8282 37.6364 40.6095 38.7269C41.4599 39.9145 42.4306 41.2594 42.5781 43.3014C42.651 44.2859 42.376 45.0598 41.755 45.5978C40.9937 46.2803 39.861 46.445 38.8776 46.445Z" fill="#E0E0E0"/>
<path d="M38.9504 46.195C38.3625 46.1918 37.7763 46.1305 37.2003 46.012L37.2404 45.829C37.2695 45.829 40.1123 46.4548 41.4417 45.2965C41.9517 44.8537 42.1793 44.1986 42.1137 43.346C41.9699 41.4302 41.0866 40.1951 40.2307 39.002C39.4385 37.9042 38.69 36.8502 38.69 35.3992C38.69 32.3727 40.0231 31.6682 42.1939 30.7662C42.4782 30.6405 42.7231 30.4394 42.9021 30.1844C43.0812 29.9293 43.1877 29.6301 43.2101 29.3188C43.2629 28.5448 42.7748 27.8147 41.8351 27.2639C41.5219 27.081 41.2323 26.9273 40.9792 26.7919C39.3401 25.919 38.7938 25.6263 39.0378 21.4342C39.1854 18.9896 39.5842 17.8204 39.9065 16.8799C40.2289 15.9394 40.4529 15.2971 40.3126 13.8845L40.4947 13.8662C40.635 15.3191 40.3909 16.0345 40.0814 16.9384C39.7718 17.8423 39.3675 19.0262 39.2218 21.4452C38.9759 25.5183 39.4603 25.7763 41.0648 26.629C41.3215 26.7662 41.6111 26.9199 41.9298 27.1066C43.2811 27.8989 43.4268 28.8412 43.3867 29.3316C43.3619 29.6766 43.2438 30.0082 43.0451 30.2907C42.8464 30.5732 42.5748 30.7958 42.2594 30.9345C40.0941 31.8329 38.8685 32.4843 38.8667 35.3992C38.8667 36.7917 39.5951 37.8127 40.3746 38.8959C41.2032 40.0523 42.1429 41.3643 42.2904 43.3313C42.3596 44.2462 42.1083 44.9525 41.5619 45.4356C40.8772 46.0412 39.8428 46.195 38.9504 46.195Z" fill="#59A3D4"/>
<path d="M31.0686 63.0733C31.0686 63.0952 32.2797 62.7073 33.7548 62.2151C35.2299 61.7229 36.4228 61.3002 36.4155 61.2782C36.4082 61.2563 35.2063 61.6442 33.7293 62.1346C32.2524 62.625 31.0614 63.0513 31.0686 63.0733Z" fill="#455A64"/>
<path d="M25.9002 55.6918L30.4312 55.0733C30.4312 55.0733 39.1235 53.7339 43.9076 53.1392C44.8823 53.0161 45.8686 53.0161 46.8433 53.1392C48.5989 53.4924 49.7152 56.4896 49.9483 59.1647C50.0594 60.5078 50.2415 77.5706 50.2415 77.5706L46.4171 77.5596L44.5341 67.3237L43.904 60.7566L36.583 62.6303L27.002 62.5974C25.8219 61.666 25.9002 55.6918 25.9002 55.6918Z" fill="#FFBF9D"/>
<path d="M43.9076 58.1357C43.8988 58.2178 43.8988 58.3007 43.9076 58.3828C43.9076 58.5401 43.9367 58.7688 43.9676 59.0506C44.0277 59.6124 44.1297 60.3882 44.2517 61.2464C44.3738 62.1046 44.4958 62.8749 44.5887 63.4312C44.636 63.7111 44.6761 63.9362 44.707 64.0917C44.7187 64.1731 44.7376 64.2534 44.7635 64.3314C44.7623 64.2492 44.7544 64.1672 44.7398 64.0862C44.7161 63.9142 44.6852 63.691 44.6488 63.422C44.5668 62.8475 44.4575 62.0808 44.3373 61.2263C44.2171 60.3717 44.1097 59.6142 44.0277 59.0397C43.9931 58.7707 43.964 58.5474 43.9403 58.3754C43.9365 58.2947 43.9255 58.2145 43.9076 58.1357Z" fill="#455A64"/>
<path d="M42.7748 58.8535C42.7826 58.965 42.8123 59.0738 42.8622 59.1737C42.9633 59.424 43.1028 59.6567 43.2756 59.8636C43.447 60.0712 43.6505 60.2497 43.8784 60.3924C43.969 60.4581 44.0708 60.5064 44.1789 60.5351C43.5424 60.1416 43.0498 59.5517 42.7748 58.8535Z" fill="#455A64"/>
<path d="M45.9163 74.6283L46.5027 78.0719L46.2513 79.6053L46.173 81.3491C46.1565 81.6049 46.2415 81.8569 46.4094 82.05C46.5773 82.243 46.8145 82.3614 47.069 82.3793L56.2184 82.6409C56.2818 82.6434 56.3446 82.6275 56.3991 82.595C56.4537 82.5626 56.4978 82.515 56.5262 82.4579C56.6591 82.178 56.8012 81.6583 56.2621 81.3271C55.6247 80.9282 50.2415 77.5706 50.2415 77.5706L50.165 74.416L45.9163 74.6283Z" fill="#FFBF9D"/>
<path d="M50.4472 82.7448C50.4472 82.7448 50.2869 80.0624 52.1044 78.8602L52.2556 78.7998C52.2556 78.7998 56.3313 81.1785 56.6263 81.5445C57.1399 82.1758 56.7593 82.6954 56.7593 82.6954L50.4472 82.7448Z" fill="#59A3D4"/>
<path d="M50.6876 82.1777H45.5502V82.5382H50.6876V82.1777Z" fill="#59A3D4"/>
<path d="M33.2157 47.3014C33.2157 47.3014 33.8713 50.6719 35.2317 51.2209C36.5921 51.7698 44.6615 51.6545 44.6615 51.6545L45.0112 49.2612L37.5664 47.4753L36.7997 44.0225L32.877 44.2951L33.2157 47.3014Z" fill="#FFBF9D"/>
<path d="M43.3921 49.188C43.9283 48.9979 44.4823 48.863 45.0457 48.7855C45.9016 48.6793 47.608 48.8495 47.7282 48.8769C47.8484 48.9044 49.4383 49.8541 49.4383 49.8541L50.4727 51.1861C50.4727 51.1861 50.2905 51.6784 49.8571 51.1861C49.6135 50.904 49.3513 50.6387 49.0722 50.392L47.9249 49.9419L48.9101 50.7342L49.7897 52.6353C49.7897 52.6353 49.4455 53.0178 49.1177 52.6353C48.7899 52.2529 48.2072 51.5558 48.2072 51.5558L48.7043 52.8878C48.7043 52.8878 48.4858 53.2355 48.2072 52.9738C48.0489 52.8259 47.8999 52.6682 47.761 52.5018C47.761 52.5018 47.6117 52.9281 47.3458 52.5841C47.1749 52.3669 46.9807 52.1693 46.7667 51.9949L45.674 51.5978C45.674 51.5978 44.503 51.7461 43.9748 51.5576C43.4467 51.3691 43.3921 49.188 43.3921 49.188Z" fill="#FFBF9D"/>
<path d="M36.4554 48.7105C36.5239 48.4152 36.6723 48.1447 36.884 47.9287C37.0958 47.7127 37.3628 47.5596 37.6556 47.4863C37.1279 47.7444 36.7043 48.1765 36.4554 48.7105Z" fill="#FF9A6C"/>
<path d="M44.1716 49.9078C44.3024 50.1498 44.497 50.351 44.7341 50.4891C44.9712 50.6273 45.2416 50.6971 45.5156 50.691C45.8179 50.68 46.1202 50.5757 46.4171 50.6379C46.8287 50.7239 47.1073 51.1045 47.477 51.3058C47.6464 51.3973 47.8958 51.4302 47.9997 51.2655C48.0248 51.2074 48.0366 51.1442 48.0341 51.0809C48.0315 51.0175 48.0148 50.9555 47.9851 50.8996C47.842 50.5363 47.6209 50.2093 47.3376 49.9417C47.0543 49.6742 46.7157 49.4726 46.3461 49.3516" fill="#FFBF9D"/>
<path d="M46.3515 49.3438C46.3515 49.3438 46.377 49.3438 46.4225 49.3584C46.4888 49.377 46.5539 49.3996 46.6174 49.4261C46.8539 49.5253 47.0738 49.6604 47.2694 49.8268C47.5628 50.0729 47.7995 50.38 47.9632 50.7271C48.0139 50.8281 48.0518 50.935 48.0761 51.0455C48.0867 51.1065 48.0829 51.1691 48.0652 51.2284C48.0414 51.2935 47.9948 51.3475 47.9341 51.3803C47.8739 51.4061 47.8092 51.4194 47.7438 51.4194C47.6783 51.4194 47.6136 51.4061 47.5534 51.3803C47.4374 51.3348 47.3283 51.2732 47.2293 51.1973C47.0498 51.044 46.8599 50.9034 46.6611 50.7765C46.475 50.6762 46.2615 50.6395 46.0528 50.6722C45.8534 50.7048 45.652 50.7243 45.45 50.7307C45.2703 50.7243 45.0932 50.6853 44.9274 50.6155C44.6877 50.5174 44.4784 50.357 44.3209 50.1507C44.2773 50.0937 44.2394 50.0324 44.208 49.9677C44.1862 49.9238 44.1771 49.9018 44.1807 49.9C44.1844 49.8982 44.2335 49.9842 44.3483 50.1196C44.512 50.3094 44.7196 50.4558 44.9529 50.5459C45.1121 50.6081 45.2811 50.6409 45.4519 50.6429C45.6504 50.6347 45.8482 50.6127 46.0437 50.577C46.155 50.5633 46.2675 50.5633 46.3788 50.577C46.4962 50.596 46.6096 50.635 46.7139 50.6923C46.9178 50.8197 47.112 50.9622 47.2949 51.1186C47.3857 51.193 47.4862 51.2545 47.5935 51.3016C47.642 51.322 47.694 51.3324 47.7465 51.3324C47.799 51.3324 47.851 51.322 47.8995 51.3016C47.94 51.277 47.9714 51.2397 47.9889 51.1954C48.0063 51.1511 48.0088 51.1023 47.996 51.0564C47.9741 50.9538 47.9398 50.8543 47.894 50.76C47.7378 50.422 47.5133 50.1204 47.2348 49.8744C46.97 49.6519 46.6719 49.4728 46.3515 49.3438Z" fill="#FF9A6C"/>
<path d="M35.5576 46.1361L37.1074 45.4023L37.3223 46.3721L35.8108 47.1095L35.5576 46.1361Z" fill="#E0E0E0"/>
<path d="M21.0122 55.6527L24.5743 54.5146C24.5743 54.5146 33.7128 53.5869 38.4933 52.9922C39.3574 52.8737 40.2348 52.8953 41.092 53.0563C42.8476 53.4094 43.4376 55.5283 43.74 56.8439C44.0423 58.1595 44.5431 77.8957 44.5431 77.8957L40.4473 78.1701L38.3658 70.2417C37.8356 68.4267 37.4992 66.5601 37.3623 64.6736L37.1383 61.5483L31.023 62.7413L22.3671 62.6755C21.1834 61.7386 21.0122 55.6527 21.0122 55.6527Z" fill="#FFBF9D"/>
<path d="M36.7068 58.4473C36.7004 58.5289 36.7004 58.6109 36.7068 58.6925C36.7177 58.8516 36.7377 59.0804 36.7669 59.3622C36.8288 59.9239 36.929 60.6997 37.051 61.5579C37.173 62.4161 37.295 63.1846 37.3897 63.7427C37.4352 64.0226 37.4771 64.2477 37.5063 64.4032C37.5182 64.4846 37.5371 64.5648 37.5627 64.6429C37.564 64.5606 37.5561 64.4783 37.539 64.3977C37.5154 64.2257 37.4862 64.0025 37.4498 63.7335C37.3679 63.159 37.2586 62.3923 37.1366 61.5378C37.0146 60.6833 36.9089 59.9257 36.8288 59.3512C36.7924 59.0822 36.7632 58.859 36.7414 58.687C36.7365 58.6062 36.7249 58.5261 36.7068 58.4473Z" fill="#455A64"/>
<path d="M35.5703 59.1641C35.5804 59.2752 35.61 59.3836 35.6577 59.4843C35.8613 59.9878 36.2174 60.4142 36.6757 60.7029C36.7658 60.7684 36.867 60.8168 36.9744 60.8456C36.339 60.4509 35.8468 59.8613 35.5703 59.1641Z" fill="#455A64"/>
<path d="M39.6934 74.5404L40.4892 78.361L40.3672 80.2494L40.287 81.3472C40.2705 81.6031 40.3555 81.8551 40.5234 82.0481C40.6913 82.2412 40.9285 82.3596 41.183 82.3774L50.3106 82.5732C50.3919 82.5597 50.4692 82.5285 50.5372 82.4817C50.6052 82.4349 50.6621 82.3737 50.7039 82.3024C50.8369 82.0206 50.9134 81.651 50.3761 81.3198C49.7387 80.9264 44.5485 77.8871 44.5485 77.8871L44.3773 74.3867L39.6934 74.5404Z" fill="#FFBF9D"/>
<path d="M44.5431 82.7028C44.5431 82.7028 44.29 80.0075 46.1075 78.8054L46.2587 78.7432C46.2587 78.7432 50.3362 81.1219 50.6294 81.4878C50.7767 81.6571 50.8716 81.8659 50.9023 82.0886C50.9331 82.3113 50.8983 82.5381 50.8024 82.7413L44.5431 82.7028Z" fill="#59A3D4"/>
<path d="M44.6906 82.123H39.5532V82.7452H44.6906V82.123Z" fill="#59A3D4"/>
<path d="M50.7604 82.6427C50.7604 82.6427 50.7768 82.553 50.795 82.3957C50.8219 82.1746 50.7872 81.9504 50.6948 81.7479C50.6291 81.6109 50.5325 81.4912 50.4126 81.3984C50.2833 81.2996 50.1266 81.2063 49.9682 81.1038L48.9247 80.4506L47.0307 79.2594L46.4607 78.8935C46.388 78.8525 46.3202 78.8034 46.2585 78.7471C46.3354 78.7785 46.4092 78.817 46.4789 78.8623L47.0653 79.2045C47.557 79.4991 48.2327 79.9108 48.9739 80.3738C49.3381 80.6043 49.7023 80.8275 50.0155 81.0343C50.174 81.1386 50.3251 81.2338 50.4617 81.3417C50.5876 81.4443 50.6886 81.5745 50.7567 81.7223C50.8481 81.9374 50.8741 82.1749 50.8314 82.4048C50.821 82.4669 50.8058 82.5281 50.7859 82.5878C50.7731 82.6226 50.764 82.6427 50.7604 82.6427Z" fill="#263238"/>
<path d="M35.8928 53.0653L33.5545 49.6619C34.0261 47.1002 34.5197 46.0646 34.7783 44.7929C35.4758 41.2394 34.0498 37.3072 34.0498 37.3072L33.3469 33.9788L30.3875 33.0639L26.31 32.9688L22.3982 33.6714L21.209 47.8321C20.4387 52.295 21.0415 54.9683 21.0105 55.6435L35.8928 53.0653Z" fill="#59A3D4"/>
<path d="M22.0011 62.7173L36.4099 62.7283L36.3225 64.5325C36.3225 64.5325 38.3039 65.8134 41.4836 65.4017C43.8274 65.1034 46.9197 64.1501 48.3857 63.667C48.9377 63.4865 49.5346 63.5007 50.0775 63.7073L50.9389 64.0348L49.9027 57.0176C49.9027 57.0176 49.1069 52.5309 45.3499 52.6791C41.5929 52.8273 41.5 53.1494 41.5 53.1494C40.79 52.7421 39.9825 52.5383 39.1653 52.5602C37.8013 52.5968 20.9758 53.7532 20.9758 53.7532C20.8993 57.3542 20.8793 60.5106 22.0011 62.7173Z" fill="#59A3D4"/>
<path d="M36.2333 52.9995C36.2333 53.0251 34.4959 53.3838 32.3434 53.7991C30.1908 54.2145 28.4425 54.531 28.437 54.5073C28.4316 54.4835 30.1726 54.123 32.327 53.7058C34.4814 53.2886 36.2278 52.9739 36.2333 52.9995Z" fill="#263238"/>
<path d="M44.9875 63.0839C44.9737 63.0493 44.9645 63.013 44.9602 62.976C44.9456 62.8937 44.9256 62.793 44.9001 62.6594C44.8509 62.374 44.7817 61.9788 44.6979 61.4975C44.5322 60.5039 44.3082 59.1517 44.0624 57.655C43.965 56.9492 43.8053 56.2536 43.5852 55.5763C43.4015 55.026 43.1167 54.5153 42.7457 54.0704C42.4952 53.7715 42.1936 53.5199 41.8551 53.3275C41.6129 53.1939 41.4654 53.1445 41.4691 53.1445C41.5061 53.1501 41.5422 53.1605 41.5765 53.1756C41.6782 53.2092 41.7769 53.2514 41.8715 53.3019C42.2231 53.4851 42.537 53.7334 42.7967 54.0338C43.181 54.48 43.4765 54.9962 43.6672 55.5544C43.8945 56.2347 44.0579 56.9349 44.1552 57.6458C44.392 59.1426 44.6051 60.4966 44.7635 61.4884C44.8345 61.9733 44.8946 62.3685 44.9365 62.6558C44.9547 62.7857 44.9675 62.8918 44.9802 62.9742C44.9865 63.0104 44.989 63.0472 44.9875 63.0839Z" fill="#263238"/>
<path d="M33.3487 33.9795C33.3487 33.9795 34.7892 34.146 35.8109 36.1624C36.8325 38.1789 38.2366 43.9024 38.2366 43.9024L33.0664 44.3196L33.3487 33.9795Z" fill="#59A3D4"/>
<path d="M34.4175 45.6458C34.5268 45.2728 34.6126 44.8933 34.6743 44.5095C34.7289 44.0916 34.7521 43.6702 34.7435 43.2488C34.73 42.7322 34.6893 42.2167 34.6215 41.7044C34.474 40.6066 34.2573 39.6368 34.1025 38.9305C34.0278 38.5883 33.9659 38.3065 33.9204 38.0924C33.893 37.9912 33.8747 37.8877 33.8657 37.7832C33.903 37.8808 33.9328 37.9811 33.955 38.0833C34.0078 38.2791 34.0806 38.5627 34.1662 38.914C34.3977 39.8294 34.5801 40.7566 34.7125 41.6916C34.7809 42.2074 34.8192 42.7267 34.8273 43.247C34.8336 43.6757 34.8032 44.1043 34.7362 44.5278C34.7217 44.6156 34.7071 44.7016 34.6943 44.7822C34.6816 44.8627 34.6543 44.9359 34.6379 45.0072C34.6107 45.1278 34.5754 45.2464 34.5323 45.3622C34.5012 45.4595 34.4628 45.5543 34.4175 45.6458Z" fill="#263238"/>
<path d="M35.5503 60.9756C35.9415 61.6257 36.2766 62.3083 36.5519 63.0158C36.3435 62.698 36.1608 62.3639 36.0056 62.0167C35.8251 61.6831 35.6728 61.3348 35.5503 60.9756Z" fill="#263238"/>
<path opacity="0.3" d="M33.0663 62.7176C33.0663 62.7176 32.8387 56.1011 32.1357 53.9932C31.4328 51.8852 27.8834 50.6318 27.8834 50.6318L26.3937 51.3802L30.229 62.703L33.0663 62.7176Z" fill="black"/>
<path opacity="0.3" d="M41.9954 53.3857C42.4602 53.3853 42.915 53.5218 43.3035 53.7784C43.6919 54.035 43.9969 54.4004 44.1807 54.8295C44.8491 56.3372 46.4972 64.2584 46.4972 64.2584L45.0203 64.6701L43.9604 56.9941C43.913 56.2854 43.7127 55.5956 43.3734 54.9725C43.0341 54.3494 42.5638 53.8079 41.9954 53.3857Z" fill="black"/>
<path opacity="0.3" d="M22.0757 47.1096L22.6458 44.826H23.4197L24.2447 39.4775L22.3416 43.2945L21.5039 47.1096H22.0757Z" fill="black"/>
<path d="M22.5803 33.6553C22.5803 33.6553 20.0307 33.8547 18.9526 36.6634C18.042 39.0532 16.4321 42.6304 16.4321 42.6304L22.8498 44.3394C22.8498 44.3394 24.1883 40.0101 24.6709 37.4393C25.1098 35.1996 22.8207 33.8913 22.5803 33.6553Z" fill="#59A3D4"/>
<path d="M17.5702 42.9268C17.5702 42.9268 16.3974 46.5607 16.4776 48.5863C16.4776 48.6064 16.4776 48.6266 16.4776 48.6467C16.5127 49.3625 16.8212 50.0372 17.3388 50.5303C17.8564 51.0235 18.5433 51.2971 19.2566 51.2944H30.3801L29.8884 48.5973L21.6241 46.9267L22.2105 44.16L17.5702 42.9268Z" fill="#FFBF9D"/>
<path d="M20.2546 47.8912C20.388 47.6121 20.5936 47.3741 20.8499 47.2022C21.1063 47.0303 21.4038 46.9308 21.7115 46.9141C21.4301 47.0059 21.1595 47.1287 20.9048 47.28C20.6661 47.4588 20.448 47.6637 20.2546 47.8912Z" fill="#FF9A6C"/>
<path d="M29.883 48.5977C30.557 48.7337 31.2154 48.9385 31.848 49.2088C32.8041 49.6333 34.4741 50.8812 34.5797 50.9837C34.6853 51.0862 35.7525 53.0733 35.7525 53.0733L36.002 55.1062C36.002 55.1062 35.2408 55.4136 35.0915 54.6232C34.9421 53.8327 34.8201 53.3533 34.8201 53.3533L34.1208 52.2097L34.485 53.4503L34.4067 55.7961C34.4067 55.7961 33.8112 55.979 33.7056 55.3752C33.5999 54.7714 33.4269 54.0742 33.4269 54.0742L33.1173 55.7704C33.1173 55.7704 32.6748 55.9955 32.5473 55.549C32.4715 55.2955 32.4107 55.0376 32.3652 54.7769C32.3652 54.7769 31.9464 55.1282 31.8826 54.603C31.8392 54.2703 31.7598 53.9432 31.6459 53.6277L30.7481 52.5299C30.7481 52.5299 29.4368 51.9517 29.0034 51.432C28.57 50.9123 29.883 48.5977 29.883 48.5977Z" fill="#FFBF9D"/>
<path d="M31.4346 51.8877C31.5764 51.9724 31.7073 52.0744 31.8243 52.1914C31.9584 52.3115 32.0844 52.4405 32.2013 52.5775C32.3503 52.7465 32.4642 52.9437 32.5364 53.1576C32.6277 53.5525 32.6401 53.9618 32.5728 54.3616C32.5507 54.4823 32.5153 54.6001 32.4672 54.7129C32.4326 54.7916 32.4052 54.8318 32.3998 54.83C32.3943 54.8282 32.4672 54.647 32.5054 54.3524C32.5514 53.9627 32.5311 53.5679 32.4453 53.185C32.3759 52.9844 32.2703 52.7983 32.1339 52.6361C32.0101 52.4824 31.8844 52.3525 31.7788 52.2445C31.6562 52.1335 31.5412 52.0143 31.4346 51.8877Z" fill="#FF9A6C"/>
<path d="M32.6056 51.6113C32.7087 51.6994 32.7988 51.8016 32.8733 51.9151C33.0707 52.1761 33.233 52.4622 33.3559 52.7659C33.423 52.9345 33.4713 53.11 33.4998 53.2892C33.5227 53.4363 33.5282 53.5855 33.5162 53.7339C33.5112 53.8705 33.4777 54.0045 33.4178 54.1273C33.3996 54.1273 33.4415 53.9736 33.4488 53.7302C33.4512 53.5873 33.4396 53.4445 33.4142 53.3039C33.3806 53.1321 33.3318 52.9637 33.2685 52.8007C33.1462 52.5043 32.9955 52.2206 32.8187 51.9535C32.7375 51.8461 32.6662 51.7316 32.6056 51.6113Z" fill="#FF9A6C"/>
<path d="M16.4321 42.6209C16.4757 42.627 16.5188 42.6356 16.5614 42.6465L16.9257 42.7344L18.3006 43.0729L23.0192 44.2677L22.9627 44.3025C23.1102 43.5706 23.3087 42.8167 23.5091 42.0281C23.815 40.8021 24.1228 39.6365 24.3668 38.5698C24.4814 38.0674 24.5388 37.5536 24.538 37.0382C24.5357 36.5895 24.4568 36.1446 24.3049 35.7226C24.079 35.1088 23.638 34.5987 23.0647 34.2881C22.8513 34.1827 22.6237 34.1093 22.3891 34.0703H22.4364C22.4674 34.0703 22.5147 34.0703 22.5748 34.0868C22.7502 34.1194 22.9205 34.1754 23.0811 34.2533C23.6734 34.5572 24.1317 35.0719 24.3668 35.697C24.528 36.1245 24.6125 36.5774 24.6163 37.0346C24.6205 37.557 24.5656 38.0782 24.4524 38.5881C24.212 39.6585 23.9061 40.8222 23.6001 42.05C23.4053 42.8368 23.2049 43.6017 23.0538 44.319V44.3665L23.0064 44.3537L18.3024 43.1259L16.9348 42.76L16.5705 42.6575C16.5234 42.6497 16.477 42.6374 16.4321 42.6209Z" fill="#263238"/>
<path d="M24.9477 28.2662C23.2996 27.5819 21.9101 28.4894 20.8174 29.8142C22.3653 30.4418 24.3395 30.235 24.9477 28.2662Z" fill="#59A3D4"/>
<path d="M25.1499 28.3486C23.4653 28.936 23.0264 30.5444 23.0811 32.2607C24.6545 31.699 25.9949 30.2278 25.1499 28.3486Z" fill="#59A3D4"/>
<path d="M33.7857 25.1419C33.7857 25.1419 34.5415 20.4905 30.1781 19.4366C27.9071 18.8876 26.2244 19.669 25.2118 20.7943C24.1191 22.0038 23.6948 23.431 23.6948 25.0851C23.7013 25.9517 23.8779 26.8084 24.2145 27.6062C24.551 28.4041 25.041 29.1274 25.6562 29.7346L33.7857 25.1419Z" fill="#59A3D4"/>
<path d="M30.8646 33.9007C30.9229 32.9529 30.943 32.565 30.943 32.5741C30.943 32.5833 33.1101 32.1533 33.6528 29.5641C33.9223 28.2833 33.804 26.3345 33.7803 24.5889C33.7602 23.019 32.4199 20.8873 30.4895 20.8891L29.6317 20.7939L26.3537 22.1205C26.1248 22.1324 25.9089 22.2306 25.7489 22.3954C25.5889 22.5603 25.4966 22.7797 25.4905 23.0098L25.5178 33.3609L26.5522 34.0691C27.9435 35.2438 30.3602 35.0645 30.8646 33.9007Z" fill="#FFBF9D"/>
<path d="M32.6802 26.4767C32.6764 26.5641 32.639 26.6466 32.5757 26.7067C32.5125 26.7668 32.4285 26.7998 32.3415 26.7988C32.299 26.8 32.2567 26.7927 32.2171 26.7772C32.1775 26.7618 32.1414 26.7386 32.1109 26.7089C32.0803 26.6792 32.056 26.6437 32.0393 26.6045C32.0226 26.5653 32.0139 26.5231 32.0137 26.4804C32.017 26.3932 32.0541 26.3107 32.117 26.2506C32.1799 26.1904 32.2637 26.1573 32.3506 26.1583C32.3931 26.1571 32.4355 26.1644 32.4752 26.1798C32.5149 26.1952 32.5511 26.2184 32.5818 26.2481C32.6125 26.2777 32.637 26.3132 32.6539 26.3525C32.6708 26.3917 32.6797 26.434 32.6802 26.4767Z" fill="#263238"/>
<path d="M29.2984 26.4094C29.2951 26.4966 29.258 26.5791 29.1951 26.6392C29.1321 26.6994 29.0483 26.7325 28.9615 26.7314C28.9188 26.7324 28.8764 26.7249 28.8367 26.7093C28.797 26.6936 28.7608 26.6703 28.7301 26.6405C28.6994 26.6107 28.675 26.5751 28.6581 26.5357C28.6412 26.4964 28.6323 26.4541 28.6318 26.4112C28.6361 26.3242 28.6737 26.2422 28.7369 26.1825C28.8001 26.1227 28.8838 26.09 28.9706 26.091C29.0131 26.0895 29.0555 26.0967 29.0952 26.112C29.1349 26.1274 29.1711 26.1506 29.2017 26.1803C29.2323 26.21 29.2566 26.2456 29.2732 26.285C29.2899 26.3243 29.2984 26.3666 29.2984 26.4094Z" fill="#263238"/>
<path d="M33.2558 25.4707C33.2121 25.5128 32.9699 25.3116 32.6111 25.2878C32.2523 25.264 31.981 25.4378 31.9446 25.3902C31.9081 25.3427 31.9719 25.2933 32.0902 25.2073C32.2508 25.1065 32.4386 25.0586 32.6275 25.07C32.8137 25.0784 32.9924 25.1464 33.1374 25.264C33.2448 25.3719 33.2776 25.4525 33.2558 25.4707Z" fill="#263238"/>
<path d="M29.6244 25.4211C29.5826 25.4668 29.3276 25.282 28.9688 25.2893C28.6101 25.2966 28.3497 25.4723 28.3096 25.4394C28.2695 25.4064 28.3314 25.3405 28.4443 25.2564C28.5967 25.1422 28.7806 25.0783 28.9707 25.0734C29.1572 25.0699 29.3401 25.1256 29.4933 25.2326C29.6044 25.3277 29.6445 25.4046 29.6244 25.4211Z" fill="#263238"/>
<path d="M30.8974 28.2886C31.0896 28.2393 31.2872 28.2141 31.4856 28.2136C31.5767 28.2136 31.6677 28.1935 31.6823 28.1331C31.6957 28.0383 31.6791 27.9416 31.6349 27.8568L31.4 27.1432C31.074 26.1276 30.8427 25.2932 30.8828 25.2804C30.9229 25.2676 31.2215 26.08 31.5475 27.0974C31.6258 27.3463 31.7005 27.586 31.7715 27.8147C31.8247 27.9292 31.8351 28.0591 31.8007 28.1806C31.7861 28.2127 31.7644 28.2409 31.7373 28.2631C31.7101 28.2853 31.6782 28.3009 31.644 28.3087C31.5926 28.3197 31.54 28.324 31.4874 28.3215C31.2902 28.3371 31.0917 28.326 30.8974 28.2886Z" fill="#263238"/>
<path d="M30.9375 32.5578C29.7128 32.5189 28.5231 32.1388 27.501 31.46C27.501 31.46 28.2841 33.3099 30.8974 33.1964L30.9375 32.5578Z" fill="#FF9A6C"/>
<path d="M30.7026 29.1501C30.6389 29.0602 30.5535 28.9882 30.4544 28.9408C30.3552 28.8934 30.2457 28.8722 30.1362 28.8793C30.0566 28.8825 29.9785 28.9018 29.9065 28.9361C29.8345 28.9703 29.7702 29.0188 29.7173 29.0787C29.6655 29.1355 29.6328 29.2073 29.624 29.2839C29.6152 29.3604 29.6306 29.4378 29.6682 29.505C29.7219 29.5731 29.7947 29.6232 29.8772 29.649C29.9598 29.6748 30.0481 29.675 30.1307 29.6496C30.3038 29.598 30.4648 29.5122 30.6042 29.3971C30.6455 29.3699 30.6818 29.3359 30.7117 29.2964C30.7245 29.2762 30.7313 29.2527 30.7313 29.2287C30.7313 29.2048 30.7245 29.1813 30.7117 29.161" fill="#FF9A6C"/>
<path d="M29.8301 28.4844C29.8884 28.4844 29.8702 28.876 30.1944 29.1706C30.5185 29.4652 30.9228 29.4414 30.9228 29.4963C30.9228 29.5219 30.8263 29.5676 30.6515 29.564C30.4233 29.5557 30.2054 29.467 30.0359 29.3133C29.8731 29.166 29.7743 28.9603 29.7609 28.7406C29.7555 28.5759 29.8028 28.4826 29.8301 28.4844Z" fill="#263238"/>
<path d="M29.7554 24.4641C29.7026 24.5519 29.4167 24.433 29.0543 24.3964C28.6919 24.3598 28.3823 24.3964 28.3568 24.3067C28.3459 24.261 28.4169 24.1823 28.5535 24.1238C28.725 24.0478 28.9137 24.0194 29.0998 24.0414C29.286 24.0594 29.4634 24.1298 29.6116 24.2445C29.7318 24.3232 29.7791 24.422 29.7554 24.4641Z" fill="#263238"/>
<path d="M33.2048 24.5198C33.1374 24.5984 32.8952 24.5015 32.5984 24.4813C32.3015 24.4612 32.052 24.5088 31.9938 24.4209C31.9701 24.3789 32.0138 24.2983 32.1285 24.227C32.2803 24.1413 32.4541 24.1031 32.6276 24.1171C32.8012 24.1311 32.9666 24.1968 33.1028 24.3057C33.2048 24.3953 33.234 24.4813 33.2048 24.5198Z" fill="#263238"/>
<path d="M25.7581 26.973C25.7581 26.973 26.1551 24.2283 27.8615 22.4681C29.1836 21.0976 31.3398 20.8341 32.8259 22.4278C33.0754 22.695 33.4214 22.9182 33.7856 24.1131C33.7856 24.1131 33.538 20.4059 30.2508 19.9979C27.1549 19.6136 25.5614 21.6831 25.0551 23.1854C24.5634 24.6492 24.6909 26.973 24.6909 26.973H25.7581Z" fill="#59A3D4"/>
<path d="M26.0423 26.7319C26.0423 26.5379 25.6999 26.494 25.5105 26.4537C25.0042 26.3476 24.0827 26.3421 24.0099 27.6431C23.9097 29.4217 25.7072 29.1564 25.7127 29.1069C25.7181 29.0575 26.0204 27.4034 26.0423 26.7319Z" fill="#FFBF9D"/>
<path d="M25.2099 28.4003C25.2099 28.4003 25.179 28.4204 25.1243 28.4424C25.0501 28.4722 24.9673 28.4722 24.893 28.4424C24.7109 28.3637 24.5707 28.0563 24.5798 27.7342C24.5838 27.5819 24.6217 27.4325 24.6909 27.2969C24.7111 27.2425 24.744 27.1937 24.7868 27.1545C24.8295 27.1154 24.8809 27.0871 24.9367 27.0718C24.9734 27.063 25.012 27.0678 25.0455 27.0853C25.0789 27.1027 25.105 27.1318 25.1189 27.167C25.1407 27.2182 25.1189 27.253 25.1352 27.2567C25.1516 27.2603 25.1753 27.2292 25.1662 27.1542C25.1586 27.1096 25.1361 27.069 25.1025 27.0389C25.0559 26.9993 24.9958 26.9796 24.9349 26.984C24.8612 26.9942 24.7912 27.0232 24.7319 27.0684C24.6726 27.1136 24.6258 27.1734 24.5962 27.242C24.5122 27.3914 24.466 27.5591 24.4614 27.7306C24.4614 28.0965 24.6162 28.435 24.8675 28.5247C24.9145 28.5413 24.9645 28.5471 25.014 28.5417C25.0635 28.5363 25.1111 28.5199 25.1535 28.4936C25.2044 28.4442 25.2154 28.4039 25.2099 28.4003Z" fill="#FF9A6C"/>
<path d="M28.1201 21.0771C28.1311 21.0936 27.8306 21.2894 27.4081 21.681C27.1611 21.911 26.9311 22.1587 26.7197 22.422C26.4644 22.7465 26.2355 23.091 26.0349 23.4522C25.8402 23.8163 25.6751 24.1957 25.5414 24.5867C25.4342 24.907 25.3508 25.2348 25.2919 25.5675C25.1899 26.1365 25.1881 26.497 25.1681 26.4952C25.1598 26.4112 25.1598 26.3266 25.1681 26.2426C25.1681 26.1436 25.1736 26.0447 25.1845 25.9462C25.1931 25.8156 25.2083 25.6855 25.23 25.5565C25.2823 25.2184 25.3609 24.885 25.4649 24.5592C25.7209 23.7578 26.1263 23.0126 26.6596 22.3635C26.8766 22.101 27.1141 21.8562 27.3698 21.6316C27.4754 21.5309 27.5829 21.4486 27.6721 21.3827C27.7484 21.3168 27.8287 21.2557 27.9125 21.1997C27.9778 21.1525 28.0473 21.1115 28.1201 21.0771Z" fill="#263238"/>
<path d="M32.5001 21.0513C32.2383 20.868 31.9652 20.7018 31.6824 20.5536C30.9912 20.2064 30.2204 20.0504 29.4493 20.1019C28.6782 20.1534 27.9347 20.4103 27.2953 20.8464C27.0344 21.031 26.7851 21.2314 26.5486 21.4465C26.5975 21.3745 26.6543 21.3082 26.718 21.2489C26.8857 21.0794 27.0686 20.9257 27.2643 20.7896C27.9061 20.3317 28.662 20.0618 29.4475 20.0101C30.2331 19.9584 31.0175 20.1269 31.7133 20.4969C31.9233 20.6061 32.1227 20.7347 32.3088 20.8811C32.3788 20.9304 32.443 20.9875 32.5001 21.0513Z" fill="#263238"/>
<path d="M10.324 37.0007C10.324 37.0007 11.4513 36.4518 11.719 37.987C11.9867 39.5222 13.8388 50.7955 13.8388 50.7955L25.3465 50.704C25.3465 50.704 29.3694 50.2758 31.0194 54.4496C32.174 57.3681 31.7606 67.6534 31.7606 67.6534L31.542 74.8426H10.7338C10.7338 74.8426 10.0909 59.7725 9.98527 53.0681C9.87964 46.3637 9.64836 39.0611 10.324 37.0007Z" fill="#455A64"/>
<path d="M31.8752 75.0838C31.8479 75.0838 31.8279 71.7499 31.8279 67.6402C31.8279 63.5305 31.8479 60.1875 31.8752 60.1875C31.9025 60.1875 31.9226 63.5195 31.9226 67.6329C31.9226 71.7463 31.9007 75.0838 31.8752 75.0838Z" fill="#263238"/>
<path d="M24.7456 75.0839C24.7183 75.0839 24.6982 70.0977 24.6982 63.9496C24.6982 57.8015 24.7183 52.8135 24.7456 52.8135C24.7729 52.8135 24.7929 57.7978 24.7929 63.9496C24.7929 70.1013 24.7711 75.0839 24.7456 75.0839Z" fill="#263238"/>
</svg>
