<svg width="24" height="25" viewBox="0 0 24 25" fill="none" xmlns="http://www.w3.org/2000/svg">
<g id="mingcute:time-line">
<path id="Vector" d="M8.1057 4.14111C8.27279 4.14111 8.43303 4.20749 8.55118 4.32564C8.66933 4.44378 8.7357 4.60403 8.7357 4.77111V5.94921H15.501V4.77921C15.501 4.61213 15.5674 4.45188 15.6855 4.33374C15.8037 4.21559 15.9639 4.14921 16.131 4.14921C16.2981 4.14921 16.4583 4.21559 16.5765 4.33374C16.6946 4.45188 16.761 4.61213 16.761 4.77921V5.94921H19.2C19.6772 5.94921 20.1349 6.13873 20.4725 6.4761C20.81 6.81347 20.9998 7.27108 21 7.74831V20.342C20.9998 20.8192 20.81 21.2769 20.4725 21.6142C20.1349 21.9516 19.6772 22.1411 19.2 22.1411H4.8C4.32277 22.1411 3.86507 21.9516 3.52753 21.6142C3.18999 21.2769 3.00024 20.8192 3 20.342V7.74831C3.00024 7.27108 3.18999 6.81347 3.52753 6.4761C3.86507 6.13873 4.32277 5.94921 4.8 5.94921H7.4757V4.77021C7.47594 4.60328 7.54242 4.44327 7.66054 4.32532C7.77866 4.20736 7.93877 4.14111 8.1057 4.14111ZM4.26 11.1089V20.342C4.26 20.4129 4.27397 20.4831 4.30111 20.5487C4.32824 20.6142 4.36802 20.6737 4.41816 20.7239C4.46831 20.774 4.52784 20.8138 4.59335 20.8409C4.65887 20.868 4.72909 20.882 4.8 20.882H19.2C19.2709 20.882 19.3411 20.868 19.4066 20.8409C19.4722 20.8138 19.5317 20.774 19.5818 20.7239C19.632 20.6737 19.6718 20.6142 19.6989 20.5487C19.726 20.4831 19.74 20.4129 19.74 20.342V11.1215L4.26 11.1089ZM9.0003 17.2982V18.7976H7.5V17.2982H9.0003ZM12.7497 17.2982V18.7976H11.2503V17.2982H12.7497ZM16.5 17.2982V18.7976H14.9997V17.2982H16.5ZM9.0003 13.7189V15.2183H7.5V13.7189H9.0003ZM12.7497 13.7189V15.2183H11.2503V13.7189H12.7497ZM16.5 13.7189V15.2183H14.9997V13.7189H16.5ZM7.4757 7.20831H4.8C4.72909 7.20831 4.65887 7.22228 4.59335 7.24942C4.52784 7.27656 4.46831 7.31633 4.41816 7.36648C4.36802 7.41662 4.32824 7.47615 4.30111 7.54166C4.27397 7.60718 4.26 7.6774 4.26 7.74831V9.84981L19.74 9.86241V7.74831C19.74 7.6774 19.726 7.60718 19.6989 7.54166C19.6718 7.47615 19.632 7.41662 19.5818 7.36648C19.5317 7.31633 19.4722 7.27656 19.4066 7.24942C19.3411 7.22228 19.2709 7.20831 19.2 7.20831H16.761V8.04441C16.761 8.2115 16.6946 8.37174 16.5765 8.48989C16.4583 8.60804 16.2981 8.67441 16.131 8.67441C15.9639 8.67441 15.8037 8.60804 15.6855 8.48989C15.5674 8.37174 15.501 8.2115 15.501 8.04441V7.20831H8.7357V8.03631C8.7357 8.2034 8.66933 8.36364 8.55118 8.48179C8.43303 8.59994 8.27279 8.66631 8.1057 8.66631C7.93861 8.66631 7.77837 8.59994 7.66022 8.48179C7.54207 8.36364 7.4757 8.2034 7.4757 8.03631V7.20831Z" fill="#B6B6B6"/>
</g>
</svg>
