<svg width="24" height="25" viewBox="0 0 24 25" fill="none" xmlns="http://www.w3.org/2000/svg">
<g id="mingcute:time-line">
<g id="Group">
<path id="Vector" d="M12 3.23193C16.9707 3.23193 21 7.26123 21 12.2319C21 17.2026 16.9707 21.2319 12 21.2319C7.0293 21.2319 3 17.2026 3 12.2319C3 7.26123 7.0293 3.23193 12 3.23193ZM12 5.03193C10.0904 5.03193 8.25909 5.7905 6.90883 7.14076C5.55857 8.49103 4.8 10.3224 4.8 12.2319C4.8 14.1415 5.55857 15.9728 6.90883 17.3231C8.25909 18.6734 10.0904 19.4319 12 19.4319C13.9096 19.4319 15.7409 18.6734 17.0912 17.3231C18.4414 15.9728 19.2 14.1415 19.2 12.2319C19.2 10.3224 18.4414 8.49103 17.0912 7.14076C15.7409 5.7905 13.9096 5.03193 12 5.03193ZM12 6.83193C12.2204 6.83196 12.4332 6.91289 12.5979 7.05938C12.7627 7.20586 12.8679 7.40771 12.8937 7.62663L12.9 7.73193V11.8593L15.3363 14.2956C15.4977 14.4576 15.5914 14.6749 15.5984 14.9035C15.6054 15.132 15.5251 15.3547 15.3739 15.5262C15.2226 15.6977 15.0118 15.8052 14.7842 15.8269C14.5565 15.8486 14.3292 15.7828 14.1483 15.6429L14.0637 15.5682L11.3637 12.8682C11.2238 12.7282 11.134 12.546 11.1081 12.3498L11.1 12.2319V7.73193C11.1 7.49324 11.1948 7.26432 11.3636 7.09554C11.5324 6.92675 11.7613 6.83193 12 6.83193Z" fill="#B6B6B6"/>
</g>
</g>
</svg>
