<svg width="32" height="32" viewBox="0 0 32 32" fill="none" xmlns="http://www.w3.org/2000/svg">
<path d="M4 14.667V21.067C4 22.5603 4 23.307 4.29067 23.8777C4.54633 24.3794 4.95426 24.7873 5.456 25.043C6.02533 25.3337 6.772 25.3337 8.26267 25.3337H23.7373C25.228 25.3337 25.9733 25.3337 26.5427 25.043C27.0453 24.787 27.4533 24.379 27.7093 23.8777C28 23.307 28 22.563 28 21.0723V14.667M4 14.667V12.0003M4 14.667H28M28 14.667V12.0003M4 12.0003V10.9337C4 9.44033 4 8.69366 4.29067 8.12299C4.54667 7.62033 4.95333 7.21366 5.456 6.95766C6.02667 6.66699 6.77333 6.66699 8.26667 6.66699H23.7333C25.2267 6.66699 25.9733 6.66699 26.5427 6.95766C27.0453 7.21366 27.4533 7.62033 27.7093 8.12299C28 8.69233 28 9.43899 28 10.9297V12.0003M4 12.0003H28M9.33333 20.0003H14.6667" stroke="#59A3D4" stroke-width="2" stroke-linecap="round" stroke-linejoin="round"/>
</svg>
