<svg width="20" height="20" viewBox="0 0 20 20" fill="none" xmlns="http://www.w3.org/2000/svg">
<path d="M9.99992 3.33301C8.23181 3.33301 6.53612 4.03539 5.28587 5.28563C4.03563 6.53587 3.33325 8.23156 3.33325 9.99967C3.33325 11.7678 4.03563 13.4635 5.28587 14.7137C6.53612 15.964 8.23181 16.6663 9.99992 16.6663C11.768 16.6663 13.4637 15.964 14.714 14.7137C15.9642 13.4635 16.6666 11.7678 16.6666 9.99967C16.6666 8.23156 15.9642 6.53587 14.714 5.28563C13.4637 4.03539 11.768 3.33301 9.99992 3.33301Z" stroke="#59A3D4" stroke-width="2" stroke-linecap="round" stroke-linejoin="round"/>
<path d="M10 7.5C9.33696 7.5 8.70107 7.76339 8.23223 8.23223C7.76339 8.70107 7.5 9.33696 7.5 10C7.5 10.663 7.76339 11.2989 8.23223 11.7678C8.70107 12.2366 9.33696 12.5 10 12.5C10.663 12.5 11.2989 12.2366 11.7678 11.7678C12.2366 11.2989 12.5 10.663 12.5 10C12.5 9.33696 12.2366 8.70107 11.7678 8.23223C11.2989 7.76339 10.663 7.5 10 7.5Z" fill="#59A3D4" stroke="#59A3D4" stroke-width="2" stroke-linecap="round" stroke-linejoin="round"/>
</svg>
