<svg width="24" height="24" viewBox="0 0 24 24" fill="none" xmlns="http://www.w3.org/2000/svg">
<path d="M10.875 7.5V8.625H7.5V7.5H10.875ZM7.5 10.875V9.75H10.875V10.875H7.5ZM7.5 13.125V12H9.75V13.125H7.5ZM6.375 7.5V8.625H5.25V7.5H6.375ZM6.375 9.75V10.875H5.25V9.75H6.375ZM5.25 13.125V12H6.375V13.125H5.25ZM4.125 4.125V19.875H9.75V21H3V3H12.7998L17.625 7.8252V9.75H16.5V8.625H12V4.125H4.125ZM13.125 4.9248V7.5H15.7002L13.125 4.9248ZM18.75 12H21V21H10.875V12H13.125V10.875H14.25V12H17.625V10.875H18.75V12ZM19.875 19.875V15.375H12V19.875H19.875ZM19.875 14.25V13.125H12V14.25H19.875Z" fill="#777777"/>
</svg>
