<svg width="24" height="24" viewBox="0 0 24 24" fill="none" xmlns="http://www.w3.org/2000/svg">
<path d="M11.25 2.25V3.8205C9.123 4.1775 7.5 6.0375 7.5 8.25C7.5 9.58275 8.124 10.611 8.9535 11.2733C9.783 11.9355 10.7812 12.3045 11.7188 12.6795C12.6562 13.0545 13.5322 13.4355 14.1097 13.8983C14.6857 14.361 15 14.8298 15 15.75C15 17.367 13.6553 18.75 12 18.75C10.3357 18.75 9 17.4143 9 15.75V15H7.5V15.75C7.5 17.9737 9.123 19.8225 11.25 20.1795V21.75H12.75V20.1795C14.883 19.8195 16.5 17.9445 16.5 15.75C16.5 14.4142 15.876 13.3912 15.0465 12.7267C14.2178 12.0615 13.2188 11.6715 12.2812 11.2965C11.3438 10.9215 10.4678 10.5615 9.89025 10.1017C9.3135 9.64125 9 9.16425 9 8.25C9 6.60675 10.3388 5.25 12 5.25C13.6643 5.25 15 6.58575 15 8.25V9H16.5V8.25C16.5 6.02625 14.877 4.1775 12.75 3.8205V2.25H11.25Z" fill="#777777"/>
</svg>
