<svg width="24" height="24" viewBox="0 0 24 24" fill="none" xmlns="http://www.w3.org/2000/svg">
<path d="M4.52001 5.93455L1.39401 2.80755L2.80801 1.39355L22.607 21.1916L21.193 22.6066L17.883 19.2966C16.1239 20.4122 14.0831 21.003 12 20.9996C6.60801 20.9996 2.12201 17.1196 1.18201 11.9996C1.61292 9.67132 2.78359 7.54428 4.52001 5.93455ZM14.758 16.1716L13.294 14.7076C12.7341 14.9755 12.1048 15.0631 11.4929 14.9583C10.8811 14.8536 10.3168 14.5616 9.87788 14.1227C9.43894 13.6838 9.14698 13.1195 9.04222 12.5076C8.93747 11.8958 9.02509 11.2665 9.29301 10.7066L7.82901 9.24255C7.19272 10.204 6.90828 11.3559 7.02384 12.503C7.1394 13.6502 7.64786 14.7222 8.46313 15.5374C9.27839 16.3527 10.3504 16.8612 11.4975 16.9767C12.6447 17.0923 13.7965 16.8078 14.758 16.1716ZM7.97401 3.75955C9.22101 3.26955 10.58 2.99955 12 2.99955C17.392 2.99955 21.878 6.87955 22.819 11.9996C22.5126 13.6656 21.8239 15.2378 20.807 16.5926L16.947 12.7326C16.9823 12.4926 17 12.2482 17 11.9996C17.0001 11.281 16.8454 10.5709 16.5463 9.91751C16.2472 9.26416 15.8108 8.68295 15.2668 8.21347C14.7229 7.74399 14.0841 7.39727 13.394 7.19694C12.704 6.9966 11.9788 6.94736 11.268 7.05255L7.97401 3.75955Z" fill="#375885"/>
</svg>
