<svg width="24" height="24" viewBox="0 0 24 24" fill="none" xmlns="http://www.w3.org/2000/svg">
<g clip-path="url(#clip0_290_3128)">
<path d="M0 17.9997C0 18.7069 0.280952 19.3852 0.781049 19.8853C1.28115 20.3854 1.95942 20.6663 2.66667 20.6663H21.3333C22.0406 20.6663 22.7189 20.3854 23.219 19.8853C23.719 19.3852 24 18.7069 24 17.9997V15.333H0V17.9997Z" fill="#FFCD05"/>
<path d="M0 9.33301H24V15.333H0V9.33301Z" fill="#ED1F24"/>
<path d="M21.3333 3.33301H2.66667C1.95942 3.33301 1.28115 3.61396 0.781049 4.11406C0.280952 4.61415 0 5.29243 0 5.99967L0 9.33301H24V5.99967C24 5.29243 23.719 4.61415 23.219 4.11406C22.7189 3.61396 22.0406 3.33301 21.3333 3.33301Z" fill="#141414"/>
</g>
<defs>
<clipPath id="clip0_290_3128">
<rect width="24" height="24" fill="white"/>
</clipPath>
</defs>
</svg>
